<svg width="272" height="342" viewBox="0 0 272 342" fill="none" xmlns="http://www.w3.org/2000/svg">
<path d="M34.3678 341.624H17.2158V0.375977H34.3678V341.624Z" fill="#D1D8DE"/>
<path d="M220.48 341.624H29.7598V0.375977H271.168V291.064L220.48 341.624Z" fill="#EFF2F4"/>
<path d="M0.832031 136.568V36.856L17.216 52.984V152.824L0.832031 136.568Z" fill="#0096CC"/>
<path d="M0.832031 136.568V36.856H180.672V136.568H0.832031Z" fill="#00AEEF"/>
<path d="M35.3916 100.984H42.8156C47.0396 100.984 50.2396 99.8319 52.1596 97.6559C54.0796 95.4799 54.9756 91.7679 54.9756 86.7759C54.9756 81.7839 54.0796 78.0719 52.2876 75.7679C50.4956 73.4639 47.6796 72.1839 43.9676 72.1839H35.5196V100.984H35.3916ZM26.4316 109.048V64.2479H43.9676C50.8796 64.2479 55.9996 66.1679 59.3276 69.7519C62.6556 73.4639 64.4476 79.0959 64.4476 86.6479C64.4476 90.7439 63.8076 94.3279 62.5276 97.5279C61.2476 100.6 59.4556 103.16 57.1516 105.08C55.3596 106.488 53.3116 107.512 51.1356 108.152C48.8316 108.792 45.6316 109.048 41.5356 109.048H26.5596H26.4316ZM79.1676 86.6479C79.1676 91.5119 80.3196 95.3519 82.4956 98.1679C84.6716 100.856 87.7436 102.264 91.7116 102.264C95.6796 102.264 98.7516 100.856 100.928 98.1679C103.104 95.4799 104.256 91.6399 104.256 86.6479C104.256 81.7839 103.104 77.9439 100.928 75.1279C98.7516 72.4399 95.6796 71.0319 91.7116 71.0319C87.7436 71.0319 84.6716 72.4399 82.4956 75.1279C80.3196 77.8159 79.1676 81.6559 79.1676 86.6479ZM69.8236 86.6479C69.8236 79.4799 71.7436 73.7199 75.7116 69.4959C79.6796 65.2719 84.9276 63.0959 91.7116 63.0959C98.3676 63.0959 103.744 65.2719 107.712 69.4959C111.68 73.7199 113.6 79.4799 113.6 86.6479C113.6 93.8159 111.68 99.5759 107.712 103.8C103.744 108.024 98.3676 110.2 91.7116 110.2C85.0556 110.2 79.6796 108.024 75.7116 103.8C71.7436 99.5759 69.8236 93.8159 69.8236 86.6479ZM159.808 93.5599C159.424 98.6799 157.504 102.648 153.92 105.72C150.336 108.664 145.728 110.2 139.968 110.2C133.312 110.2 128.192 108.152 124.48 104.056C120.768 99.9599 118.976 94.0719 118.976 86.6479C118.976 79.0959 120.896 73.2079 124.608 69.1119C128.32 65.0159 133.696 63.0959 140.736 63.0959C146.496 63.0959 150.976 64.5039 154.304 67.3199C157.632 70.1359 159.424 74.1039 159.808 79.0959H150.72C150.336 76.5359 149.312 74.6159 147.648 73.3359C145.984 72.0559 143.68 71.2879 140.864 71.2879C136.768 71.2879 133.696 72.5679 131.648 75.2559C129.6 77.8159 128.448 81.6559 128.448 86.6479C128.448 91.5119 129.472 95.2239 131.648 97.9119C133.696 100.6 136.768 101.88 140.608 101.88C143.424 101.88 145.728 101.112 147.52 99.7039C149.312 98.2959 150.464 96.2479 150.976 93.5599H159.936H159.808Z" fill="white"/>
<path d="M220.48 291.064H271.168L220.48 341.624V291.064Z" fill="#D1D8DE"/>
<path fill-rule="evenodd" clip-rule="evenodd" d="M100.416 189.048H202.176V289.144H100.416V189.048Z" fill="#0096CC"/>
<path fill-rule="evenodd" clip-rule="evenodd" d="M109.248 197.752H193.344V280.44H109.248V197.752Z" fill="white"/>
<path fill-rule="evenodd" clip-rule="evenodd" d="M133.696 255.864L135.232 251.896L138.816 242.936L151.744 213.24H164.672V243.704C164.672 247.672 164.288 251.768 163.648 255.864C163.904 255.096 165.568 250.744 168.768 242.552L180.416 213.24H195.264L170.816 269.56H153.024V245.752C153.024 241.784 153.152 237.56 153.536 233.336C152.64 236.792 151.232 241.272 148.928 246.776L139.2 269.688H122.432L120.512 213.368H134.72L134.336 241.528C134.208 248.44 133.824 253.176 133.312 255.992L133.696 255.864Z" fill="#0096CC"/>
</svg>
