<svg width="512" height="512" viewBox="0 0 512 512" fill="none" xmlns="http://www.w3.org/2000/svg">
<g clip-path="url(#clip0_8_1658)">
<path d="M511.344 274.266C511.77 268.231 512 262.143 512 256C512 114.615 397.385 0 256 0C114.615 0 0 114.615 0 256C0 373.769 79.53 472.949 187.809 502.801L511.344 274.266Z" fill="#9187C5"/>
<path d="M511.344 274.266L314.991 77.9131L119.096 434.087L187.81 502.801C209.522 508.787 232.385 512 256 512C391.243 512 501.976 407.125 511.344 274.266Z" fill="#6A5CAF"/>
<path d="M278.328 333.913L255.711 77.9131H119.096V311.652L278.328 333.913Z" fill="white"/>
<path d="M392.904 311.652V155.826L337.252 133.565L314.991 77.9131H255.711L256.067 333.913L392.904 311.652Z" fill="#E8E6E6"/>
<path d="M314.991 155.826V77.9131L392.904 155.826H314.991Z" fill="white"/>
<path d="M392.905 311.652H119.096V434.087H392.905V311.652Z" fill="#1B0683"/>
<path d="M197.492 346.387C214.141 346.387 225.644 357.133 225.644 372.874C225.644 388.54 213.989 399.362 196.961 399.362H174.711V346.387H197.492ZM188.182 388.615H197.793C206.042 388.615 211.944 382.258 211.944 372.95C211.944 363.566 205.739 357.133 197.187 357.133H188.181V388.615H188.182Z" fill="white"/>
<path d="M287.481 372.798C287.481 388.237 275.221 399.967 258.799 399.967C242.452 399.967 230.192 388.312 230.192 372.798C230.192 357.359 242.452 345.932 258.799 345.932C275.221 345.933 287.481 357.436 287.481 372.798ZM243.965 372.874C243.965 381.804 250.853 388.691 258.95 388.691C267.123 388.691 273.631 381.803 273.631 372.874C273.631 363.945 267.123 357.209 258.95 357.209C250.776 357.209 243.965 363.944 243.965 372.874Z" fill="white"/>
<path d="M341.674 354.863L333.879 364.096C330.399 359.858 325.252 357.209 320.559 357.209C312.159 357.209 305.802 363.868 305.802 372.572C305.802 381.426 312.159 388.161 320.559 388.161C325.025 388.161 330.17 385.739 333.879 381.955L341.749 390.279C336.074 396.106 327.673 399.966 319.878 399.966C303.909 399.966 292.029 388.236 292.029 372.721C292.029 357.434 304.213 345.931 320.334 345.931C328.203 345.933 336.376 349.413 341.674 354.863Z" fill="white"/>
</g>
<defs>
<clipPath id="clip0_8_1658">
<rect width="512" height="512" fill="white"/>
</clipPath>
</defs>
</svg>
