<svg width="272" height="342" viewBox="0 0 272 342" fill="none" xmlns="http://www.w3.org/2000/svg">
<path d="M34.3678 341.624H17.2158V0.375977H34.3678V341.624Z" fill="#D1D8DE"/>
<path d="M220.48 341.624H29.7598V0.375977H271.168V291.064L220.48 341.624Z" fill="#EFF2F4"/>
<path d="M0.832031 136.568V36.856L17.216 52.984V152.824L0.832031 136.568Z" fill="#00897B"/>
<path d="M220.48 291.064H271.168L220.48 341.624V291.064Z" fill="#CFD8DF"/>
<path d="M0.832031 136.568V36.856H180.672V136.568H0.832031Z" fill="#26A69A"/>
<path d="M36.5439 109.048V64.248H69.0559V72.056H45.6319V81.656H67.0079V89.336H45.6319V100.856H70.2079V109.176H36.6719L36.5439 109.048ZM72.2559 109.048L86.3359 86.264L72.2559 64.376H82.8799L91.9679 79.992L101.056 64.376H111.808L97.7279 86.264L111.808 109.176H101.184L92.0959 93.688L83.0079 109.176H72.3839L72.2559 109.048ZM116.16 109.048V64.248H148.672V72.056H125.248V81.656H146.624V89.336H125.248V100.856H149.824V109.176H116.288L116.16 109.048Z" fill="white"/>
<path fill-rule="evenodd" clip-rule="evenodd" d="M100.288 212.6H190.4V279.416H100.288V212.6Z" fill="#AAB1B7"/>
<path fill-rule="evenodd" clip-rule="evenodd" d="M100.288 212.6H190.4V230.264H100.288V212.6Z" fill="#303F9F"/>
<path fill-rule="evenodd" clip-rule="evenodd" d="M179.137 217.848H184.769V223.48H179.137V217.848Z" fill="#D1D1D1"/>
<path fill-rule="evenodd" clip-rule="evenodd" d="M171.328 217.848H176.96V223.48H171.328V217.848Z" fill="#D1D1D1"/>
<path fill-rule="evenodd" clip-rule="evenodd" d="M163.521 217.848H169.153V223.48H163.521V217.848Z" fill="#D1D1D1"/>
<path fill-rule="evenodd" clip-rule="evenodd" d="M112.064 198.648H202.176V265.464H112.064V198.648Z" fill="#BAC2C9"/>
<path fill-rule="evenodd" clip-rule="evenodd" d="M112.064 198.648H202.176V216.312H112.064V198.648Z" fill="#3949AB"/>
<path fill-rule="evenodd" clip-rule="evenodd" d="M191.04 203.768H196.672V209.4H191.04V203.768Z" fill="#D50000"/>
<path fill-rule="evenodd" clip-rule="evenodd" d="M183.104 203.768H188.736V209.4H183.104V203.768Z" fill="#FFA000"/>
<path fill-rule="evenodd" clip-rule="evenodd" d="M175.297 203.768H180.929V209.4H175.297V203.768Z" fill="#00C853"/>
</svg>
