<svg width="272" height="342" viewBox="0 0 272 342" fill="none" xmlns="http://www.w3.org/2000/svg">
<path d="M34.3678 341.624H17.2158V0.375977H34.3678V341.624Z" fill="#D1D8DE"/>
<path d="M220.48 341.624H29.7598V0.375977H271.168V291.064L220.48 341.624Z" fill="#EFF2F4"/>
<path d="M0.832031 136.568V36.856L17.216 52.984V152.824L0.832031 136.568Z" fill="#314394"/>
<path d="M220.48 291.064H271.168L220.48 341.624V291.064Z" fill="#CFD8DF"/>
<path d="M0.832031 136.568V36.856H180.672V136.568H0.832031Z" fill="#4455A5"/>
<path d="M34.752 109.048V64.2479H43.968V80.8879H62.4V64.2479H71.616V109.048H62.4V89.2079H43.968V109.048H34.752ZM80.96 109.048V64.2479H90.176V100.728H112.064V109.048H80.96ZM126.272 84.9839H135.232C137.664 84.9839 139.328 84.4719 140.48 83.4479C141.632 82.4239 142.144 80.7599 142.144 78.4559C142.144 76.2799 141.632 74.7439 140.48 73.5919C139.456 72.4399 137.792 71.9279 135.616 71.9279H126.272V84.8559V84.9839ZM126.272 93.0479V108.92H117.056V64.1199H136.896C141.632 64.1199 145.088 65.3999 147.52 67.8319C149.952 70.2639 151.104 73.8479 151.104 78.5839C151.104 83.1919 149.952 86.7759 147.52 89.2079C145.216 91.7679 141.76 92.9199 137.408 92.9199H126.144L126.272 93.0479Z" fill="white"/>
<path fill-rule="evenodd" clip-rule="evenodd" d="M126.912 189.176H202.176V272.12H126.912V189.176Z" fill="#999999"/>
<path fill-rule="evenodd" clip-rule="evenodd" d="M113.6 201.464H188.864V280.696H113.6V201.464Z" fill="#B3B3B3"/>
<path fill-rule="evenodd" clip-rule="evenodd" d="M100.16 214.648H175.424V288.632H100.16V214.648Z" fill="#CCCCCC"/>
<path d="M139.072 264.44H131.776C131.776 263.416 131.776 262.776 131.776 262.52C131.776 260.216 132.16 258.296 132.928 256.76C133.696 255.224 135.232 253.56 137.536 251.64C139.84 249.72 141.248 248.568 141.76 247.928C142.528 247.032 142.784 246.008 142.784 244.856C142.784 243.32 142.144 242.04 140.864 240.888C139.584 239.736 137.92 239.224 135.872 239.224C133.824 239.224 132.16 239.864 130.752 241.016C129.344 242.168 128.448 243.96 127.936 246.264L120.64 245.368C120.896 242.04 122.304 239.096 124.992 236.792C127.68 234.488 131.136 233.208 135.488 233.208C140.096 233.208 143.68 234.36 146.368 236.792C149.056 239.224 150.464 241.912 150.464 245.112C150.464 246.904 149.952 248.568 148.928 250.104C147.904 251.64 145.856 253.816 142.528 256.504C140.864 257.912 139.84 259.064 139.328 259.832C138.944 260.728 138.688 262.264 138.816 264.44H139.072ZM131.776 275.192V267.256H139.712V275.192H131.776Z" fill="#808080"/>
</svg>
