<svg width="272" height="342" viewBox="0 0 272 342" fill="none" xmlns="http://www.w3.org/2000/svg">
<path d="M34.3678 341.624H17.2158V0.375977H34.3678V341.624Z" fill="#D1D8DE"/>
<path d="M220.48 341.624H29.7603V0.375977H271.168V291.064L220.48 341.624Z" fill="#EFF2F4"/>
<path d="M0.832031 136.568V36.856L17.216 52.984V152.824L0.832031 136.568Z" fill="#455A64"/>
<path d="M220.48 291.064H271.168L220.48 341.624V291.064Z" fill="#CFD8DF"/>
<path d="M0.832031 136.568V36.856H180.672V136.568H0.832031Z" fill="#546E7A"/>
<path d="M33.728 95.224H42.816C43.2 97.656 44.224 99.448 45.76 100.728C47.424 101.88 49.856 102.52 52.928 102.52C55.616 102.52 57.664 102.008 58.944 101.112C60.352 100.216 60.992 98.808 60.992 96.888C60.992 94.2 57.152 91.896 49.344 90.104H49.088C48.832 90.104 48.576 89.976 48.192 89.848C43.968 88.952 41.024 87.928 39.232 86.776C37.696 85.752 36.416 84.344 35.648 82.68C34.88 81.016 34.368 78.968 34.368 76.664C34.368 72.312 35.904 68.984 38.848 66.68C41.792 64.376 46.016 63.224 51.648 63.224C56.896 63.224 60.992 64.504 63.936 66.936C66.88 69.368 68.416 72.952 68.544 77.432H59.712C59.584 75.256 58.688 73.592 57.28 72.44C55.744 71.288 53.696 70.776 50.88 70.776C48.448 70.776 46.656 71.288 45.248 72.184C43.968 73.08 43.328 74.488 43.328 76.152C43.328 78.584 45.888 80.248 51.008 81.528C52.416 81.912 53.44 82.04 54.208 82.296C57.408 83.064 59.84 83.832 61.12 84.216C62.528 84.728 63.68 85.24 64.704 85.752C66.496 86.776 67.904 88.056 68.8 89.72C69.696 91.384 70.208 93.432 70.208 95.736C70.208 100.344 68.672 104.056 65.472 106.616C62.272 109.176 57.92 110.456 52.16 110.456C46.528 110.456 42.048 109.176 38.976 106.488C35.776 103.928 34.112 100.216 33.856 95.352L33.728 95.224ZM97.344 109.048H88.128V92.408L71.872 64.376H83.136L92.736 83.704L101.568 64.376H112.064L97.344 92.408V109.048ZM113.984 95.224H123.072C123.456 97.656 124.48 99.448 126.016 100.728C127.68 101.88 130.112 102.52 133.184 102.52C135.872 102.52 137.92 102.008 139.2 101.112C140.608 100.216 141.248 98.808 141.248 96.888C141.248 94.2 137.408 91.896 129.6 90.104H129.344C129.088 90.104 128.832 89.976 128.448 89.848C124.224 88.952 121.28 87.928 119.488 86.776C117.952 85.752 116.672 84.344 115.904 82.68C115.136 81.016 114.624 78.968 114.624 76.664C114.624 72.312 116.16 68.984 119.104 66.68C122.048 64.376 126.272 63.224 131.904 63.224C137.152 63.224 141.248 64.504 144.192 66.936C147.136 69.368 148.672 72.952 148.8 77.432H139.968C139.84 75.256 138.944 73.592 137.536 72.44C136 71.288 133.952 70.776 131.136 70.776C128.704 70.776 126.912 71.288 125.504 72.184C124.224 73.08 123.584 74.488 123.584 76.152C123.584 78.584 126.144 80.248 131.264 81.528C132.672 81.912 133.696 82.04 134.464 82.296C137.664 83.064 140.096 83.832 141.376 84.216C142.784 84.728 143.936 85.24 144.96 85.752C146.752 86.776 148.16 88.056 149.056 89.72C149.952 91.384 150.464 93.432 150.464 95.736C150.464 100.344 148.928 104.056 145.728 106.616C142.528 109.176 138.176 110.456 132.416 110.456C126.784 110.456 122.304 109.176 119.232 106.488C116.032 103.928 114.368 100.216 114.112 95.352L113.984 95.224Z" fill="white"/>
<path fill-rule="evenodd" clip-rule="evenodd" d="M189.376 222.328C186.176 221.048 183.488 218.488 182.08 215.16C180.672 211.96 180.8 208.248 182.208 204.92C182.336 204.664 182.336 204.28 182.08 204.024L175.04 196.984C174.784 196.728 174.4 196.728 174.144 196.856C170.944 198.264 167.232 198.264 163.904 196.984C160.704 195.704 158.016 193.016 156.736 189.688C156.608 189.432 156.48 189.176 155.968 189.176H145.984C145.6 189.176 145.344 189.432 145.216 189.688C143.936 193.016 141.376 195.576 138.048 196.984C134.848 198.392 131.136 198.264 127.808 196.856C127.552 196.728 127.168 196.856 126.912 196.984L119.872 204.024C119.616 204.28 119.616 204.536 119.744 204.92C121.152 208.12 121.152 211.832 119.872 215.16C118.464 218.36 115.904 221.048 112.576 222.328C112.32 222.456 112.064 222.712 112.064 223.096V233.08C112.064 233.592 112.32 233.72 112.576 233.848C114.24 234.488 115.776 235.512 117.056 236.792C118.208 238.072 119.232 239.48 119.872 241.016C121.28 244.344 121.152 247.928 119.744 251.256C119.616 251.512 119.744 251.896 119.872 252.152L126.912 259.192C127.168 259.448 127.552 259.448 127.808 259.32C131.008 257.912 134.72 257.912 138.048 259.192C141.248 260.472 143.808 263.032 145.088 266.232C145.472 265.976 145.728 265.72 146.24 265.592C146.88 265.336 147.264 264.952 147.52 264.312C147.776 263.8 147.776 263.16 147.52 262.52C146.752 260.856 147.136 258.936 148.416 257.784L151.744 254.456C153.024 253.176 154.816 252.792 156.48 253.56C156.992 253.816 157.76 253.816 158.272 253.56C158.784 253.304 159.296 252.92 159.424 252.28C160.064 250.616 161.728 249.464 163.392 249.464H168.128C169.28 249.464 170.432 249.976 171.2 250.744L171.712 251.256L172.096 252.152C172.352 252.792 172.864 253.304 173.376 253.432C173.888 253.688 174.528 253.688 175.168 253.432C176.704 252.792 178.496 253.048 179.776 254.2L181.952 252.024C182.208 251.768 182.208 251.384 182.08 251.128C180.672 247.928 180.672 244.216 181.952 240.888C183.36 237.688 185.92 235 189.248 233.72C189.504 233.592 189.76 233.336 189.76 232.952V222.968C189.76 222.456 189.504 222.328 189.248 222.2L189.376 222.328ZM164.8 241.656C157.248 249.208 144.96 249.208 137.536 241.656C129.984 234.104 129.984 221.944 137.536 214.392C145.088 206.84 157.248 206.84 164.8 214.392C172.352 221.944 172.352 234.232 164.8 241.656Z" fill="#808080"/>
<path fill-rule="evenodd" clip-rule="evenodd" d="M183.744 267.64C182.208 267 180.928 265.848 180.288 264.312C179.648 262.776 179.648 260.984 180.288 259.448C180.288 259.32 180.288 259.192 180.16 259.064L176.832 255.736C176.704 255.608 176.576 255.608 176.448 255.608C174.912 256.248 173.12 256.248 171.584 255.608C170.048 254.968 168.768 253.688 168.256 252.152C168.256 252.024 168.128 251.896 167.872 251.896H163.136C163.008 251.896 162.88 252.024 162.752 252.152C162.112 253.688 160.96 254.968 159.424 255.608C157.888 256.248 156.096 256.248 154.56 255.608C154.432 255.608 154.176 255.608 154.176 255.736L150.848 259.064C150.72 259.192 150.72 259.32 150.72 259.448C151.36 260.984 151.36 262.776 150.72 264.312C150.08 265.848 148.8 267.128 147.264 267.64C147.136 267.64 147.008 267.896 147.008 268.024V272.76C147.008 273.016 147.136 273.144 147.264 273.144C148.032 273.528 148.8 273.912 149.44 274.552C150.08 275.192 150.464 275.832 150.72 276.6C151.36 278.136 151.36 279.928 150.72 281.464C150.72 281.592 150.72 281.848 150.848 281.848L154.176 285.176C154.304 285.304 154.432 285.304 154.56 285.304C156.096 284.664 157.888 284.664 159.424 285.304C160.96 285.944 162.24 287.224 162.752 288.76C162.752 288.888 162.88 289.016 163.136 289.016H167.872C168 289.016 168.128 288.888 168.256 288.76C168.896 287.224 170.048 285.944 171.584 285.304C173.12 284.664 174.912 284.664 176.448 285.304C176.576 285.304 176.704 285.304 176.832 285.176L180.16 281.848C180.288 281.72 180.288 281.592 180.288 281.464C179.648 279.928 179.648 278.136 180.288 276.6C180.928 275.064 182.208 273.784 183.744 273.272C183.872 273.272 184 273.016 184 272.888V268.152C184 267.896 183.872 267.896 183.744 267.768V267.64ZM172.096 276.856C168.512 280.44 162.752 280.44 159.168 276.856C155.584 273.272 155.584 267.512 159.168 263.928C162.752 260.344 168.512 260.344 172.096 263.928C175.68 267.512 175.68 273.272 172.096 276.856Z" fill="#808080"/>
</svg>
