<svg width="512" height="512" viewBox="0 0 512 512" fill="none" xmlns="http://www.w3.org/2000/svg">
<g clip-path="url(#clip0_8_2268)">
<path d="M511.344 274.266C511.77 268.231 512 262.143 512 256C512 114.615 397.385 0 256 0C114.615 0 0 114.615 0 256C0 373.769 79.53 472.949 187.809 502.801L511.344 274.266Z" fill="#FDCC77"/>
<path d="M511.344 274.266L314.991 77.9131L119.096 434.087L187.81 502.801C209.522 508.787 232.385 512 256 512C391.243 512 501.976 407.125 511.344 274.266Z" fill="#FCB433"/>
<path d="M278.328 333.913L255.711 77.9131H119.096V311.652L278.328 333.913Z" fill="white"/>
<path d="M392.904 311.652V155.826L337.252 133.565L314.991 77.9131H255.711L256.067 333.913L392.904 311.652Z" fill="#E8E6E6"/>
<path d="M314.991 155.826V77.9131L392.904 155.826H314.991Z" fill="white"/>
<path d="M392.905 311.652H119.096V434.087H392.905V311.652Z" fill="#9E7120"/>
<path d="M210.927 388.691H239.686V399.362H192.915V390.735L221.295 357.058H193.9V346.387H239.232V355.014L210.927 388.691Z" fill="white"/>
<path d="M249.075 399.362V346.387H262.546V399.362H249.075Z" fill="white"/>
<path d="M298.118 346.387C311.664 346.387 319.459 353.046 319.459 364.852C319.459 377.264 311.663 384.453 298.118 384.453H288.506V399.362H275.035V346.387H298.118ZM288.505 373.858H297.435C303.339 373.858 306.742 370.906 306.742 365.306C306.742 359.781 303.337 356.982 297.435 356.982H288.505V373.858Z" fill="white"/>
</g>
<defs>
<clipPath id="clip0_8_2268">
<rect width="512" height="512" fill="white"/>
</clipPath>
</defs>
</svg>
