<svg id="Layer_1" enable-background="new 0 0 512 512" height="512" viewBox="0 0 512 512" width="512" xmlns="http://www.w3.org/2000/svg"><path d="m226.856 291.549c3.82 0 6.92-3.097 6.92-6.92v-18.521h22.683v18.521c0 3.823 3.1 6.92 6.92 6.92s6.92-3.097 6.92-6.92v-38.994c0-13.885-11.294-25.181-25.179-25.181s-25.184 11.297-25.184 25.181v38.994c0 3.823 3.1 6.92 6.92 6.92zm18.264-57.256c6.253 0 11.339 5.089 11.339 11.342v6.634h-22.683v-6.634c0-6.253 5.091-11.342 11.344-11.342zm33.104 50.336v-57.256c0-3.823 3.1-6.92 6.92-6.92s6.92 3.097 6.92 6.92v57.256c0 3.823-3.1 6.92-6.92 6.92s-6.92-3.097-6.92-6.92zm212.615-24.12c-1.577-1.577-3.239-3.082-4.974-4.507 1.734-1.426 3.392-2.928 4.969-4.505 28.22-28.222 28.22-74.143 0-102.361-11.168-11.17-24.927-18.417-39.388-20.872.243-2.156.365-4.325.365-6.499 0-31.73-25.814-57.542-57.544-57.542-.851 0-1.698.018-2.545.056-8.749-21.634-29.576-35.841-53.309-35.841-31.73 0-57.544 25.814-57.544 57.542v95.241h-17.949v-20.886c0-3.823-3.1-6.92-6.92-6.92s-6.92 3.097-6.92 6.92v20.886h-17.944l-.005-95.241c0-31.727-25.814-57.542-57.54-57.542-23.738 0-44.565 14.207-53.314 35.841-.847-.038-1.694-.056-2.545-.056-31.725 0-57.54 25.812-57.54 57.542 0 2.176.122 4.345.365 6.499-14.461 2.455-28.225 9.702-39.393 20.872-28.22 28.22-28.22 74.141 0 102.359 1.572 1.579 3.235 3.082 4.969 4.507-1.734 1.426-3.397 2.928-4.969 4.505-28.22 28.22-28.22 74.141 0 102.361 11.168 11.17 24.931 18.417 39.393 20.872-.243 2.153-.365 4.323-.365 6.499 0 31.73 25.814 57.542 57.54 57.542.851 0 1.698-.018 2.545-.056 8.749 21.634 29.576 35.838 53.314 35.838 31.725 0 57.54-25.812 57.54-57.54l.005-95.241h17.944v20.886c0 3.823 3.1 6.92 6.92 6.92s6.92-3.097 6.92-6.92v-20.886h17.948v95.241c0 31.727 25.814 57.54 57.544 57.54 23.733 0 44.56-14.205 53.309-35.838.847.038 1.694.056 2.545.056 31.73 0 57.544-25.812 57.544-57.542 0-2.174-.122-4.343-.365-6.499 14.461-2.455 28.22-9.702 39.388-20.872 28.222-28.218 28.222-74.139.006-102.359zm-173.898 56.433h-121.882v-121.882h121.882zm-99.649 109.081c0 24.096-19.602 43.7-43.7 43.7-16.975 0-31.991-9.56-39.235-24.389 7.997-2.41 15.43-6.555 21.76-12.225.159-.143.225-.34.368-.493 2.831 1.4 5.974 2.259 9.34 2.259 11.713 0 21.246-9.531 21.246-21.244s-9.533-21.244-21.246-21.244-21.242 9.531-21.242 21.244c0 3.328.837 6.438 2.206 9.245-8.003 7.134-18.316 11.065-29.057 11.065-24.098 0-43.7-19.604-43.7-43.702 0-1.969.153-3.926.412-5.867 11.525-.906 22.53-4.548 32.331-10.661 3.593 2.783 8.044 4.509 12.93 4.509 11.713 0 21.242-9.531 21.242-21.244s-9.528-21.244-21.242-21.244-21.246 9.531-21.246 21.244c0 1.797.292 3.514.714 5.182-9.107 5.606-19.495 8.564-30.314 8.597-13.766-.721-27.224-6.989-37.909-17.671-22.823-22.825-22.823-59.966.005-82.793 3.167-3.174 6.78-5.985 10.727-8.355 2.086-1.25 3.361-3.503 3.361-5.933 0-2.431-1.275-4.683-3.361-5.933-3.942-2.367-7.555-5.179-10.731-8.357-22.823-22.825-22.823-59.966 0-82.791 10.685-10.683 24.143-16.951 37.909-17.671 10.82.033 21.214 2.991 30.318 8.598-.424 1.672-.718 3.393-.718 5.194 0 11.713 9.533 21.244 21.246 21.244s21.242-9.531 21.242-21.244c0-11.716-9.528-21.246-21.242-21.246-4.882 0-9.33 1.722-12.922 4.502-9.8-6.115-20.808-9.759-32.338-10.666-.259-1.94-.412-3.898-.412-5.867 0-24.098 19.602-43.702 43.7-43.702 10.741 0 21.055 3.931 29.058 11.063-1.371 2.807-2.208 5.918-2.208 9.246 0 11.713 9.528 21.244 21.242 21.244s21.246-9.531 21.246-21.244-9.533-21.244-21.246-21.244c-3.366 0-6.508.859-9.339 2.258-.143-.154-.209-.351-.369-.494-6.33-5.67-13.763-9.812-21.76-12.222 7.244-14.831 22.26-24.391 39.235-24.391 24.098 0 43.7 19.604 43.7 43.702l.005 95.241h-29.157c-3.82 0-6.92 3.097-6.92 6.92v16.41h-20.886c-3.82 0-6.92 3.097-6.92 6.92s3.1 6.92 6.92 6.92h20.886v15.847h-20.886c-3.82 0-6.92 3.097-6.92 6.92s3.1 6.92 6.92 6.92h20.886v15.849h-20.886c-3.82 0-6.92 3.097-6.92 6.92s3.1 6.92 6.92 6.92h20.886v15.847h-20.886c-3.82 0-6.92 3.097-6.92 6.92s3.1 6.92 6.92 6.92h20.886v16.41c0 3.823 3.1 6.92 6.92 6.92h29.157zm-58.869-12.392c0-4.084 3.32-7.404 7.402-7.404 4.086 0 7.406 3.32 7.406 7.404s-3.32 7.404-7.406 7.404c-4.082 0-7.402-3.32-7.402-7.404zm-46.124-56.656c0-4.084 3.32-7.404 7.406-7.404 4.082 0 7.402 3.32 7.402 7.404s-3.32 7.404-7.402 7.404c-4.085 0-7.406-3.32-7.406-7.404zm7.407-209.34c4.082 0 7.402 3.323 7.402 7.406s-3.32 7.404-7.402 7.404c-4.086 0-7.406-3.32-7.406-7.404s3.32-7.406 7.406-7.406zm38.717-49.264c0-4.084 3.32-7.404 7.402-7.404 4.086 0 7.406 3.32 7.406 7.404s-3.32 7.404-7.406 7.404c-4.082 0-7.402-3.32-7.402-7.404zm284.717 272.383c-10.601-.032-20.792-2.879-29.767-8.271.478-1.767.815-3.591.815-5.508 0-11.713-9.533-21.244-21.246-21.244s-21.246 9.531-21.246 21.244 9.533 21.244 21.246 21.244c4.752 0 9.099-1.624 12.643-4.271 9.709 5.977 20.588 9.53 31.971 10.425.26 1.943.414 3.901.414 5.866 0 24.098-19.606 43.702-43.704 43.702-9.188 0-18.052-2.896-25.436-8.193 2.405-3.442 3.838-7.609 3.838-12.117 0-11.713-9.533-21.244-21.246-21.244s-21.246 9.531-21.246 21.244 9.533 21.244 21.246 21.244c1.953 0 3.81-.35 5.608-.847 6.081 5.174 13.08 9.035 20.612 11.306-7.244 14.829-22.255 24.389-39.231 24.389-24.098 0-43.704-19.604-43.704-43.7v-95.241h29.153c3.82 0 6.92-3.097 6.92-6.92v-16.41h20.886c3.82 0 6.92-3.097 6.92-6.92s-3.1-6.92-6.92-6.92h-20.886v-15.847h20.886c3.82 0 6.92-3.097 6.92-6.92s-3.1-6.92-6.92-6.92h-20.886v-15.849h20.886c3.82 0 6.92-3.097 6.92-6.92s-3.1-6.92-6.92-6.92h-20.886v-15.846h20.886c3.82 0 6.92-3.097 6.92-6.92s-3.1-6.92-6.92-6.92h-20.886v-16.41c0-3.823-3.1-6.92-6.92-6.92h-29.153v-95.24c0-24.098 19.606-43.702 43.704-43.702 16.975 0 31.986 9.56 39.231 24.391-7.534 2.271-14.532 6.13-20.614 11.305-1.798-.496-3.653-.846-5.606-.846-11.713 0-21.246 9.531-21.246 21.244s9.533 21.244 21.246 21.244 21.246-9.531 21.246-21.244c0-4.508-1.434-8.675-3.839-12.118 7.384-5.295 16.248-8.191 25.437-8.191 24.098 0 43.704 19.604 43.704 43.702 0 1.965-.154 3.924-.414 5.867-11.387.895-22.27 4.451-31.979 10.429-3.542-2.643-7.887-4.265-12.635-4.265-11.713 0-21.246 9.531-21.246 21.246 0 11.713 9.533 21.244 21.246 21.244s21.246-9.531 21.246-21.244c0-1.921-.339-3.749-.819-5.52 8.974-5.393 19.165-8.241 29.771-8.273 13.766.721 27.224 6.989 37.909 17.671 22.823 22.823 22.823 59.963 0 82.793-3.176 3.176-6.789 5.987-10.731 8.355-2.086 1.25-3.361 3.503-3.361 5.933 0 2.431 1.275 4.683 3.361 5.933 3.947 2.37 7.56 5.181 10.731 8.357 22.823 22.828 22.823 59.968 0 82.791-10.685 10.683-24.143 16.951-37.909 17.672zm-50.198-6.375c-4.086 0-7.406-3.32-7.406-7.404s3.32-7.404 7.406-7.404 7.406 3.32 7.406 7.404c.001 4.084-3.32 7.404-7.406 7.404zm-41.519 56.656c-4.086 0-7.406-3.32-7.406-7.404s3.32-7.404 7.406-7.404 7.406 3.32 7.406 7.404-3.32 7.404-7.406 7.404zm7.406-322.664c0 4.084-3.32 7.404-7.406 7.404s-7.406-3.32-7.406-7.404 3.32-7.404 7.406-7.404 7.406 3.32 7.406 7.404zm41.52 56.67c0 4.084-3.32 7.404-7.406 7.404s-7.406-3.32-7.406-7.404 3.32-7.406 7.406-7.406 7.406 3.322 7.406 7.406z"/></svg>