<svg id="Layer_5" enable-background="new 0 0 64 64" height="512" viewBox="0 0 64 64" width="512" xmlns="http://www.w3.org/2000/svg"><path d="m63 32v-8h-7v-13.101c2.279-.465 4-2.484 4-4.899 0-2.757-2.243-5-5-5-2.414 0-4.434 1.721-4.899 4h-8.101v-4h-20v10h9v8.767l-10.241 5.233h-13.759v6h-6v8h6v6h15v4h9v6h-5c-2.206 0-4 1.794-4 4s1.794 4 4 4h12c2.206 0 4-1.794 4-4s-1.794-4-4-4h-5v-6h9v-10h-9v-6.767l12.198-6.233-12.198-6.233v-8.767h9v-4h8.101c.399 1.956 1.943 3.5 3.899 3.899v13.101h-7v8h7v4h-7v8h7v4h-7v8h16v-8h-7v-4h7v-8h-7v-4zm-23 27c0 1.103-.897 2-2 2h-12c-1.103 0-2-.897-2-2s.897-2 2-2h12c1.103 0 2 .897 2 2zm-37-26h10v4h-10zm37 14h-16v-6h16zm-18-8v4h-13v-4h6v-8h-6v-4h11.759l10.241 5.233v6.767zm10-8.502-8.802-4.498 8.802-4.498 8.802 4.498zm8-21.498h-16v-6h16zm12-3c0-1.654 1.346-3 3-3s3 1.346 3 3-1.346 3-3 3-3-1.346-3-3zm9 48h-12v-4h12zm0-12h-12v-4h12zm-12-16h12v4h-12z"/></svg>