<svg fill="none" height="512" viewBox="0 0 24 24" width="512" xmlns="http://www.w3.org/2000/svg"><path d="m22 12.5835v6.9165c0 1.3807-1.1193 2.5-2.5 2.5h-6.9165c-.0271.0046-.055.0069-.0835.0069s-.0564-.0023-.0835-.0069h-6.9165c-1.38071 0-2.5-1.1193-2.5-2.5v-14c0-1.38071 1.11929-2.5 2.5-2.5h14c1.3807 0 2.5 1.11929 2.5 2.5v6.9165c.0046.0271.0069.055.0069.0835s-.0023.0564-.0069.0835zm-18-.5835h8v-8h-6.5c-.82843 0-1.5.67157-1.5 1.5zm0 1v6.5c0 .8284.67157 1.5 1.5 1.5h6.5v-8zm17-1v-6.5c0-.82843-.6716-1.5-1.5-1.5h-6.5v8zm0 1h-8v8h6.5c.8284 0 1.5-.6716 1.5-1.5z" fill="rgb(0,0,0)"/></svg>