<svg height="512" viewBox="0 0 64 64" width="512" xmlns="http://www.w3.org/2000/svg"><g id="Big_Data-Storage-Server-Network-Database" data-name="Big Data-Storage-Server-Network-Database"><path d="m22 11.41v3.59c0 1.89 4.28 4 10 4s10-2.11 10-4v-3.59c-2.11 1.58-5.73 2.59-10 2.59s-7.89-1.01-10-2.59zm3 4.59h-2v-2h2zm4 1h-2v-2h2z"/><path d="m32 4c-5.72 0-10 2.11-10 4s4.28 4 10 4 10-2.11 10-4-4.28-4-10-4zm6 5h-12v-2h12z"/><path d="m32 26c5.72 0 10-2.11 10-4v-3.59c-2.11 1.58-5.73 2.59-10 2.59s-7.89-1.01-10-2.59v3.59c0 1.89 4.28 4 10 4zm-5-4h2v2h-2zm-4-1h2v2h-2z"/><path d="m25 49v-3.59c-2.11 1.58-5.73 2.59-10 2.59s-7.89-1.01-10-2.59v3.59c0 1.89 4.28 4 10 4s10-2.11 10-4zm-17 1h-2v-2h2zm4 1h-2v-2h2z"/><path d="m15 38c-5.72 0-10 2.11-10 4s4.28 4 10 4 10-2.11 10-4-4.28-4-10-4zm6 5h-12v-2h12z"/><path d="m5 56c0 1.89 4.28 4 10 4s10-2.11 10-4v-3.59c-2.11 1.58-5.73 2.59-10 2.59s-7.89-1.01-10-2.59zm5 0h2v2h-2zm-4-1h2v2h-2z"/><path d="m49 60c5.72 0 10-2.11 10-4v-3.59c-2.11 1.58-5.73 2.59-10 2.59s-7.89-1.01-10-2.59v3.59c0 1.89 4.28 4 10 4zm-5-4h2v2h-2zm-4-1h2v2h-2z"/><path d="m49 53c5.72 0 10-2.11 10-4v-3.59c-2.11 1.58-5.73 2.59-10 2.59s-7.89-1.01-10-2.59v3.59c0 1.89 4.28 4 10 4zm-5-4h2v2h-2zm-4-1h2v2h-2z"/><path d="m49 38c-5.72 0-10 2.11-10 4s4.28 4 10 4 10-2.11 10-4-4.28-4-10-4zm6 5h-12v-2h12z"/><path d="m49 32h-14.184a3 3 0 0 0 -1.816-1.816v-2.184h-2v2.184a3 3 0 0 0 -1.816 1.816h-14.184a1 1 0 0 0 -1 1v3h2v-2h13.184a2.982 2.982 0 0 0 5.632 0h13.184v2h2v-3a1 1 0 0 0 -1-1zm-17 2a1 1 0 1 1 1-1 1 1 0 0 1 -1 1z"/></g></svg>