<?xml version="1.0" encoding="iso-8859-1"?>
<!-- Generator: Adobe Illustrator 19.0.0, SVG Export Plug-In . SVG Version: 6.00 Build 0)  -->
<svg version="1.1" id="Layer_1" xmlns="http://www.w3.org/2000/svg" xmlns:xlink="http://www.w3.org/1999/xlink" x="0px" y="0px"
	 viewBox="0 0 512 512" style="enable-background:new 0 0 512 512;" xml:space="preserve">
<g>
	<g>
		<g>
			<path d="M86.978,301.518v-15.715H71.77v15.715H0v210.166h158.748V352.526l-51.007-51.007H86.978z M143.54,496.478H15.208v-0.001
				V316.726h81.78v46.553h46.552V496.478z M112.196,327.479l20.592,20.591h-20.592V327.479z"/>
			<polygon points="43.76,401.214 34.435,401.214 34.435,390.949 26.795,390.949 26.795,418.767 34.435,418.767 34.435,407.875 
				43.76,407.875 43.76,418.767 51.4,418.767 51.4,390.949 43.76,390.949 			"/>
			<polygon points="54.182,397.61 62.214,397.61 62.214,418.767 69.854,418.767 69.854,397.61 77.846,397.61 77.846,390.949 
				54.182,390.949 			"/>
			<polygon points="88.973,390.949 80.628,390.949 80.628,418.767 88.269,418.767 88.269,404.114 92.931,414.418 97.005,414.418 
				101.668,404.114 101.668,418.767 109.307,418.767 109.307,390.949 101.002,390.949 94.967,404.036 			"/>
			<polygon points="134.344,412.107 121.727,412.107 121.727,390.949 114.088,390.949 114.088,418.767 134.344,418.767 			"/>
			<path d="M262.124,301.518v-17.743h-15.208v17.743h-70.29v210.166h158.748V352.526l-51.007-51.007H262.124z M320.166,496.478
				H191.834v-0.001V316.726h81.78v46.553h46.552V496.478z M288.822,327.479l20.592,20.591h-20.592V327.479z"/>
			<path d="M237.86,410.403c-0.405,0.431-0.862,0.784-1.372,1.057c-0.51,0.274-1.038,0.469-1.587,0.588
				c-0.549,0.118-1.084,0.176-1.606,0.176c-0.993,0-1.887-0.202-2.684-0.607c-0.797-0.405-1.469-0.947-2.018-1.626
				c-0.548-0.679-0.967-1.462-1.254-2.351c-0.288-0.887-0.431-1.815-0.431-2.782c0-0.862,0.124-1.731,0.372-2.606
				c0.248-0.875,0.628-1.659,1.137-2.351c0.509-0.691,1.162-1.253,1.959-1.685c0.797-0.431,1.744-0.647,2.841-0.647
				c0.522,0,1.064,0.053,1.626,0.157c0.562,0.104,1.103,0.288,1.626,0.548c0.522,0.262,0.999,0.613,1.43,1.057
				c0.431,0.444,0.778,1.006,1.038,1.685l5.838-4.153c-0.966-1.828-2.435-3.297-4.407-4.408c-1.973-1.11-4.304-1.666-6.994-1.666
				c-2.247,0-4.245,0.406-5.995,1.215c-1.75,0.81-3.239,1.868-4.466,3.173c-1.228,1.307-2.162,2.782-2.801,4.428
				c-0.64,1.645-0.96,3.317-0.96,5.015c0,1.776,0.339,3.526,1.019,5.25c0.678,1.725,1.638,3.266,2.879,4.623
				c1.24,1.359,2.716,2.45,4.428,3.272c1.71,0.823,3.598,1.234,5.661,1.234c1.176,0,2.384-0.144,3.625-0.431
				c1.241-0.287,2.403-0.705,3.487-1.253c1.084-0.548,2.05-1.228,2.9-2.038c0.849-0.809,1.482-1.724,1.9-2.742l-6.23-3.722
				C238.585,409.443,238.265,409.971,237.86,410.403z"/>
			<path d="M266.286,404.604c-0.732-0.64-1.614-1.195-2.644-1.666c-1.033-0.47-2.188-0.901-3.468-1.293
				c-0.81-0.261-1.535-0.484-2.175-0.666c-0.641-0.182-1.182-0.372-1.626-0.569c-0.444-0.197-0.783-0.412-1.018-0.647
				c-0.235-0.235-0.353-0.535-0.353-0.901c0-0.496,0.202-0.849,0.607-1.057c0.405-0.209,0.947-0.313,1.626-0.313
				c0.835,0,1.69,0.137,2.565,0.412s1.666,0.569,2.371,0.882c0.835,0.366,1.645,0.784,2.429,1.253l3.291-6.308
				c-0.627-0.313-1.331-0.647-2.116-0.999c-0.783-0.353-1.626-0.678-2.527-0.979c-0.901-0.3-1.836-0.549-2.802-0.744
				c-0.966-0.196-1.959-0.294-2.978-0.294c-1.385,0-2.697,0.203-3.938,0.607c-1.241,0.404-2.345,0.999-3.31,1.782
				c-0.967,0.784-1.731,1.763-2.292,2.938c-0.562,1.175-0.842,2.534-0.842,4.075c0,1.018,0.137,1.92,0.412,2.703
				c0.275,0.784,0.699,1.483,1.273,2.097c0.574,0.613,1.306,1.162,2.194,1.645c0.887,0.484,1.946,0.934,3.173,1.352
				c0.835,0.288,1.626,0.535,2.37,0.744c0.744,0.21,1.403,0.419,1.979,0.627c0.574,0.21,1.025,0.45,1.352,0.725
				c0.326,0.275,0.49,0.607,0.49,1c0,0.366-0.163,0.66-0.49,0.881c-0.326,0.222-0.908,0.334-1.744,0.334
				c-1.097,0-2.175-0.157-3.232-0.47c-1.057-0.313-2.005-0.666-2.841-1.057c-0.993-0.444-1.946-0.953-2.86-1.528l-3.291,6.7
				c0.835,0.497,1.744,0.941,2.723,1.332c0.979,0.392,1.998,0.732,3.057,1.019c1.057,0.288,2.122,0.509,3.193,0.666
				c1.071,0.157,2.116,0.235,3.134,0.235c1.281,0,2.554-0.15,3.821-0.45c1.266-0.3,2.403-0.79,3.408-1.469
				c1.006-0.678,1.816-1.587,2.429-2.723c0.612-1.137,0.921-2.54,0.921-4.212c0-1.306-0.196-2.416-0.588-3.331
				C267.578,406.021,267.016,405.244,266.286,404.604z"/>
			<path d="M271.259,400.116c0,1.018,0.137,1.92,0.411,2.703c0.275,0.784,0.699,1.483,1.274,2.097
				c0.573,0.613,1.305,1.162,2.194,1.645c0.887,0.484,1.946,0.934,3.173,1.352c0.835,0.288,1.626,0.535,2.37,0.744
				c0.744,0.21,1.404,0.419,1.978,0.627c0.574,0.21,1.025,0.45,1.353,0.725c0.325,0.275,0.489,0.607,0.489,1
				c0,0.366-0.163,0.66-0.489,0.881c-0.328,0.222-0.908,0.334-1.744,0.334c-1.097,0-2.176-0.157-3.232-0.47
				c-1.058-0.313-2.005-0.666-2.841-1.057c-0.993-0.444-1.947-0.953-2.86-1.528l-3.291,6.7c0.835,0.497,1.744,0.941,2.723,1.332
				c0.98,0.392,1.999,0.732,3.057,1.019c1.057,0.288,2.122,0.509,3.193,0.666c1.072,0.157,2.116,0.235,3.135,0.235
				c1.279,0,2.553-0.15,3.82-0.45c1.266-0.3,2.403-0.79,3.409-1.469c1.005-0.678,1.815-1.587,2.429-2.723s0.921-2.54,0.921-4.212
				c0-1.306-0.196-2.416-0.587-3.331c-0.391-0.914-0.954-1.69-1.685-2.331c-0.732-0.64-1.613-1.195-2.644-1.666
				s-2.188-0.901-3.467-1.293c-0.81-0.261-1.535-0.484-2.175-0.666c-0.641-0.182-1.182-0.372-1.626-0.569
				c-0.444-0.196-0.783-0.412-1.018-0.647c-0.235-0.235-0.354-0.535-0.354-0.901c0-0.496,0.202-0.849,0.608-1.057
				c0.404-0.209,0.947-0.313,1.626-0.313c0.835,0,1.691,0.137,2.566,0.412c0.875,0.275,1.666,0.569,2.37,0.882
				c0.835,0.366,1.645,0.784,2.429,1.253l3.291-6.308c-0.628-0.313-1.332-0.647-2.116-0.999c-0.784-0.353-1.626-0.678-2.528-0.979
				c-0.901-0.3-1.835-0.549-2.801-0.744c-0.966-0.196-1.96-0.294-2.979-0.294c-1.384,0-2.697,0.203-3.938,0.607
				c-1.241,0.404-2.345,0.999-3.31,1.782c-0.967,0.784-1.731,1.763-2.292,2.938C271.538,397.217,271.259,398.575,271.259,400.116z"
				/>
			<path d="M460.993,301.518h-24.018v-15.715h-15.208v15.715h-68.515v210.166H512V352.526L460.993,301.518z M465.448,327.479
				l20.592,20.591h-20.592V327.479z M496.792,496.478H368.46v-0.001V316.726h81.78v46.553h46.552V496.478z"/>
			<path d="M420.579,405.093L420.579,405.093c-0.001,1.332-0.039,2.463-0.118,3.389c-0.079,0.928-0.249,1.685-0.51,2.272
				c-0.262,0.588-0.641,1.013-1.137,1.273c-0.496,0.262-1.15,0.392-1.959,0.392c-0.549,0-1.078-0.052-1.587-0.157
				c-0.509-0.104-0.959-0.222-1.352-0.353c-0.392-0.131-0.719-0.261-0.979-0.392c-0.262-0.13-0.432-0.221-0.51-0.275l-1.606,6.23
				c1.671,1.15,3.683,1.725,6.034,1.725c2.533,0,4.55-0.34,6.054-1.019c1.501-0.679,2.644-1.632,3.428-2.86
				c0.784-1.227,1.293-2.709,1.529-4.447c0.234-1.737,0.353-3.663,0.353-5.779v-14.144h-7.64V405.093z"/>
			<path d="M445.377,391.008c-0.966-0.196-1.959-0.294-2.978-0.294c-1.385,0-2.697,0.203-3.938,0.607
				c-1.241,0.404-2.345,0.999-3.311,1.782c-0.966,0.784-1.731,1.763-2.292,2.938c-0.562,1.175-0.842,2.534-0.842,4.075
				c0,1.018,0.138,1.92,0.412,2.703c0.275,0.784,0.698,1.483,1.273,2.097c0.574,0.613,1.306,1.162,2.194,1.645
				c0.888,0.484,1.946,0.934,3.173,1.352c0.835,0.288,1.626,0.535,2.37,0.744c0.744,0.21,1.404,0.419,1.979,0.627
				c0.574,0.21,1.025,0.45,1.351,0.725c0.327,0.275,0.49,0.607,0.49,1c0,0.366-0.163,0.66-0.49,0.881
				c-0.326,0.222-0.908,0.334-1.744,0.334c-1.097,0-2.175-0.157-3.232-0.47c-1.057-0.313-2.005-0.666-2.841-1.057
				c-0.993-0.444-1.946-0.953-2.859-1.528l-3.291,6.7c0.835,0.497,1.744,0.941,2.723,1.332c0.979,0.392,1.998,0.732,3.057,1.019
				c1.057,0.288,2.122,0.509,3.193,0.666c1.071,0.157,2.116,0.235,3.134,0.235c1.281,0,2.554-0.15,3.821-0.45
				c1.266-0.3,2.403-0.79,3.408-1.469c1.006-0.678,1.816-1.587,2.429-2.723c0.612-1.137,0.921-2.54,0.921-4.212
				c0-1.306-0.196-2.416-0.588-3.331c-0.389-0.914-0.951-1.69-1.682-2.331c-0.732-0.64-1.614-1.195-2.644-1.666
				c-1.033-0.47-2.188-0.901-3.468-1.293c-0.81-0.261-1.535-0.484-2.175-0.666c-0.641-0.182-1.182-0.372-1.626-0.569
				c-0.444-0.196-0.783-0.412-1.019-0.647c-0.234-0.235-0.353-0.535-0.353-0.901c0-0.496,0.202-0.849,0.607-1.057
				c0.405-0.209,0.947-0.313,1.626-0.313c0.835,0,1.69,0.137,2.565,0.412c0.875,0.275,1.666,0.569,2.371,0.882
				c0.835,0.366,1.646,0.784,2.429,1.253l3.291-6.308c-0.627-0.313-1.331-0.647-2.116-0.999c-0.783-0.353-1.626-0.678-2.527-0.979
				C447.278,391.452,446.343,391.203,445.377,391.008z"/>
			<path d="M246.916,205.118v17.743h15.208v-17.743H385.26V53.863V27.085H229.134l-11.967-26.77h-90.424v53.548h-0.003
				l0.003,151.255H246.916z M141.951,15.523h65.357l11.967,26.77h150.778v11.57H141.951V15.523z M141.951,69.071h228.102V189.91
				H141.951V69.071z"/>
			<polygon points="86.978,262.207 104.721,262.207 104.721,246.999 71.77,246.999 71.77,279.949 86.978,279.949 			"/>
			<rect x="334.949" y="246.997" width="46.05" height="15.208"/>
			<rect x="268.207" y="246.997" width="43.728" height="15.208"/>
			<rect x="127.747" y="246.997" width="46.05" height="15.208"/>
			<rect x="196.811" y="246.997" width="44.022" height="15.208"/>
			<polygon points="421.766,279.949 436.974,279.949 436.974,246.999 404.024,246.999 404.024,262.207 421.766,262.207 			"/>
			<rect x="246.916" y="238.085" width="15.208" height="30.456"/>
			
				<rect x="248.424" y="84.316" transform="matrix(-0.8672 -0.498 0.498 -0.8672 414.5189 365.7104)" width="15.208" height="86.525"/>
		</g>
	</g>
</g>
<g>
</g>
<g>
</g>
<g>
</g>
<g>
</g>
<g>
</g>
<g>
</g>
<g>
</g>
<g>
</g>
<g>
</g>
<g>
</g>
<g>
</g>
<g>
</g>
<g>
</g>
<g>
</g>
<g>
</g>
</svg>
