<?xml version="1.0" encoding="UTF-8"?>
<svg xmlns="http://www.w3.org/2000/svg" id="Icons" viewBox="0 0 60 60" width="512" height="512"><path d="M55.145,48.028c-.138,0-.145.048-.145.091V49a1,1,0,0,1-1,1H43v2h9.281C54.585,52,55,52,55,53v.88a.1.1,0,0,0,.062.112l2.9-2.9a.131.131,0,0,0,0-.181Z"/><path d="M55.145,27.028c-.138,0-.145.048-.145.091V28a1,1,0,0,1-1,1H43v2h9.281C54.585,31,55,31,55,32v.88a.1.1,0,0,0,.062.112l2.9-2.9a.131.131,0,0,0,0-.181Z"/><path d="M35.782,7.423a6.016,6.016,0,0,0-.576-1.4,1,1,0,0,1-.052-.891l.254-.591a9.587,9.587,0,0,0-.949-.952l-.593.255a1,1,0,0,1-.89-.051,6,6,0,0,0-1.4-.577,1,1,0,0,1-.666-.595l-.238-.6a9.438,9.438,0,0,0-1.345,0l-.239.6a1,1,0,0,1-.666.595,6,6,0,0,0-1.4.577,1,1,0,0,1-.89.051l-.591-.254a9.587,9.587,0,0,0-.952.949l.255.593a1,1,0,0,1-.052.891,6.016,6.016,0,0,0-.576,1.4,1,1,0,0,1-.595.666l-.6.238a9.588,9.588,0,0,0,0,1.345l.6.239a1,1,0,0,1,.595.666,6.016,6.016,0,0,0,.576,1.4,1,1,0,0,1,.052.891l-.254.591a9.587,9.587,0,0,0,.949.952l.593-.255a1,1,0,0,1,.89.051,6,6,0,0,0,1.4.577,1,1,0,0,1,.666.6l.238.6a9.438,9.438,0,0,0,1.345,0l.239-.6a1,1,0,0,1,.666-.6,6,6,0,0,0,1.4-.577,1,1,0,0,1,.89-.051l.591.254a9.587,9.587,0,0,0,.952-.949l-.255-.593a1,1,0,0,1,.052-.891,6.016,6.016,0,0,0,.576-1.4,1,1,0,0,1,.6-.666l.6-.238a9.588,9.588,0,0,0,0-1.345l-.6-.239A1,1,0,0,1,35.782,7.423ZM30,13a4,4,0,1,1,4-4A4,4,0,0,1,30,13Z"/><path d="M35.782,28.423a6.016,6.016,0,0,0-.576-1.4,1,1,0,0,1-.052-.891l.254-.591a9.587,9.587,0,0,0-.949-.952l-.593.255a1,1,0,0,1-.89-.051,6,6,0,0,0-1.4-.577,1,1,0,0,1-.666-.595l-.238-.6a9.438,9.438,0,0,0-1.345,0l-.239.6a1,1,0,0,1-.666.595,6,6,0,0,0-1.4.577,1,1,0,0,1-.89.051l-.591-.254a9.587,9.587,0,0,0-.952.949l.255.593a1,1,0,0,1-.052.891,6.016,6.016,0,0,0-.576,1.4,1,1,0,0,1-.595.666l-.6.238a9.588,9.588,0,0,0,0,1.345l.6.239a1,1,0,0,1,.595.666,6.016,6.016,0,0,0,.576,1.4,1,1,0,0,1,.052.891l-.254.591a9.587,9.587,0,0,0,.949.952l.593-.255a1,1,0,0,1,.89.051,6,6,0,0,0,1.4.577,1,1,0,0,1,.666.6l.238.6a9.438,9.438,0,0,0,1.345,0l.239-.6a1,1,0,0,1,.666-.6,6,6,0,0,0,1.4-.577,1,1,0,0,1,.89-.051l.591.254a9.587,9.587,0,0,0,.952-.949l-.255-.593a1,1,0,0,1,.052-.891,6.016,6.016,0,0,0,.576-1.4,1,1,0,0,1,.6-.666l.6-.238a9.588,9.588,0,0,0,0-1.345l-.6-.239A1,1,0,0,1,35.782,28.423ZM30,34a4,4,0,1,1,4-4A4,4,0,0,1,30,34Z"/><path d="M35.782,49.423a6.016,6.016,0,0,0-.576-1.4,1,1,0,0,1-.052-.891l.254-.591a9.587,9.587,0,0,0-.949-.952l-.593.255a1,1,0,0,1-.89-.051,6,6,0,0,0-1.4-.577,1,1,0,0,1-.666-.6l-.238-.6a9.438,9.438,0,0,0-1.345,0l-.239.6a1,1,0,0,1-.666.6,6,6,0,0,0-1.4.577,1,1,0,0,1-.89.051l-.591-.254a9.587,9.587,0,0,0-.952.949l.255.593a1,1,0,0,1-.052.891,6.016,6.016,0,0,0-.576,1.4,1,1,0,0,1-.595.666l-.6.238a9.588,9.588,0,0,0,0,1.345l.6.239a1,1,0,0,1,.595.666,6.016,6.016,0,0,0,.576,1.4,1,1,0,0,1,.052.891l-.254.591a9.587,9.587,0,0,0,.949.952l.593-.255a1,1,0,0,1,.89.051,6,6,0,0,0,1.4.577,1,1,0,0,1,.666.6l.238.6a9.438,9.438,0,0,0,1.345,0l.239-.6a1,1,0,0,1,.666-.6,6,6,0,0,0,1.4-.577,1,1,0,0,1,.89-.051l.591.254a9.587,9.587,0,0,0,.952-.949l-.255-.593a1,1,0,0,1,.052-.891,6.016,6.016,0,0,0,.576-1.4,1,1,0,0,1,.6-.666l.6-.238a9.588,9.588,0,0,0,0-1.345l-.6-.239A1,1,0,0,1,35.782,49.423ZM30,55a4,4,0,1,1,4-4A4,4,0,0,1,30,55Z"/><path d="M14.062,11.992l2.9-2.9a.129.129,0,0,0,0-.182l-2.819-2.88c-.139,0-.146.048-.146.091V7a1,1,0,0,1-1,1H12a6.006,6.006,0,0,0-6,6V26a3,3,0,0,1-3,3H2v2H3a3,3,0,0,1,3,3V46a6.006,6.006,0,0,0,6,6h1a1,1,0,0,1,1,1v.88a.1.1,0,0,0,.062.112l2.9-2.9a.129.129,0,0,0,0-.182l-2.819-2.88c-.139,0-.146.048-.146.091V49a1,1,0,0,1-1,1H12a4,4,0,0,1-4-4V34a3,3,0,0,1,3-3h2a1,1,0,0,1,1,1v.88a.1.1,0,0,0,.062.112l2.9-2.9a.129.129,0,0,0,0-.182l-2.819-2.88c-.139,0-.146.048-.146.091V28a1,1,0,0,1-1,1H11a3,3,0,0,1-3-3V14a4,4,0,0,1,4-4h1a1,1,0,0,1,1,1v.88A.1.1,0,0,0,14.062,11.992Z"/><path d="M55.145,6.028c-.138,0-.145.048-.145.091V7a1,1,0,0,1-1,1H43v2h9.281C54.585,10,55,10,55,11v.88a.1.1,0,0,0,.062.112l2.9-2.9a.131.131,0,0,0,0-.181Z"/></svg>
