<svg id="Layer_1" enable-background="new 0 0 250 250" height="512" viewBox="0 0 250 250" width="512" xmlns="http://www.w3.org/2000/svg"><g><path d="m119.2 98.8h-38.3c-1.6 0-2.8 1.3-2.8 2.8 0 1.6 1.3 2.8 2.8 2.8h38.3c1.6 0 2.8-1.3 2.8-2.8s-1.2-2.8-2.8-2.8z"/><path d="m108 86h-27.1c-1.6 0-2.8 1.3-2.8 2.8 0 1.6 1.3 2.8 2.8 2.8h27.1c1.6 0 2.8-1.3 2.8-2.8s-1.2-2.8-2.8-2.8z"/><path d="m70.3 89.5c0-2.9-2.4-5.3-5.3-5.3h-15.6c-2.9 0-5.3 2.4-5.3 5.3v75.2c0 2.9 2.4 5.3 5.3 5.3h15.6c2.9 0 5.3-2.4 5.3-5.3zm-19.9 1.1h13.5v13.5h-13.5zm0 19.8h13.5v13.5h-13.5zm0 19.9h13.5v13.5h-13.5zm0 33.4v-13.5h13.5v13.5z"/><path d="m173.5 36.7c-15.8 0-28.6 12.9-28.6 28.6s12.9 28.6 28.6 28.6c15.8 0 28.6-12.9 28.6-28.6 0-15.8-12.8-28.6-28.6-28.6zm0 50.4c-12 0-21.8-9.8-21.8-21.8s9.8-21.8 21.8-21.8 21.8 9.8 21.8 21.8-9.7 21.8-21.8 21.8z"/><path d="m173.5 50.3c-8.3 0-15 6.7-15 15s6.7 15 15 15 15-6.7 15-15-6.7-15-15-15zm0 23.2c-4.5 0-8.2-3.7-8.2-8.2s3.7-8.2 8.2-8.2 8.2 3.7 8.2 8.2-3.7 8.2-8.2 8.2z"/><path d="m229.9 62.2c0-4.2-3.4-7.6-7.6-7.6h-1.1c-2.9 0-5.6-1.9-6.6-4.6-.3-.9-.7-1.9-1.1-2.8-1.2-2.7-.7-5.9 1.4-8l.8-.8c1.4-1.4 2.2-3.3 2.2-5.4 0-2-.8-3.9-2.2-5.4l-4.4-4.4c-3-3-7.8-3-10.7 0l-.8.8c-2.1 2.1-5.3 2.6-8 1.4-.9-.4-1.8-.8-2.8-1.1-2.8-1-4.6-3.7-4.6-6.6v-1.1c0-4.2-3.4-7.6-7.6-7.6h-6.3c-4.2 0-7.6 3.4-7.6 7.6v1.1c0 2.9-1.9 5.6-4.6 6.6-.9.4-1.9.7-2.8 1.2-2.7 1.2-5.9.7-8-1.4l-.8-.8c-3-3-7.8-3-10.7 0l-4.4 4.4c-1.4 1.4-2.2 3.3-2.2 5.4 0 2 .8 3.9 2.2 5.4l.8.8c1.2 1.1 1.8 2.7 2 4.2h-25.3l-2-7c-1-3.6-4.4-6.1-8.1-6.1h-70.4c-4.6 0-8.4 3.8-8.4 8.4v147.9c0 4.6 3.8 8.4 8.4 8.4h45.3c.4.5.8.9 1.2 1.4l9.3 9.3c-1.6 1.4-2.7 3.4-2.7 5.7v4.2c0 4.1 3.3 7.4 7.4 7.4h.6v10.6c0 4.1 3.3 7.4 7.4 7.4h27.4c4.1 0 7.4-3.3 7.4-7.4v-10.6h.6c4.1 0 7.4-3.3 7.4-7.4v-4.2c0-2.3-1.1-4.3-2.7-5.7l9.3-9.3c.4-.4.8-.9 1.2-1.4h25.7c4.6 0 8.4-3.8 8.4-8.4v-67.1c1.5-1.4 2.4-3.3 2.4-5.5v-1.1c0-2.9 2.1-5.1 4.6-6.6 5.9-3.5 9.2-.9 9.2-.9.6.3 1.1.7 1.6 1.2l.8.8c3 3 7.8 3 10.7 0l4.4-4.4c3-3 3-7.8 0-10.7l-.8-.8c-2.1-2.1-2.6-5.3-1.4-8 .4-.9.8-1.8 1.1-2.8 1-2.8 3.7-4.6 6.6-4.6h1.1c4.2 0 7.6-3.4 7.6-7.6zm-131.1-26.2c1.2 0 2.4.8 2.7 2l1.6 5.5h-13.6l-2-7c0-.2-.1-.3-.2-.5zm-19.4 0c1.2 0 2.4.8 2.7 2l1.6 5.5h-13.7l-2-7c0-.2-.1-.3-.2-.5zm-53.7 2.8c0-1.5 1.3-2.8 2.8-2.8h31.3c1.2 0 2.4.8 2.7 2l2.2 7.7c.6 2 2.4 3.4 4.5 3.4h63.6c-.1.3-.2.6-.4.9-1 2.8-3.7 4.6-6.6 4.6h-1.1c-1.8 0-3.7.8-5.2 2h-93.8zm105.8 64.1 4.4 4.4c3 3 7.8 3 10.7 0l.8-.8c2.1-2.1 5.3-2.6 8-1.4.9.4 1.8.8 2.8 1.1 2.8 1 4.6 3.7 4.6 6.6v1.1c0 2.3 1 4.4 2.7 5.8v58.8h-15.7c-.3-.5-.5-1.1-.8-1.6l-31.8-52.5c-1.4-2.2-3.7-3.6-6.3-3.6s-5 1.3-6.3 3.6l-31.8 52.5c-.3.5-.6 1.1-.8 1.6h-35.5v-105.5h82.1c1.4 1.9 3.6 3.1 6.1 3.1h1.1c2.9 0 5.6 1.9 6.6 4.6.3.9.7 1.9 1.1 2.8 1.2 2.7.7 5.9-1.4 8l-.8.8c-2.8 2.9-2.8 7.7.2 10.6zm-18 68.6c2.7 1.1 4.6 3.7 4.6 6.7 0 4-3.2 7.2-7.2 7.2s-7.2-3.2-7.2-7.2c0-3 1.8-5.6 4.6-6.7zm-84.9 18c-1.5 0-2.8-1.3-2.8-2.8v-124.5h91.6l-.1 6h-81.3c-2.3 0-4.3 1.9-4.3 4.3v106.7c0 2.3 1.9 4.3 4.3 4.3h34.5c-.2 2-.1 4.1.5 6zm97 44.2c0 .6-.5 1.1-1.1 1.1h-27.4c-.6 0-1.1-.5-1.1-1.1v-9.5h29.6zm8-18c0 .6-.5 1.1-1.1 1.1h-43.4c-.6 0-1.1-.5-1.1-1.1v-4.2c0-.6.5-1.1 1.1-1.1h43.5c.6 0 1.1.5 1.1 1.1v4.2zm8.5-23.7-11.9 11.9h-38.7l-11.9-11.9c-3.1-3.1-3.7-7.9-1.4-11.6l29.5-48.7v33.5h-.5l-.5.2c-5.6 1.8-9.4 7-9.4 12.9 0 7.5 6.1 13.5 13.5 13.5s13.5-6.1 13.5-13.5c0-5.9-3.8-11.1-9.4-12.9l-.5-.2h-.4v-33.5l29.5 48.7c2.3 3.7 1.7 8.5-1.4 11.6zm34.2-5.3c0 1.5-1.3 2.8-2.8 2.8h-22.8c.5-2 .7-4 .5-6h14.8c2.3 0 4.3-1.9 4.3-4.3v-57.5h.2 5.9v65zm46-117.5h-1.1c-5.8 0-11 3.6-13 9-.3.8-.6 1.6-1 2.3-2.4 5.3-1.3 11.6 2.8 15.6l.8.8c.3.3.3.8 0 1.1l-4.4 4.4c-.3.3-.8.3-1.1 0l-.8-.8c-4.1-4.1-10.3-5.2-15.6-2.8-.8.3-1.6.7-2.3 1-5.4 2-9 7.2-9 13v1.1c0 .4-.3.8-.8.8h-6.3c-.4 0-.8-.3-.8-.8v-1.1c0-5.8-3.6-11-9-13-.8-.3-1.6-.6-2.3-1-5.3-2.4-11.6-1.3-15.6 2.8l-.8.8c-.3.3-.8.3-1.1 0l-4.4-4.4c-.3-.3-.3-.8 0-1.1l.8-.8c2.6-2.6 4-6.2 4-9.8 0-2-.4-3.9-1.3-5.8-.3-.8-.7-1.6-1-2.3-2-5.4-7.2-9-13-9h-1.1c-.4 0-.8-.3-.8-.8v-6.3c0-.4.3-.8.8-.8h1.1c5.8 0 11-3.6 13-9 .3-.8.6-1.6 1-2.3 2.4-5.3 1.3-11.6-2.8-15.6l-.8-.8c-.2-.2-.2-.4-.2-.5s0-.4.2-.5l4.4-4.4c.3-.3.8-.3 1.1 0l.8.8c4.1 4.1 10.3 5.2 15.6 2.8.8-.3 1.6-.7 2.3-1 5.4-2 9-7.3 9-13v-1.1c0-.4.3-.8.8-.8h6.3c.4 0 .8.3.8.8v1.1c0 5.8 3.6 11 9 13 .8.3 1.6.6 2.3 1 5.3 2.4 11.6 1.3 15.6-2.8l.8-.8c.3-.3.8-.3 1.1 0l4.4 4.4c.2.2.2.4.2.6 0 .1 0 .4-.2.5l-.8.8c-4.1 4.1-5.2 10.3-2.8 15.6.3.8.7 1.6 1 2.3 2 5.4 7.3 9 13 9h1.1c.4 0 .8.3.8.8v6.3c.1.4-.3.7-.7.7z"/></g></svg>