<svg xmlns:xlink="http://www.w3.org/1999/xlink" xmlns="http://www.w3.org/2000/svg" version="1.1" xlink="http://www.w3.org/1999/xlink" xmlns:svgjs="http://svgjs.com/svgjs" width="300" height="148" preserveAspectRatio="xMidYMid meet" viewBox="0.00008671616524225101 -0.000011717908819264267 150.45799255371094 146.99993896484375" overflow="visible"><defs id="SvgjsDefs142503"></defs><g id="SvgjsG142504" transform="scale(0.5281082740668462)" opacity="1"><g id="SvgjsG142505" class="SPyJnn33p" transform="translate(0.06217169807495633, -0.09231079522728051) scale(0.9231079522746942)" light-content="false" non-strokable="false" fill="#D9800D"><path d="M216.6 20.3c1.3.8 3.2 1.6 5.3 2.4-.2-.9-.9-1.7-2.1-2.5-1.3-.7-3.1-1.4-5.6-2.1.2.7 1.1 1.4 2.4 2.2zM68.5 266c-3.6-2.6-7-5.4-10.3-8.3-1.4-1.2-2.7-2.3-4.1-3.5-.3-.4-.6-.9-.8-1.3.3-.8-.4-1.7-1.5-2.7-1.1-1-2.7-2-4.3-3-2.7-2.8-3.7-3.3-5.1-2.5 1.2 1.4 2.4 2.8 3.5 4 1 1.5 1.9 2.8 3 4.2-2.3-2.6-4.3-5.4-6.5-8.2-1.5-1.7-2.9-2-3.5-1.4l2.1 3.3c.8 1.1 1.6 2.1 2.3 3.2.2 1.6-1 1.2-1.3 1.4.6.7 1.1 1.3 1.7 2 .6.7 1.2 1.3 1.9 2 1.3 1.3 2.6 2.7 4 4 1.4 1.3 2.8 2.6 4.3 4 1.5 1.3 3 2.6 4.6 3.9.6.5 1.2 1 1.9 1.4.7.4 1.3.9 2 1.3 1.3-.4 2.6-.9 3.9-1.4-.3-.2-.4-.3-.7-.6 1.2-.7 2-1.2 2.9-1.8zm-17.4-9.4c-.9-1.1-1.8-2.3-2.7-3.4 1.2 1.3 2.3 2.9 3.7 4.2.4.4.8.8 1.2 1.1-.8-.4-1.6-1-2.2-1.9zM68.4 270c.3.9 1.2 1.8 2.6 2.9.7.5 1.6 1 2.6 1.6 1 .6 2.3 1.1 3.7 1.7.5-.3-.9-1.5-1.3-2.3-1.8-1.2-3.7-2.7-7.6-3.9zm-11.8-54.2c.6 1.3 1.3 2.6 1.8 3.8.3.5.6.9.8 1.2.8 1.1 1.7 2.3 2.6 3.5 6 2.9-2.6-5.1-2.9-7.8-.5.4-1.9-1.6-2.3-.7zM206.9 14c-2-1.5-3.9-2.8-5.7-3.5-1.8-.7-3.4-1-4.5-.6.5 1.6 4.3 2.7 10.2 4.1z" fill="#D9800D"></path><path d="M308.3 158.7c-.1-.9-.3-1.9-.4-3.2-.1-1.3-.1-2.8-.1-4.7-.1-.1-.2-.1-.3-.2-.5-.2-1-.5-1.5-.7-.2-1.8-.4-3.3-.6-4.9-1.1.3-2.2.8-3.3 1.2-.7-.1-1.5-.1-2.3 0-.6-.3-.9-.4-1.5 2.9-.6.8-1.2 1.8-1.8 2.7-.7 0-1.5-.1-2.3-.1-1.2-1.1-2.6-2.2-3.9-3.4-.4-1.4-.8-1.7-1-2.8-.7-.3-1.5-.6-2.2-.8-.9-.2-1.9-.2-2.9-.2-.5 0-1.5-1.2-1.6.2-.8.7-1.7 1.3-2.5 2.2-.2-.5-.5-.8-.7-1 .1 12.2-1.5 24.5-5.1 36.2.2 1.3-2.1 4.1-.6 4-1 6.6-3.7 12.2-6.3 18.1 1.7.7.9 2.4-.5 4.2-1.3 1.8-3 3.8-2.8 5.5-1.6.5-2.4 2.2-3.4 4-1 1.8-2 3.9-3.9 4.8-4.2 6.7-10.4 13.5-16.2 18.3-1.6 1.7-3.2 3.3-5 4.7-.9.7-1.8 1.4-2.8 2.1-.9.7-1.9 1.4-2.9 2-2 1.3-4 2.6-6.2 3.7l-3.3 1.8c-1.1.6-2.3 1.2-3.5 1.8.1.8-1.6 1.3-1.8 2.3-1.8.9-3.7 1.7-5.6 2.6-1.9.8-3.9 1.6-5.8 2.4-1.6.6-3.3 1.2-5.1 1.9-1.8.6-3.8 1.1-5.7 1.7-3.9 1-7.9 1.9-11.4 2.4-.6.8-3.3.3-3.2 2.1-1-.3-2.1-.5-3.4-.4-.6 0-1.3.2-2 .4s-1.4.4-2.2.8c-1.6-.5-5.3.6-5.2-.7-1 .1-3.1-.2-3.1.4-.6.3-1.3.4-2.2.4-.8 0-1.7-.1-2.5-.1-1.4.3-2.6.5-4.1.8 1-1.3-3.3-1.3-3.6-.9-.6.3-1.6.2-2.7.2s-2.2 0-3.1.7c-.3 0-.5-.1-.8-.1-1-.7-2-1.2-2.9-1.4-.9-.2-1.7-.2-2.3.4-.8-.2-1.4-.6-2.3-.8-.9-.2-2.1-.1-4.1.5-.8-.1-1.7-.2-2.4-.2 1.3-.8-1.2-1-.7-1.8-1.3.1-2.9-.2-4.5-.6-1.6-.4-3.3-.9-5-1.5-1.7-.6-3.3-1.2-4.9-1.7-1.6-.6-3-1-4.4-1.1-1.9-.8-3.6-1.6-5.5-2.5-1.3-.5-2.8-1.4-4.3-2.1-1.5-.7-3-1.3-4.5-1.5-.4-.2-.8-.5-1.4-.8-3.8-2.3-8.2-6.2-14.2-8.9-1.8-1.5-3.5-3.1-5.1-4.7-.8-.8-1.6-1.6-2.4-2.3-.8-.7-1.6-1.5-2.4-2.2-1.1-1.2-1.5-2.1-1.7-3 0-.1 0-.2-.1-.3-8.4-6.5-15-14.4-20.8-23.2-.9-.4-1.8-.6-2.6-.9-.9-.7-1.9-1.6-2.7-2.4-.2-.4-.4-.9-.7-1.4-3.7-7.7-7.2-17.2-9.6-25.4-.2-.1-.5-.4-.8-.6-.3-.8-.5-1.7-.7-2.8-.2-1.1-.5-2.6-.7-4.6.3-.1.6-.1 1-.2-3.9-15.5-5-31-2.9-46.9l.5.5c.4-4.2 1.1-8.3 1.9-12.3v-.1c.1-.2.1-.5.2-.7 5.5-25 19.1-47.9 37.9-65.4-1 1-1.5 2-2.5 3 16.5-17 37-28 60.5-33.5 6-1 12-2.5 18-2 8.5 0 17.5 0 26 .5l-.5.5c11.5 1 22.5 5 33.5 9-1.5-.5-3.5-1-5-1.5 15.5 6 30 14 42 26 2.7 3.1 5.4 5.9 8.1 8.8h.4c1.4-.5 1.6-2.2 1.8-3.3-1-1.5-2.2-2.8-3.4-4.3-.7-1.1-1.3-2.1-2.2-3.2-2-1.9-4.2-3.9-6.3-5.6-.7-.9-1.5-1.7-2.3-2.6-.8-.8-1.7-1.6-2.5-2.4-1.7-1.7-3.6-3.1-5.5-4.6l-1.4-1.1-1.5-1c-1-.7-1.9-1.4-2.9-2.1-1.9-1.4-3.9-2.6-5.6-4-.8-.9-2.7-1.8-4.5-2.8-.5-.2-.9-.5-1.4-.7-.4-.2-.9-.4-1.3-.6-.8-.4-1.4-.8-1.8-1.2-.8-.4-1.7-.8-2.5-1.2-.8-.4-1.7-.7-2.5-1-.9-.4-2-.8-2.9-1.2.6-1.7-3.6-2.7-5.1-2.5l-1.9-.7-1.9-.6-3.8-1.1c-1.3-.4-2.6-.6-3.9-1-1.3-.3-2.6-.7-3.9-.9-1.3-.3-2.6-.7-3.9-1-.2-.7-1.4-1.3-2.9-1.5-1.5-.2-3.2-.2-4.2.1-.8-.1-1.7-.2-2.5-.3-1.9-.6-4.1-1.2-6.2-1.8 1.2-1-1.5-1.2-.6-1.9.8-.6 1.4-1.2 2-1.8 1.2-.1 2.5-.1 4.1-.2 1.6-.2 3.6-.3 6.2-.6l3 .6c1 .2 1.9.5 2.9.7 1 .2 1.9.5 2.9.7.5.1 1 .2 1.4.4.5.1 1 .3 1.4.4.1.7 1.2 1.4 2.9 1.8 1.7.4 4 .8 6.7.8-1.7-1-3.4-2-5.2-2.8.1-.4.3-.8.4-1.3 0-.1.1-.2.1-.3-.8-.3-1.7-.7-2.5-1-1.4-.3-2.8-.7-4.2-1-2-.2-1.4 1.1-3 1.4-.9-.4-1.4-1.1-2.1-1.7-.7-.6-1.7-1.2-3.4-1.2-1.6-.2-3.4-.3-5.2-.4-1.6-.1-3.4-.1-5.1-.2 0 .1 0 .3-.1.3-1.3.3-2.4.6-3.7 1-1.2-.1-2.4-.1-3.7-.1-1.2 0-2.5-.1-3.7 0-2.5.1-4.9 0-7-.2-8.2.2-16.4 1.2-24.4 2.9-.9-.5-2.3-.5-3.8-.1s-2.9 1.1-3.9 1.7c-10.2 2.7-20.2 6.6-29.6 11.6-1.5.2-2.6-.4-4.3 1-.9 1.1-2.9 2-3.2 3.4-1.2.6-2.4 1.1-3.6 1.7-1.1.6-2.3 1.2-3.4 1.8-1.6 1-3.3 2-4.8 3.1-1.6 1.1-3.2 2.1-4.7 3.3-1.4.9-2.9 1.9-4.4 2.9-1 1.1-1.8 2.2-2.9 3.4-.9.9-1.9 1.7-2.8 2.6-.9.9-1.8 1.9-2.8 2.9-.8.6-1.7 1.3-2.4 2.1-.8.8-1.4 1.6-1.7 2.3-1.3 1.2-2.7 2.4-3.9 3.6.7-1.8-1.4-1.1-.8-3.1-1.2.4-2.4 2.6-3.5 3.8-.5 1.3-.9 2.5-1.3 3.8-.1.1-.3.4-.4.6-.4-1.1-1.5-.1-2.3.5-.6.8-1.1 1.5-1.6 2.4-.5 1-1.1 2.2-1.7 4-1.3 1.4-2.1 1.9-2.8 2.6-1 2.1-3.5 4.7-3.1 6.5-.8 1.7-1.5 3.2-2.3 5-1.1 1.7-2 3.6-3 5.4-.6.5-1.1 1.5-1.6 2.5-.4 1.1-.8 2.2-1.3 3.2-.1 1.6-.2 3.2-.2 4.9-.6 1.9-1.2 3.7-1.8 5.6-.6 1.9-1 3.7-1.5 5.5-.4 1.3-.7 2.3-1 3.6-1 .4-2.2 3-3.3 4.4-.5 1.8-.7 3.7-.7 6.5-.1.6-.2 1.1-.3 1.8-2 1.6-1.2 6.1-1.5 8 .4 1 .9 1.9 1.3 2.9-1 1.2-.8 3.5-1 5.3-2.8 4.3-2.3 13-1.7 20.6.6 1.3 1.2 2.5 1.9 3.8.2 1.8.3 3.6.5 5.3.2 1.8.5 3.5.7 5.3-.9.4-1.1 2.6-.4 4.6.9.8 1.3 3 1.9 5.3.7 2.3 1.6 4.8 3.4 5.8.2.7.4 1.6.7 2.5.4 1.1.8 2.3 1.1 3.4.7 1.4-.1-2.7.6-1.3.7 1 1.3 2.5 2.1 3.8.8 1.3 1.5 2.3 2.2 2.3.2-1.3 0-2-.6-3.1-.5-1.1-1.4-2.7-2.8-5.7 1.1-2.5-2.4-9.6-2.2-13.9-.8-1.6-1.5-3.3-2.2-5.1-.4-2.4-.6-3.6-.8-5.1-.7-2.2-1.4-4.2-2-6.2 1 .7 1.1-3.3 2-3.5-.1-1.2-.1-2.4-.2-3.6-.1-1.2 0-2.4-.1-3.5 0-2.3-.1-4.7 0-7 .2-1.1.3-2.3.5-3.4.1-1.5.3-2.9.4-4.3.2-1.4.4-2.9.6-4.3.2-.3.5-.6.7-.8.2.6.5 1.2.8 2 1.6-4.4 1.8 1.4 2.7 2.1.5.4 1 .7 1.5 1.1-.2 2.4-.6 5.5.2 7.5-.2.5-.3 1-.4 1.7-.7.5-1 2.5-.9 4.7 0 1.1.1 2.3.3 3.4.2 1.1.5 2 .9 2.7h.9c1.1.5 2.2 1.1 3.3 1.7.3.8.6 1.6 1 2.4.4.8.7 1.6 1.1 2.4.2 1.8.3 2.8.5 4 .3 0 .7 0 1.6-.1.3 1.5.5 3 .7 4.3.2 1.3.6 2.5 1.3 3.4.4 1.8.8 3.5 1.2 5.3l1.5 5.4c.5 2.1 1.3 4.3 1.9 6.4.7 2.1 1.5 4.2 2.1 6.3.6 1.9 1.3 3.7 1.9 5.5.6 1.9 1.5 3.6 2.2 5.5.6 1.6 1.4 3.2 2.1 4.7.7 1.6 1.4 3.1 2.2 4.7.2 1.3.6 2.9 1.3 4.5.8 1.6 1.8 3.2 3.1 4.6.8.3 1.6.5 2.5.9.4.5.9 1.2 1.3 1.9-1.8-.4-.3 1.6-.3 2.4 1.1 1.3 2.4 2.5 3.6 3.7.1 1.2 0 2.2.1 3.3 1.7 2 3.2 3.8 4.9 5.7 1 1.7 3 2 3.7 2.6.9.8 1.8 1.6 2.8 2.4l3 2.4c3.1 2.7 3.1 4 4.7 6.3-1 0-1.9 0-3-.1-.3.2-.6.4-.8.5.9.8 1.7 1.5 2.5 2.2 4.2 3 3.9.1 7.5 1.8 1.5.9 2.8 1.8 4.3 2.8 1.1.8 2.2.5 5 2.9 1.8-.3 2.7.4 3.7 1.4 1 1 2.1 2.4 4.2 3.2-.5.4-1 .9-1.5 1.4-1.2-.7-2.5-1.4-3.7-2-1.3-.7-2.5-1.3-3.7-2.1-.1.1-.2.2-.3.2.2.9.5 1.8.7 2.7 2.1 1.1 4 2.1 6.1 3.2 2.2 1.1 4.6 2.4 6.8 3.5 1.8.8 3.9 1.6 5.8 2.3 2.3.9 4 1.6 5.5 2.2 1.4 1 2.9 1.8 4.2 2.6 1.2 0 2.5.2 3.8.4 1.3.2 2.7.4 4.2.8 3 .7 6.5 1.3 10.7 2 1.9.5 4 1 5.8 1.4l-1.8 3.3c-1.8-.3-3.6-.6-5.3-1-1.6-.4-3.1-.9-4.6-1.3-.8-.2-1.5-.4-2.3-.6-.8-.2-1.5-.5-2.3-.7-.2.3-.5.7-.8 1.1-1-.1-1.9-.3-2.7-.4-1.9-1.2-3.8-2.5-5.6-3.8-.7.1-1.5.2-2.2.2-4.7-1.2-6.3-1.4-6.8.1-1.5-.4-3-.8-4.5-1.3-3.1-1.6-6.7-3.7-12.8-5.3.3.6.9 1.2 1.6 1.7.8.5 1.7 1 2.8 1.5s2.3 1 3.6 1.5c1.3.5 2.7.9 4.1 1.3 1 .5 2 1 3 1.4l3.1 1.3c2.1.9 4.1 1.8 6.2 2.5.6.1 1.3.1 1.8.3.3-.3.6-.7.8-1.1 1.2.4 2.3.8 3.6 1.2 1.3 1.2 3.3 1.9 5.6 2.4 2.3.4 5 .6 7.5 1l4.8.9c1.6.3 3.2.6 4.8.8 1.9.1 3.9.2 5.6.4l7.5.3c1.1.2 2.4.3 3.5.5.9 0 1.7 0 2.6.1.9.2 1.7.4 2.6.7-.2.5-.3.9-.5 1.3 0 .1-.1.2-.1.3 2.6 1.4 3.8 1.3 6.2.2 1 0 1.9-.1 2.8-.1.9-.1 1.8-.1 2.8-.2 1.1-.5 2.2-1 3.1-1.5.7.1 1.3.1 1.8.2 1.4.5 1.2 1.1 2.3 1.3 3.1-.5 6.4-1 9.3-1.7 2.5-.5 5.4-1 5.4-.1 1.2-.3 2.5-.5 4.1-.9.8-.2 1.7-.4 2.8-.8 1-.4 2.1-.8 3.3-1.4 1.5-.9 3.1-1.8 4.6-2.7.7-.2 3.7 0 5.4-2.5-.5-.4-1.1-.8-1.8-1.1.9-.7 1.8-1.5 2.7-2.3 2.9-1.1 5.7-2.2 8.5-3.5.7.3 1.6.3 2.6.2.8-.4 1.7-.8 2.6-1.2.9-.4 1.8-.8 2.6-1.3 1.7-.9 3.2-1.9 3.8-3.4 1.1-.5 2-1.1 3.1-2 1.1-.9 2.5-2.1 4.6-4 .8-.5 1.5-.9 2.3-1.4 1.6-.9 3.2.2 5.7-2.4 1.6-1.1 2.9-2.1 3.4-4 .6-1.1 1.1-1.9 1.7-3 1.9-1.6 3.7-3.4 5.5-5.2 1.8-1.7 3.5-3.6 5.2-5.4.5-.3.9-.6 1.5-1 1.7-.7 3-1.5 4.8-3.6.7-1.8 4.4-4.4 4-7.4 1-1.2 1.8-2.5 2.7-3.8.9-1 1.7-2 2.6-3.1.8-1 1.7-2.1 2.5-3.3.9-.4 1.8-1.4 2.7-2.8.8-1.4 1.7-3.1 2.5-4.9 1.2-1.7 2-3.2 2.6-4.7.6-1.5.9-2.9 1-4.5.5-1.1 1.6-2.5 1-4 1.2-2.4 2.9-5.3 3.1-10.3.6-1.6 1.3-3.3 2-5.1 2.2-1.7 2.4.4 4.4-.7.4-2.2.8-4.5 1.2-6.7.7-3.2.7-5.2 1.6-7.6.1-1.3 0-2.9 0-4.2.4-1.7.8-3.5 1.2-4.9.3-1.5.4-2.7.2-3.3.4-2.4.3-4 0-5.8zM191 17.8c.5.2 1 .3 1.5.4.5.1 1 .3 1.6.4-1.6-.5-3.4.1-4.7-1.1 0-.1-.2-.2-.3-.4.6.3 1.2.5 1.9.7zM18.2 135.2c.1-.9.2-1.7.2-2.6 0 .8-.1 1.7-.2 2.6zM24.4 71c.5-.9 1.1-1.7 1.7-2.4-.3.8-.7 1.6-1.7 2.4zm165.4 215.5c-.1 0-.2 0-.4.1l.9-.3c-.2 0-.3.1-.5.2zm85.4-55.6c.5-.9 1-1.8 1.5-2.9.3-.7.7-1.4 1.1-2.2-.5 1.3-1.1 3-2.6 5.1zm9.1-14.5c-.6 1-1.2 2.2-1.7 3.2.6-1.5 1.3-2.9 2-4.3 0 .4-.2.7-.3 1.1zm2.9-4.3l-.2.2c.1-.1.2-.1.2-.2.1-.2.2-.4.4-.6-.1.2-.2.4-.4.6z" fill="#D9800D"></path></g><g id="SvgjsG142506" class="text" transform="translate(141.4128088253367, 176.21513841697066) scale(1)" light-content="false" fill="#0A0A0A"><path d="M-60.78 5.21C-60.21 6.61 -59.3 7.85 -58.03 8.93C-56.77 10.01 -55.29 10.55 -53.6 10.55C-51.35 10.55 -49.9 10.06 -49.24 9.07C-48.58 8.09 -48.26 6.66 -48.26 4.78L-48.82 -28.7C-41.41 -27.57 -35.62 -26.8 -31.44 -26.38C-27.27 -25.96 -24.15 -25.65 -22.09 -25.46L-18.22 -25.11C-17.7 -25.07 -17.4 -24.85 -17.3 -24.48C-15.71 -24.67 -14.23 -25.16 -12.87 -25.96C-11.51 -26.75 -10.83 -28.09 -10.83 -29.97C-10.83 -31 -11.33 -32.1 -12.31 -33.27C-13.29 -34.44 -14.4 -35.12 -15.62 -35.31L-42.91 -38.13L-44.18 -38.83C-38.83 -45.3 -34.44 -50.58 -31.02 -54.66C-27.6 -58.74 -24.88 -62.02 -22.86 -64.5C-20.84 -66.99 -19.39 -68.77 -18.5 -69.85C-17.61 -70.93 -17.02 -71.66 -16.74 -72.03C-16.65 -72.22 -16.53 -72.52 -16.39 -72.95C-16.25 -73.37 -16.18 -73.67 -16.18 -73.86C-16.18 -76.02 -16.88 -77.52 -18.29 -78.36C-19.7 -79.21 -21.38 -79.86 -23.35 -80.33C-24.67 -80.05 -25.75 -79.49 -26.59 -78.64C-27.43 -77.8 -28.18 -76.86 -28.84 -75.83C-29.5 -74.8 -30.13 -73.72 -30.74 -72.59C-31.35 -71.47 -31.98 -70.48 -32.64 -69.64L-48.82 -51.21L-49.38 -51.21L-49.38 -92.29C-49.38 -93.32 -49.69 -94.19 -50.3 -94.89C-50.9 -95.6 -51.63 -96.18 -52.48 -96.65C-53.32 -97.12 -54.23 -97.47 -55.22 -97.71C-56.2 -97.94 -57.07 -98.06 -57.82 -98.06C-58.85 -98.25 -59.7 -97.85 -60.35 -96.86C-61.01 -95.88 -61.34 -94.92 -61.34 -93.98C-61.15 -93.88 -61.03 -92.01 -60.99 -88.35C-60.94 -84.69 -60.92 -80.07 -60.92 -74.49C-60.92 -68.91 -60.96 -62.75 -61.06 -55.99C-61.15 -49.24 -61.22 -42.65 -61.27 -36.23C-61.32 -29.8 -61.36 -23.92 -61.41 -18.57C-61.46 -13.22 -61.43 -9.24 -61.34 -6.61C-61.34 -6.14 -61.32 -5.37 -61.27 -4.29C-61.22 -3.21 -61.17 -2.04 -61.13 -0.77C-61.08 0.49 -61.01 1.69 -60.92 2.81C-60.82 3.94 -60.78 4.74 -60.78 5.21Z M-6.19 -21.52L-6.19 -21.1C-6.19 -18.66 -5.91 -16.18 -5.35 -13.65C-4.78 -11.11 -3.87 -8.84 -2.6 -6.82C-1.34 -4.81 0.3 -3.14 2.32 -1.83C4.34 -0.52 6.75 0.14 9.57 0.14C12.66 0.14 15.71 -0.89 18.71 -2.95C21.71 -5.02 24.41 -7.6 26.8 -10.69C29.19 -13.79 31.11 -17.07 32.57 -20.54C34.02 -24.01 34.75 -27.15 34.75 -29.97C34.75 -32.31 34.44 -35.03 33.83 -38.13C33.23 -41.22 32.26 -44.1 30.95 -46.78C29.64 -49.45 27.93 -51.73 25.82 -53.6C23.71 -55.48 21.15 -56.41 18.15 -56.41C16.84 -56.41 15.73 -56.2 14.84 -55.78C13.95 -55.36 12.94 -55.15 11.82 -55.15L11.68 -55.15C10.83 -56.84 9.8 -58.27 8.58 -59.44C7.36 -60.61 5.72 -61.2 3.66 -61.2C2.53 -61.2 1.52 -60.92 0.63 -60.35C-0.26 -59.79 -0.8 -58.9 -0.98 -57.68ZM5.63 -20.68L5.63 -21.1C5.63 -23.82 5.84 -26.8 6.26 -30.04C6.68 -33.27 7.46 -36.11 8.58 -38.55C10.55 -42.49 12.52 -44.9 14.49 -45.79C16.46 -46.68 18.22 -46.54 19.77 -45.37C21.31 -44.2 22.51 -42.28 23.35 -39.6C24.2 -36.93 24.43 -34 24.06 -30.81C24.06 -28.84 23.64 -26.96 22.79 -25.18C21.95 -23.4 20.89 -21.71 19.63 -20.12C18.36 -18.52 17.02 -17.02 15.62 -15.62C14.21 -14.21 12.9 -12.94 11.68 -11.82C10.36 -11.35 9.36 -11.37 8.65 -11.89C7.95 -12.4 7.41 -13.15 7.03 -14.14C6.66 -15.12 6.38 -16.23 6.19 -17.44C6 -18.66 5.82 -19.74 5.63 -20.68Z M21.38 23.21C22.13 24.9 23.33 26.38 24.97 27.64C26.61 28.91 28.47 29.92 30.53 30.67C32.59 31.42 34.7 31.98 36.86 32.36C39.02 32.73 41.03 32.92 42.91 32.92C43.47 32.92 44.03 32.78 44.6 32.5C45.16 32.22 45.72 32.17 46.29 32.36C49.66 31.33 52.48 29.66 54.73 27.36C56.98 25.07 58.76 22.44 60.07 19.48C61.39 16.53 62.3 13.41 62.82 10.13C63.33 6.85 63.59 3.66 63.59 0.56C63.03 -7.88 62.49 -15.26 61.97 -21.6C61.46 -27.93 60.99 -33.37 60.57 -37.91C60.14 -42.46 59.77 -46.31 59.44 -49.45C59.11 -52.59 58.85 -55.22 58.67 -57.33C58.48 -59.44 58.34 -61.17 58.24 -62.53C58.15 -63.89 58.1 -65.14 58.1 -66.26C57.07 -68.04 55.95 -69.19 54.73 -69.71C53.51 -70.23 51.96 -70.48 50.08 -70.48C48.58 -70.48 47.48 -70.01 46.78 -69.08C46.07 -68.14 45.72 -66.97 45.72 -65.56C46.66 -55.43 47.43 -46.82 48.04 -39.74C48.65 -32.66 49.17 -26.78 49.59 -22.09C50.01 -17.4 50.32 -13.67 50.51 -10.9C50.69 -8.14 50.86 -6.05 51 -4.64C51.14 -3.24 51.21 -2.32 51.21 -1.9L51.21 -0.98C51.21 0.89 51.05 3.24 50.72 6.05C50.39 8.86 49.73 11.56 48.75 14.14C47.76 16.72 46.43 18.92 44.74 20.75C43.05 22.58 40.89 23.49 38.27 23.49C37.05 23.31 35.8 22.77 34.54 21.88C33.27 20.99 32.01 20.07 30.74 19.13C29.47 18.2 28.3 17.35 27.22 16.6C26.14 15.85 25.18 15.5 24.34 15.55C23.49 15.59 22.79 16.2 22.23 17.37C21.67 18.55 21.38 20.49 21.38 23.21ZM39.11 -102.42C39.11 -101.67 39.37 -100.94 39.88 -100.24C40.4 -99.53 41.06 -98.9 41.85 -98.34C42.65 -97.78 43.47 -97.33 44.32 -97C45.16 -96.67 45.91 -96.51 46.57 -96.51C47.5 -96.51 48.61 -96.77 49.87 -97.28C51.14 -97.8 51.77 -98.67 51.77 -99.89C51.77 -102.04 50.98 -103.64 49.38 -104.67C47.79 -105.7 46.1 -106.22 44.32 -106.22C43.19 -106.22 42.04 -105.96 40.87 -105.44C39.7 -104.93 39.11 -103.92 39.11 -102.42Z" fill="#0A0A0A"></path></g></g></svg>