<?xml version="1.0" standalone="no"?><!DOCTYPE svg PUBLIC "-//W3C//DTD SVG 1.1//EN" "http://www.w3.org/Graphics/SVG/1.1/DTD/svg11.dtd"><svg version="1.1" xmlns:svgjs="http://svgjs.com/svgjs" width="100%" height="100%" preserveAspectRatio="xMidYMid meet" viewBox="0.00008671839896123856 -0.000011716424523910973 150.4579620361328 146.99993896484375" overflow="visible" xmlns="http://www.w3.org/2000/svg" xmlns:xlink="http://www.w3.org/1999/xlink" style="block-size:148.188px;border-block-end-color:rgb(51, 51, 51);border-block-start-color:rgb(51, 51, 51);border-bottom-color:rgb(51, 51, 51);border-inline-end-color:rgb(51, 51, 51);border-inline-start-color:rgb(51, 51, 51);border-left-color:rgb(51, 51, 51);border-right-color:rgb(51, 51, 51);border-top-color:rgb(51, 51, 51);caret-color:rgb(51, 51, 51);color:rgb(51, 51, 51);column-rule-color:rgb(51, 51, 51);cursor:default;font-family:Ubuntu, sans-serif;height:148.188px;list-style-type:none;outline-color:rgb(51, 51, 51);overflow-x:visible;overflow-y:visible;perspective-origin:150px 74.0938px;text-align:center;text-decoration:none solid rgb(51, 51, 51);text-decoration-color:rgb(51, 51, 51);text-emphasis-color:rgb(51, 51, 51);transform-origin:150px 74.0938px;-webkit-text-fill-color:rgb(51, 51, 51);-webkit-text-stroke-color:rgb(51, 51, 51);"><defs id="SvgjsDefs162002" style="block-size:auto;border-block-end-color:rgb(51, 51, 51);border-block-start-color:rgb(51, 51, 51);border-bottom-color:rgb(51, 51, 51);border-inline-end-color:rgb(51, 51, 51);border-inline-start-color:rgb(51, 51, 51);border-left-color:rgb(51, 51, 51);border-right-color:rgb(51, 51, 51);border-top-color:rgb(51, 51, 51);caret-color:rgb(51, 51, 51);color:rgb(51, 51, 51);column-rule-color:rgb(51, 51, 51);cursor:default;font-family:Ubuntu, sans-serif;height:auto;inline-size:auto;list-style-type:none;outline-color:rgb(51, 51, 51);overflow-x:visible;overflow-y:visible;perspective-origin:0px 0px;text-align:center;text-decoration:none solid rgb(51, 51, 51);text-decoration-color:rgb(51, 51, 51);text-emphasis-color:rgb(51, 51, 51);transform-origin:0px 0px;width:auto;-webkit-text-fill-color:rgb(51, 51, 51);-webkit-text-stroke-color:rgb(51, 51, 51);"/><g id="SvgjsG162003" transform="scale(0.515970515970516)" opacity="1" style="block-size:auto;border-block-end-color:rgb(51, 51, 51);border-block-start-color:rgb(51, 51, 51);border-bottom-color:rgb(51, 51, 51);border-inline-end-color:rgb(51, 51, 51);border-inline-start-color:rgb(51, 51, 51);border-left-color:rgb(51, 51, 51);border-right-color:rgb(51, 51, 51);border-top-color:rgb(51, 51, 51);caret-color:rgb(51, 51, 51);color:rgb(51, 51, 51);column-rule-color:rgb(51, 51, 51);cursor:default;font-family:Ubuntu, sans-serif;height:auto;inline-size:auto;list-style-type:none;outline-color:rgb(51, 51, 51);overflow-x:visible;overflow-y:visible;perspective-origin:0px 0px;text-align:center;text-decoration:none solid rgb(51, 51, 51);text-decoration-color:rgb(51, 51, 51);text-emphasis-color:rgb(51, 51, 51);transform:matrix(0.51597, 0, 0, 0.51597, 0, 0);transform-origin:0px 0px;width:auto;-webkit-text-fill-color:rgb(51, 51, 51);-webkit-text-stroke-color:rgb(51, 51, 51);"><g id="SvgjsG162004" class="L8NtZoDUt" transform="translate(0.06363423325539862, -0.0944823264823971) scale(0.9448232648259045)" light-content="false" non-strokable="false" fill="#d9800d" style="block-size:auto;border-block-end-color:rgb(51, 51, 51);border-block-start-color:rgb(51, 51, 51);border-bottom-color:rgb(51, 51, 51);border-inline-end-color:rgb(51, 51, 51);border-inline-start-color:rgb(51, 51, 51);border-left-color:rgb(51, 51, 51);border-right-color:rgb(51, 51, 51);border-top-color:rgb(51, 51, 51);caret-color:rgb(51, 51, 51);color:rgb(51, 51, 51);column-rule-color:rgb(51, 51, 51);cursor:default;fill:rgb(217, 128, 13);font-family:Ubuntu, sans-serif;height:auto;inline-size:auto;list-style-type:none;outline-color:rgb(51, 51, 51);overflow-x:visible;overflow-y:visible;perspective-origin:0px 0px;text-align:center;text-decoration:none solid rgb(51, 51, 51);text-decoration-color:rgb(51, 51, 51);text-emphasis-color:rgb(51, 51, 51);transform:matrix(0.944823, 0, 0, 0.944823, 0.0636342, -0.0944823);transform-origin:0px 0px;width:auto;-webkit-text-fill-color:rgb(51, 51, 51);-webkit-text-stroke-color:rgb(51, 51, 51);"><path d="M216.6 20.3c1.3.8 3.2 1.6 5.3 2.4-.2-.9-.9-1.7-2.1-2.5-1.3-.7-3.1-1.4-5.6-2.1.2.7 1.1 1.4 2.4 2.2zM68.5 266c-3.6-2.6-7-5.4-10.3-8.3-1.4-1.2-2.7-2.3-4.1-3.5-.3-.4-.6-.9-.8-1.3.3-.8-.4-1.7-1.5-2.7-1.1-1-2.7-2-4.3-3-2.7-2.8-3.7-3.3-5.1-2.5 1.2 1.4 2.4 2.8 3.5 4 1 1.5 1.9 2.8 3 4.2-2.3-2.6-4.3-5.4-6.5-8.2-1.5-1.7-2.9-2-3.5-1.4l2.1 3.3c.8 1.1 1.6 2.1 2.3 3.2.2 1.6-1 1.2-1.3 1.4.6.7 1.1 1.3 1.7 2 .6.7 1.2 1.3 1.9 2 1.3 1.3 2.6 2.7 4 4 1.4 1.3 2.8 2.6 4.3 4 1.5 1.3 3 2.6 4.6 3.9.6.5 1.2 1 1.9 1.4.7.4 1.3.9 2 1.3 1.3-.4 2.6-.9 3.9-1.4-.3-.2-.4-.3-.7-.6 1.2-.7 2-1.2 2.9-1.8zm-17.4-9.4c-.9-1.1-1.8-2.3-2.7-3.4 1.2 1.3 2.3 2.9 3.7 4.2.4.4.8.8 1.2 1.1-.8-.4-1.6-1-2.2-1.9zM68.4 270c.3.9 1.2 1.8 2.6 2.9.7.5 1.6 1 2.6 1.6 1 .6 2.3 1.1 3.7 1.7.5-.3-.9-1.5-1.3-2.3-1.8-1.2-3.7-2.7-7.6-3.9zm-11.8-54.2c.6 1.3 1.3 2.6 1.8 3.8.3.5.6.9.8 1.2.8 1.1 1.7 2.3 2.6 3.5 6 2.9-2.6-5.1-2.9-7.8-.5.4-1.9-1.6-2.3-.7zM206.9 14c-2-1.5-3.9-2.8-5.7-3.5-1.8-.7-3.4-1-4.5-.6.5 1.6 4.3 2.7 10.2 4.1z" style="block-size:auto;border-block-end-color:rgb(51, 51, 51);border-block-start-color:rgb(51, 51, 51);border-bottom-color:rgb(51, 51, 51);border-inline-end-color:rgb(51, 51, 51);border-inline-start-color:rgb(51, 51, 51);border-left-color:rgb(51, 51, 51);border-right-color:rgb(51, 51, 51);border-top-color:rgb(51, 51, 51);caret-color:rgb(51, 51, 51);color:rgb(51, 51, 51);column-rule-color:rgb(51, 51, 51);cursor:default;d:path(&quot;M 216.6 20.3 C 217.9 21.1 219.8 21.9 221.9 22.7 C 221.7 21.8 221 21 219.8 20.2 C 218.5 19.5 216.7 18.8 214.2 18.1 C 214.4 18.8 215.3 19.5 216.6 20.3 Z M 68.5 266 C 64.9 263.4 61.5 260.6 58.2 257.7 C 56.8 256.5 55.5 255.4 54.1 254.2 C 53.8 253.8 53.5 253.3 53.3 252.9 C 53.6 252.1 52.9 251.2 51.8 250.2 C 50.7 249.2 49.1 248.2 47.5 247.2 C 44.8 244.4 43.8 243.9 42.4 244.7 C 43.6 246.1 44.8 247.5 45.9 248.7 C 46.9 250.2 47.8 251.5 48.9 252.9 C 46.6 250.3 44.6 247.5 42.4 244.7 C 40.9 243 39.5 242.7 38.9 243.3 L 41 246.6 C 41.8 247.7 42.6 248.7 43.3 249.8 C 43.5 251.4 42.3 251 42 251.2 C 42.6 251.9 43.1 252.5 43.7 253.2 C 44.3 253.9 44.9 254.5 45.6 255.2 C 46.9 256.5 48.2 257.9 49.6 259.2 C 51 260.5 52.4 261.8 53.9 263.2 C 55.4 264.5 56.9 265.8 58.5 267.1 C 59.1 267.6 59.7 268.1 60.4 268.5 C 61.1 268.9 61.7 269.4 62.4 269.8 C 63.7 269.4 65 268.9 66.3 268.4 C 66 268.2 65.9 268.1 65.6 267.8 C 66.8 267.1 67.6 266.6 68.5 266 Z M 51.1 256.6 C 50.2 255.5 49.3 254.3 48.4 253.2 C 49.6 254.5 50.7 256.1 52.1 257.4 C 52.5 257.8 52.9 258.2 53.3 258.5 C 52.5 258.1 51.7 257.5 51.1 256.6 Z M 68.4 270 C 68.7 270.9 69.6 271.8 71 272.9 C 71.7 273.4 72.6 273.9 73.6 274.5 C 74.6 275.1 75.9 275.6 77.3 276.2 C 77.8 275.9 76.4 274.7 76 273.9 C 74.2 272.7 72.3 271.2 68.4 270 Z M 56.6 215.8 C 57.2 217.1 57.9 218.4 58.4 219.6 C 58.7 220.1 59 220.5 59.2 220.8 C 60 221.9 60.9 223.1 61.8 224.3 C 67.8 227.2 59.2 219.2 58.9 216.5 C 58.4 216.9 57 214.9 56.6 215.8 Z M 206.9 14 C 204.9 12.5 203 11.2 201.2 10.5 C 199.4 9.8 197.8 9.5 196.7 9.9 C 197.2 11.5 201 12.6 206.9 14 Z&quot;);fill:rgb(217, 128, 13);font-family:Ubuntu, sans-serif;height:auto;inline-size:auto;list-style-type:none;outline-color:rgb(51, 51, 51);overflow-x:visible;overflow-y:visible;perspective-origin:0px 0px;text-align:center;text-decoration:none solid rgb(51, 51, 51);text-decoration-color:rgb(51, 51, 51);text-emphasis-color:rgb(51, 51, 51);transform-origin:0px 0px;width:auto;-webkit-text-fill-color:rgb(51, 51, 51);-webkit-text-stroke-color:rgb(51, 51, 51);"/><path d="M308.3 158.7c-.1-.9-.3-1.9-.4-3.2-.1-1.3-.1-2.8-.1-4.7-.1-.1-.2-.1-.3-.2-.5-.2-1-.5-1.5-.7-.2-1.8-.4-3.3-.6-4.9-1.1.3-2.2.8-3.3 1.2-.7-.1-1.5-.1-2.3 0-.6-.3-.9-.4-1.5 2.9-.6.8-1.2 1.8-1.8 2.7-.7 0-1.5-.1-2.3-.1-1.2-1.1-2.6-2.2-3.9-3.4-.4-1.4-.8-1.7-1-2.8-.7-.3-1.5-.6-2.2-.8-.9-.2-1.9-.2-2.9-.2-.5 0-1.5-1.2-1.6.2-.8.7-1.7 1.3-2.5 2.2-.2-.5-.5-.8-.7-1 .1 12.2-1.5 24.5-5.1 36.2.2 1.3-2.1 4.1-.6 4-1 6.6-3.7 12.2-6.3 18.1 1.7.7.9 2.4-.5 4.2-1.3 1.8-3 3.8-2.8 5.5-1.6.5-2.4 2.2-3.4 4-1 1.8-2 3.9-3.9 4.8-4.2 6.7-10.4 13.5-16.2 18.3-1.6 1.7-3.2 3.3-5 4.7-.9.7-1.8 1.4-2.8 2.1-.9.7-1.9 1.4-2.9 2-2 1.3-4 2.6-6.2 3.7l-3.3 1.8c-1.1.6-2.3 1.2-3.5 1.8.1.8-1.6 1.3-1.8 2.3-1.8.9-3.7 1.7-5.6 2.6-1.9.8-3.9 1.6-5.8 2.4-1.6.6-3.3 1.2-5.1 1.9-1.8.6-3.8 1.1-5.7 1.7-3.9 1-7.9 1.9-11.4 2.4-.6.8-3.3.3-3.2 2.1-1-.3-2.1-.5-3.4-.4-.6 0-1.3.2-2 .4s-1.4.4-2.2.8c-1.6-.5-5.3.6-5.2-.7-1 .1-3.1-.2-3.1.4-.6.3-1.3.4-2.2.4-.8 0-1.7-.1-2.5-.1-1.4.3-2.6.5-4.1.8 1-1.3-3.3-1.3-3.6-.9-.6.3-1.6.2-2.7.2s-2.2 0-3.1.7c-.3 0-.5-.1-.8-.1-1-.7-2-1.2-2.9-1.4-.9-.2-1.7-.2-2.3.4-.8-.2-1.4-.6-2.3-.8-.9-.2-2.1-.1-4.1.5-.8-.1-1.7-.2-2.4-.2 1.3-.8-1.2-1-.7-1.8-1.3.1-2.9-.2-4.5-.6-1.6-.4-3.3-.9-5-1.5-1.7-.6-3.3-1.2-4.9-1.7-1.6-.6-3-1-4.4-1.1-1.9-.8-3.6-1.6-5.5-2.5-1.3-.5-2.8-1.4-4.3-2.1-1.5-.7-3-1.3-4.5-1.5-.4-.2-.8-.5-1.4-.8-3.8-2.3-8.2-6.2-14.2-8.9-1.8-1.5-3.5-3.1-5.1-4.7-.8-.8-1.6-1.6-2.4-2.3-.8-.7-1.6-1.5-2.4-2.2-1.1-1.2-1.5-2.1-1.7-3 0-.1 0-.2-.1-.3-8.4-6.5-15-14.4-20.8-23.2-.9-.4-1.8-.6-2.6-.9-.9-.7-1.9-1.6-2.7-2.4-.2-.4-.4-.9-.7-1.4-3.7-7.7-7.2-17.2-9.6-25.4-.2-.1-.5-.4-.8-.6-.3-.8-.5-1.7-.7-2.8-.2-1.1-.5-2.6-.7-4.6.3-.1.6-.1 1-.2-3.9-15.5-5-31-2.9-46.9l.5.5c.4-4.2 1.1-8.3 1.9-12.3v-.1c.1-.2.1-.5.2-.7 5.5-25 19.1-47.9 37.9-65.4-1 1-1.5 2-2.5 3 16.5-17 37-28 60.5-33.5 6-1 12-2.5 18-2 8.5 0 17.5 0 26 .5l-.5.5c11.5 1 22.5 5 33.5 9-1.5-.5-3.5-1-5-1.5 15.5 6 30 14 42 26 2.7 3.1 5.4 5.9 8.1 8.8h.4c1.4-.5 1.6-2.2 1.8-3.3-1-1.5-2.2-2.8-3.4-4.3-.7-1.1-1.3-2.1-2.2-3.2-2-1.9-4.2-3.9-6.3-5.6-.7-.9-1.5-1.7-2.3-2.6-.8-.8-1.7-1.6-2.5-2.4-1.7-1.7-3.6-3.1-5.5-4.6l-1.4-1.1-1.5-1c-1-.7-1.9-1.4-2.9-2.1-1.9-1.4-3.9-2.6-5.6-4-.8-.9-2.7-1.8-4.5-2.8-.5-.2-.9-.5-1.4-.7-.4-.2-.9-.4-1.3-.6-.8-.4-1.4-.8-1.8-1.2-.8-.4-1.7-.8-2.5-1.2-.8-.4-1.7-.7-2.5-1-.9-.4-2-.8-2.9-1.2.6-1.7-3.6-2.7-5.1-2.5l-1.9-.7-1.9-.6-3.8-1.1c-1.3-.4-2.6-.6-3.9-1-1.3-.3-2.6-.7-3.9-.9-1.3-.3-2.6-.7-3.9-1-.2-.7-1.4-1.3-2.9-1.5-1.5-.2-3.2-.2-4.2.1-.8-.1-1.7-.2-2.5-.3-1.9-.6-4.1-1.2-6.2-1.8 1.2-1-1.5-1.2-.6-1.9.8-.6 1.4-1.2 2-1.8 1.2-.1 2.5-.1 4.1-.2 1.6-.2 3.6-.3 6.2-.6l3 .6c1 .2 1.9.5 2.9.7 1 .2 1.9.5 2.9.7.5.1 1 .2 1.4.4.5.1 1 .3 1.4.4.1.7 1.2 1.4 2.9 1.8 1.7.4 4 .8 6.7.8-1.7-1-3.4-2-5.2-2.8.1-.4.3-.8.4-1.3 0-.1.1-.2.1-.3-.8-.3-1.7-.7-2.5-1-1.4-.3-2.8-.7-4.2-1-2-.2-1.4 1.1-3 1.4-.9-.4-1.4-1.1-2.1-1.7-.7-.6-1.7-1.2-3.4-1.2-1.6-.2-3.4-.3-5.2-.4-1.6-.1-3.4-.1-5.1-.2 0 .1 0 .3-.1.3-1.3.3-2.4.6-3.7 1-1.2-.1-2.4-.1-3.7-.1-1.2 0-2.5-.1-3.7 0-2.5.1-4.9 0-7-.2-8.2.2-16.4 1.2-24.4 2.9-.9-.5-2.3-.5-3.8-.1s-2.9 1.1-3.9 1.7c-10.2 2.7-20.2 6.6-29.6 11.6-1.5.2-2.6-.4-4.3 1-.9 1.1-2.9 2-3.2 3.4-1.2.6-2.4 1.1-3.6 1.7-1.1.6-2.3 1.2-3.4 1.8-1.6 1-3.3 2-4.8 3.1-1.6 1.1-3.2 2.1-4.7 3.3-1.4.9-2.9 1.9-4.4 2.9-1 1.1-1.8 2.2-2.9 3.4-.9.9-1.9 1.7-2.8 2.6-.9.9-1.8 1.9-2.8 2.9-.8.6-1.7 1.3-2.4 2.1-.8.8-1.4 1.6-1.7 2.3-1.3 1.2-2.7 2.4-3.9 3.6.7-1.8-1.4-1.1-.8-3.1-1.2.4-2.4 2.6-3.5 3.8-.5 1.3-.9 2.5-1.3 3.8-.1.1-.3.4-.4.6-.4-1.1-1.5-.1-2.3.5-.6.8-1.1 1.5-1.6 2.4-.5 1-1.1 2.2-1.7 4-1.3 1.4-2.1 1.9-2.8 2.6-1 2.1-3.5 4.7-3.1 6.5-.8 1.7-1.5 3.2-2.3 5-1.1 1.7-2 3.6-3 5.4-.6.5-1.1 1.5-1.6 2.5-.4 1.1-.8 2.2-1.3 3.2-.1 1.6-.2 3.2-.2 4.9-.6 1.9-1.2 3.7-1.8 5.6-.6 1.9-1 3.7-1.5 5.5-.4 1.3-.7 2.3-1 3.6-1 .4-2.2 3-3.3 4.4-.5 1.8-.7 3.7-.7 6.5-.1.6-.2 1.1-.3 1.8-2 1.6-1.2 6.1-1.5 8 .4 1 .9 1.9 1.3 2.9-1 1.2-.8 3.5-1 5.3-2.8 4.3-2.3 13-1.7 20.6.6 1.3 1.2 2.5 1.9 3.8.2 1.8.3 3.6.5 5.3.2 1.8.5 3.5.7 5.3-.9.4-1.1 2.6-.4 4.6.9.8 1.3 3 1.9 5.3.7 2.3 1.6 4.8 3.4 5.8.2.7.4 1.6.7 2.5.4 1.1.8 2.3 1.1 3.4.7 1.4-.1-2.7.6-1.3.7 1 1.3 2.5 2.1 3.8.8 1.3 1.5 2.3 2.2 2.3.2-1.3 0-2-.6-3.1-.5-1.1-1.4-2.7-2.8-5.7 1.1-2.5-2.4-9.6-2.2-13.9-.8-1.6-1.5-3.3-2.2-5.1-.4-2.4-.6-3.6-.8-5.1-.7-2.2-1.4-4.2-2-6.2 1 .7 1.1-3.3 2-3.5-.1-1.2-.1-2.4-.2-3.6-.1-1.2 0-2.4-.1-3.5 0-2.3-.1-4.7 0-7 .2-1.1.3-2.3.5-3.4.1-1.5.3-2.9.4-4.3.2-1.4.4-2.9.6-4.3.2-.3.5-.6.7-.8.2.6.5 1.2.8 2 1.6-4.4 1.8 1.4 2.7 2.1.5.4 1 .7 1.5 1.1-.2 2.4-.6 5.5.2 7.5-.2.5-.3 1-.4 1.7-.7.5-1 2.5-.9 4.7 0 1.1.1 2.3.3 3.4.2 1.1.5 2 .9 2.7h.9c1.1.5 2.2 1.1 3.3 1.7.3.8.6 1.6 1 2.4.4.8.7 1.6 1.1 2.4.2 1.8.3 2.8.5 4 .3 0 .7 0 1.6-.1.3 1.5.5 3 .7 4.3.2 1.3.6 2.5 1.3 3.4.4 1.8.8 3.5 1.2 5.3l1.5 5.4c.5 2.1 1.3 4.3 1.9 6.4.7 2.1 1.5 4.2 2.1 6.3.6 1.9 1.3 3.7 1.9 5.5.6 1.9 1.5 3.6 2.2 5.5.6 1.6 1.4 3.2 2.1 4.7.7 1.6 1.4 3.1 2.2 4.7.2 1.3.6 2.9 1.3 4.5.8 1.6 1.8 3.2 3.1 4.6.8.3 1.6.5 2.5.9.4.5.9 1.2 1.3 1.9-1.8-.4-.3 1.6-.3 2.4 1.1 1.3 2.4 2.5 3.6 3.7.1 1.2 0 2.2.1 3.3 1.7 2 3.2 3.8 4.9 5.7 1 1.7 3 2 3.7 2.6.9.8 1.8 1.6 2.8 2.4l3 2.4c3.1 2.7 3.1 4 4.7 6.3-1 0-1.9 0-3-.1-.3.2-.6.4-.8.5.9.8 1.7 1.5 2.5 2.2 4.2 3 3.9.1 7.5 1.8 1.5.9 2.8 1.8 4.3 2.8 1.1.8 2.2.5 5 2.9 1.8-.3 2.7.4 3.7 1.4 1 1 2.1 2.4 4.2 3.2-.5.4-1 .9-1.5 1.4-1.2-.7-2.5-1.4-3.7-2-1.3-.7-2.5-1.3-3.7-2.1-.1.1-.2.2-.3.2.2.9.5 1.8.7 2.7 2.1 1.1 4 2.1 6.1 3.2 2.2 1.1 4.6 2.4 6.8 3.5 1.8.8 3.9 1.6 5.8 2.3 2.3.9 4 1.6 5.5 2.2 1.4 1 2.9 1.8 4.2 2.6 1.2 0 2.5.2 3.8.4 1.3.2 2.7.4 4.2.8 3 .7 6.5 1.3 10.7 2 1.9.5 4 1 5.8 1.4l-1.8 3.3c-1.8-.3-3.6-.6-5.3-1-1.6-.4-3.1-.9-4.6-1.3-.8-.2-1.5-.4-2.3-.6-.8-.2-1.5-.5-2.3-.7-.2.3-.5.7-.8 1.1-1-.1-1.9-.3-2.7-.4-1.9-1.2-3.8-2.5-5.6-3.8-.7.1-1.5.2-2.2.2-4.7-1.2-6.3-1.4-6.8.1-1.5-.4-3-.8-4.5-1.3-3.1-1.6-6.7-3.7-12.8-5.3.3.6.9 1.2 1.6 1.7.8.5 1.7 1 2.8 1.5s2.3 1 3.6 1.5c1.3.5 2.7.9 4.1 1.3 1 .5 2 1 3 1.4l3.1 1.3c2.1.9 4.1 1.8 6.2 2.5.6.1 1.3.1 1.8.3.3-.3.6-.7.8-1.1 1.2.4 2.3.8 3.6 1.2 1.3 1.2 3.3 1.9 5.6 2.4 2.3.4 5 .6 7.5 1l4.8.9c1.6.3 3.2.6 4.8.8 1.9.1 3.9.2 5.6.4l7.5.3c1.1.2 2.4.3 3.5.5.9 0 1.7 0 2.6.1.9.2 1.7.4 2.6.7-.2.5-.3.9-.5 1.3 0 .1-.1.2-.1.3 2.6 1.4 3.8 1.3 6.2.2 1 0 1.9-.1 2.8-.1.9-.1 1.8-.1 2.8-.2 1.1-.5 2.2-1 3.1-1.5.7.1 1.3.1 1.8.2 1.4.5 1.2 1.1 2.3 1.3 3.1-.5 6.4-1 9.3-1.7 2.5-.5 5.4-1 5.4-.1 1.2-.3 2.5-.5 4.1-.9.8-.2 1.7-.4 2.8-.8 1-.4 2.1-.8 3.3-1.4 1.5-.9 3.1-1.8 4.6-2.7.7-.2 3.7 0 5.4-2.5-.5-.4-1.1-.8-1.8-1.1.9-.7 1.8-1.5 2.7-2.3 2.9-1.1 5.7-2.2 8.5-3.5.7.3 1.6.3 2.6.2.8-.4 1.7-.8 2.6-1.2.9-.4 1.8-.8 2.6-1.3 1.7-.9 3.2-1.9 3.8-3.4 1.1-.5 2-1.1 3.1-2 1.1-.9 2.5-2.1 4.6-4 .8-.5 1.5-.9 2.3-1.4 1.6-.9 3.2.2 5.7-2.4 1.6-1.1 2.9-2.1 3.4-4 .6-1.1 1.1-1.9 1.7-3 1.9-1.6 3.7-3.4 5.5-5.2 1.8-1.7 3.5-3.6 5.2-5.4.5-.3.9-.6 1.5-1 1.7-.7 3-1.5 4.8-3.6.7-1.8 4.4-4.4 4-7.4 1-1.2 1.8-2.5 2.7-3.8.9-1 1.7-2 2.6-3.1.8-1 1.7-2.1 2.5-3.3.9-.4 1.8-1.4 2.7-2.8.8-1.4 1.7-3.1 2.5-4.9 1.2-1.7 2-3.2 2.6-4.7.6-1.5.9-2.9 1-4.5.5-1.1 1.6-2.5 1-4 1.2-2.4 2.9-5.3 3.1-10.3.6-1.6 1.3-3.3 2-5.1 2.2-1.7 2.4.4 4.4-.7.4-2.2.8-4.5 1.2-6.7.7-3.2.7-5.2 1.6-7.6.1-1.3 0-2.9 0-4.2.4-1.7.8-3.5 1.2-4.9.3-1.5.4-2.7.2-3.3.4-2.4.3-4 0-5.8zM191 17.8c.5.2 1 .3 1.5.4.5.1 1 .3 1.6.4-1.6-.5-3.4.1-4.7-1.1 0-.1-.2-.2-.3-.4.6.3 1.2.5 1.9.7zM18.2 135.2c.1-.9.2-1.7.2-2.6 0 .8-.1 1.7-.2 2.6zM24.4 71c.5-.9 1.1-1.7 1.7-2.4-.3.8-.7 1.6-1.7 2.4zm165.4 215.5c-.1 0-.2 0-.4.1l.9-.3c-.2 0-.3.1-.5.2zm85.4-55.6c.5-.9 1-1.8 1.5-2.9.3-.7.7-1.4 1.1-2.2-.5 1.3-1.1 3-2.6 5.1zm9.1-14.5c-.6 1-1.2 2.2-1.7 3.2.6-1.5 1.3-2.9 2-4.3 0 .4-.2.7-.3 1.1zm2.9-4.3l-.2.2c.1-.1.2-.1.2-.2.1-.2.2-.4.4-.6-.1.2-.2.4-.4.6z" style="block-size:auto;border-block-end-color:rgb(51, 51, 51);border-block-start-color:rgb(51, 51, 51);border-bottom-color:rgb(51, 51, 51);border-inline-end-color:rgb(51, 51, 51);border-inline-start-color:rgb(51, 51, 51);border-left-color:rgb(51, 51, 51);border-right-color:rgb(51, 51, 51);border-top-color:rgb(51, 51, 51);caret-color:rgb(51, 51, 51);color:rgb(51, 51, 51);column-rule-color:rgb(51, 51, 51);cursor:default;d:path(&quot;M 308.3 158.7 C 308.2 157.8 308 156.8 307.9 155.5 C 307.8 154.2 307.8 152.7 307.8 150.8 C 307.7 150.7 307.6 150.7 307.5 150.6 C 307 150.4 306.5 150.1 306 149.9 C 305.8 148.1 305.6 146.6 305.4 145 C 304.3 145.3 303.2 145.8 302.1 146.2 C 301.4 146.1 300.6 146.1 299.8 146.2 C 299.2 145.9 298.9 145.8 298.3 149.1 C 297.7 149.9 297.1 150.9 296.5 151.8 C 295.8 151.8 295 151.7 294.2 151.7 C 293 150.6 291.6 149.5 290.3 148.3 C 289.9 146.9 289.5 146.6 289.3 145.5 C 288.6 145.2 287.8 144.9 287.1 144.7 C 286.2 144.5 285.2 144.5 284.2 144.5 C 283.7 144.5 282.7 143.3 282.6 144.7 C 281.8 145.4 280.9 146 280.1 146.9 C 279.9 146.4 279.6 146.1 279.4 145.9 C 279.5 158.1 277.9 170.4 274.3 182.1 C 274.5 183.4 272.2 186.2 273.7 186.1 C 272.7 192.7 270 198.3 267.4 204.2 C 269.1 204.9 268.3 206.6 266.9 208.4 C 265.6 210.2 263.9 212.2 264.1 213.9 C 262.5 214.4 261.7 216.1 260.7 217.9 C 259.7 219.7 258.7 221.8 256.8 222.7 C 252.6 229.4 246.4 236.2 240.6 241 C 239 242.7 237.4 244.3 235.6 245.7 C 234.7 246.4 233.8 247.1 232.8 247.8 C 231.9 248.5 230.9 249.2 229.9 249.8 C 227.9 251.1 225.9 252.4 223.7 253.5 L 220.4 255.3 C 219.3 255.9 218.1 256.5 216.9 257.1 C 217 257.9 215.3 258.4 215.1 259.4 C 213.3 260.3 211.4 261.1 209.5 262 C 207.6 262.8 205.6 263.6 203.7 264.4 C 202.1 265 200.4 265.6 198.6 266.3 C 196.8 266.9 194.8 267.4 192.9 268 C 189 269 185 269.9 181.5 270.4 C 180.9 271.2 178.2 270.7 178.3 272.5 C 177.3 272.2 176.2 272 174.9 272.1 C 174.3 272.1 173.6 272.3 172.9 272.5 S 171.5 272.9 170.7 273.3 C 169.1 272.8 165.4 273.9 165.5 272.6 C 164.5 272.7 162.4 272.4 162.4 273 C 161.8 273.3 161.1 273.4 160.2 273.4 C 159.4 273.4 158.5 273.3 157.7 273.3 C 156.3 273.6 155.1 273.8 153.6 274.1 C 154.6 272.8 150.3 272.8 150 273.2 C 149.4 273.5 148.4 273.4 147.3 273.4 S 145.1 273.4 144.2 274.1 C 143.9 274.1 143.7 274 143.4 274 C 142.4 273.3 141.4 272.8 140.5 272.6 C 139.6 272.4 138.8 272.4 138.2 273 C 137.4 272.8 136.8 272.4 135.9 272.2 C 135 272 133.8 272.1 131.8 272.7 C 131 272.6 130.1 272.5 129.4 272.5 C 130.7 271.7 128.2 271.5 128.7 270.7 C 127.4 270.8 125.8 270.5 124.2 270.1 C 122.6 269.7 120.9 269.2 119.2 268.6 C 117.5 268 115.9 267.4 114.3 266.9 C 112.7 266.3 111.3 265.9 109.9 265.8 C 108 265 106.3 264.2 104.4 263.3 C 103.1 262.8 101.6 261.9 100.1 261.2 C 98.6 260.5 97.1 259.9 95.6 259.7 C 95.2 259.5 94.8 259.2 94.2 258.9 C 90.4 256.6 86 252.7 80 250 C 78.2 248.5 76.5 246.9 74.9 245.3 C 74.1 244.5 73.3 243.7 72.5 243 C 71.7 242.3 70.9 241.5 70.1 240.8 C 69 239.6 68.6 238.7 68.4 237.8 C 68.4 237.7 68.4 237.6 68.3 237.5 C 59.9 231 53.3 223.1 47.5 214.3 C 46.6 213.9 45.7 213.7 44.9 213.4 C 44 212.7 43 211.8 42.2 211 C 42 210.6 41.8 210.1 41.5 209.6 C 37.8 201.9 34.3 192.4 31.9 184.2 C 31.7 184.1 31.4 183.8 31.1 183.6 C 30.8 182.8 30.6 181.9 30.4 180.8 C 30.2 179.7 29.9 178.2 29.7 176.2 C 30 176.1 30.3 176.1 30.7 176 C 26.8 160.5 25.7 145 27.8 129.1 L 28.3 129.6 C 28.7 125.4 29.4 121.3 30.2 117.3 V 117.2 C 30.3 117 30.3 116.7 30.4 116.5 C 35.9 91.5 49.5 68.6 68.3 51.1 C 67.3 52.1 66.8 53.1 65.8 54.1 C 82.3 37.1 102.8 26.1 126.3 20.6 C 132.3 19.6 138.3 18.1 144.3 18.6 C 152.8 18.6 161.8 18.6 170.3 19.1 L 169.8 19.6 C 181.3 20.6 192.3 24.6 203.3 28.6 C 201.8 28.1 199.8 27.6 198.3 27.1 C 213.8 33.1 228.3 41.1 240.3 53.1 C 243 56.2 245.7 59 248.4 61.9 H 248.8 C 250.2 61.4 250.4 59.7 250.6 58.6 C 249.6 57.1 248.4 55.8 247.2 54.3 C 246.5 53.2 245.9 52.2 245 51.1 C 243 49.2 240.8 47.2 238.7 45.5 C 238 44.6 237.2 43.8 236.4 42.9 C 235.6 42.1 234.7 41.3 233.9 40.5 C 232.2 38.8 230.3 37.4 228.4 35.9 L 227 34.8 L 225.5 33.8 C 224.5 33.1 223.6 32.4 222.6 31.7 C 220.7 30.3 218.7 29.1 217 27.7 C 216.2 26.8 214.3 25.9 212.5 24.9 C 212 24.7 211.6 24.4 211.1 24.2 C 210.7 24 210.2 23.8 209.8 23.6 C 209 23.2 208.4 22.8 208 22.4 C 207.2 22 206.3 21.6 205.5 21.2 C 204.7 20.8 203.8 20.5 203 20.2 C 202.1 19.8 201 19.4 200.1 19 C 200.7 17.3 196.5 16.3 195 16.5 L 193.1 15.8 L 191.2 15.2 L 187.4 14.1 C 186.1 13.7 184.8 13.5 183.5 13.1 C 182.2 12.8 180.9 12.4 179.6 12.2 C 178.3 11.9 177 11.5 175.7 11.2 C 175.5 10.5 174.3 9.89998 172.8 9.69998 C 171.3 9.49998 169.6 9.49998 168.6 9.79998 C 167.8 9.69998 166.9 9.59998 166.1 9.49998 C 164.2 8.89998 162 8.29998 159.9 7.69998 C 161.1 6.69998 158.4 6.49998 159.3 5.79998 C 160.1 5.19998 160.7 4.59998 161.3 3.99998 C 162.5 3.89998 163.8 3.89998 165.4 3.79998 C 167 3.59998 169 3.49998 171.6 3.19998 L 174.6 3.79998 C 175.6 3.99998 176.5 4.29998 177.5 4.49998 C 178.5 4.69998 179.4 4.99998 180.4 5.19998 C 180.9 5.29998 181.4 5.39998 181.8 5.59998 C 182.3 5.69998 182.8 5.89998 183.2 5.99998 C 183.3 6.69998 184.4 7.39998 186.1 7.79998 C 187.8 8.19998 190.1 8.59998 192.8 8.59998 C 191.1 7.59998 189.4 6.59998 187.6 5.79998 C 187.7 5.39998 187.9 4.99998 188 4.49998 C 188 4.39998 188.1 4.29998 188.1 4.19998 C 187.3 3.89998 186.4 3.49998 185.6 3.19998 C 184.2 2.89998 182.8 2.49998 181.4 2.19998 C 179.4 1.99998 180 3.29998 178.4 3.59998 C 177.5 3.19998 177 2.49998 176.3 1.89998 C 175.6 1.29998 174.6 0.699976 172.9 0.699976 C 171.3 0.499976 169.5 0.399976 167.7 0.299976 C 166.1 0.199976 164.3 0.199976 162.6 0.099976 C 162.6 0.199976 162.6 0.399976 162.5 0.399976 C 161.2 0.699976 160.1 0.999976 158.8 1.39998 C 157.6 1.29998 156.4 1.29998 155.1 1.29998 C 153.9 1.29998 152.6 1.19998 151.4 1.29998 C 148.9 1.39998 146.5 1.29998 144.4 1.09998 C 136.2 1.29998 128 2.29998 120 3.99998 C 119.1 3.49998 117.7 3.49998 116.2 3.89998 S 113.3 4.99998 112.3 5.59998 C 102.1 8.29998 92.1001 12.2 82.7001 17.2 C 81.2001 17.4 80.1001 16.8 78.4001 18.2 C 77.5001 19.3 75.5001 20.2 75.2001 21.6 C 74.0001 22.2 72.8001 22.7 71.6001 23.3 C 70.5001 23.9 69.3001 24.5 68.2001 25.1 C 66.6001 26.1 64.9001 27.1 63.4001 28.2 C 61.8001 29.3 60.2001 30.3 58.7001 31.5 C 57.3001 32.4 55.8001 33.4 54.3001 34.4 C 53.3001 35.5 52.5001 36.6 51.4001 37.8 C 50.5001 38.7 49.5001 39.5 48.6001 40.4 C 47.7001 41.3 46.8001 42.3 45.8001 43.3 C 45.0001 43.9 44.1001 44.6 43.4001 45.4 C 42.6001 46.2 42.0001 47 41.7001 47.7 C 40.4001 48.9 39.0001 50.1 37.8001 51.3 C 38.5001 49.5 36.4001 50.2 37.0001 48.2 C 35.8001 48.6 34.6001 50.8 33.5001 52 C 33.0001 53.3 32.6001 54.5 32.2001 55.8 C 32.1001 55.9 31.9001 56.2 31.8001 56.4 C 31.4001 55.3 30.3001 56.3 29.5001 56.9 C 28.9001 57.7 28.4001 58.4 27.9001 59.3 C 27.4001 60.3 26.8001 61.5 26.2001 63.3 C 24.9001 64.7 24.1001 65.2 23.4001 65.9 C 22.4001 68 19.9001 70.6 20.3001 72.4 C 19.5001 74.1 18.8001 75.6 18.0001 77.4 C 16.9001 79.1 16.0001 81 15.0001 82.8 C 14.4001 83.3 13.9001 84.3 13.4001 85.3 C 13.0001 86.4 12.6001 87.5 12.1001 88.5 C 12.0001 90.1 11.9001 91.7 11.9001 93.4 C 11.3001 95.3 10.7001 97.1 10.1001 99 C 9.50006 100.9 9.10006 102.7 8.60006 104.5 C 8.20006 105.8 7.90006 106.8 7.60006 108.1 C 6.60006 108.5 5.40006 111.1 4.30006 112.5 C 3.80006 114.3 3.60006 116.2 3.60006 119 C 3.50006 119.6 3.40006 120.1 3.30006 120.8 C 1.30006 122.4 2.10006 126.9 1.80006 128.8 C 2.20006 129.8 2.70006 130.7 3.10006 131.7 C 2.10006 132.9 2.30006 135.2 2.10006 137 C -0.699938 141.3 -0.199938 150 0.400062 157.6 C 1.00006 158.9 1.60006 160.1 2.30006 161.4 C 2.50006 163.2 2.60006 165 2.80006 166.7 C 3.00006 168.5 3.30006 170.2 3.50006 172 C 2.60006 172.4 2.40006 174.6 3.10006 176.6 C 4.00006 177.4 4.40006 179.6 5.00006 181.9 C 5.70006 184.2 6.60006 186.7 8.40006 187.7 C 8.60006 188.4 8.80006 189.3 9.10006 190.2 C 9.50006 191.3 9.90006 192.5 10.2001 193.6 C 10.9001 195 10.1001 190.9 10.8001 192.3 C 11.5001 193.3 12.1001 194.8 12.9001 196.1 C 13.7001 197.4 14.4001 198.4 15.1001 198.4 C 15.3001 197.1 15.1001 196.4 14.5001 195.3 C 14.0001 194.2 13.1001 192.6 11.7001 189.6 C 12.8001 187.1 9.30006 180 9.50006 175.7 C 8.70006 174.1 8.00006 172.4 7.30006 170.6 C 6.90006 168.2 6.70006 167 6.50006 165.5 C 5.80006 163.3 5.10006 161.3 4.50006 159.3 C 5.50006 160 5.60006 156 6.50006 155.8 C 6.40006 154.6 6.40006 153.4 6.30006 152.2 C 6.20006 151 6.30006 149.8 6.20006 148.7 C 6.20006 146.4 6.10006 144 6.20006 141.7 C 6.40006 140.6 6.50006 139.4 6.70006 138.3 C 6.80006 136.8 7.00006 135.4 7.10006 134 C 7.30006 132.6 7.50006 131.1 7.70006 129.7 C 7.90006 129.4 8.20006 129.1 8.40006 128.9 C 8.60006 129.5 8.90006 130.1 9.20006 130.9 C 10.8001 126.5 11.0001 132.3 11.9001 133 C 12.4001 133.4 12.9001 133.7 13.4001 134.1 C 13.2001 136.5 12.8001 139.6 13.6001 141.6 C 13.4001 142.1 13.3001 142.6 13.2001 143.3 C 12.5001 143.8 12.2001 145.8 12.3001 148 C 12.3001 149.1 12.4001 150.3 12.6001 151.4 C 12.8001 152.5 13.1001 153.4 13.5001 154.1 H 14.4001 C 15.5001 154.6 16.6001 155.2 17.7001 155.8 C 18.0001 156.6 18.3001 157.4 18.7001 158.2 C 19.1001 159 19.4001 159.8 19.8001 160.6 C 20.0001 162.4 20.1001 163.4 20.3001 164.6 C 20.6001 164.6 21.0001 164.6 21.9001 164.5 C 22.2001 166 22.4001 167.5 22.6001 168.8 C 22.8001 170.1 23.2001 171.3 23.9001 172.2 C 24.3001 174 24.7001 175.7 25.1001 177.5 L 26.6001 182.9 C 27.1001 185 27.9001 187.2 28.5001 189.3 C 29.2001 191.4 30.0001 193.5 30.6001 195.6 C 31.2001 197.5 31.9001 199.3 32.5001 201.1 C 33.1001 203 34.0001 204.7 34.7001 206.6 C 35.3001 208.2 36.1001 209.8 36.8001 211.3 C 37.5001 212.9 38.2001 214.4 39.0001 216 C 39.2001 217.3 39.6001 218.9 40.3001 220.5 C 41.1001 222.1 42.1001 223.7 43.4001 225.1 C 44.2001 225.4 45.0001 225.6 45.9001 226 C 46.3001 226.5 46.8001 227.2 47.2001 227.9 C 45.4001 227.5 46.9001 229.5 46.9001 230.3 C 48.0001 231.6 49.3001 232.8 50.5001 234 C 50.6001 235.2 50.5001 236.2 50.6001 237.3 C 52.3001 239.3 53.8001 241.1 55.5001 243 C 56.5001 244.7 58.5001 245 59.2001 245.6 C 60.1001 246.4 61.0001 247.2 62.0001 248 L 65.0001 250.4 C 68.1001 253.1 68.1001 254.4 69.7001 256.7 C 68.7001 256.7 67.8001 256.7 66.7001 256.6 C 66.4001 256.8 66.1001 257 65.9001 257.1 C 66.8001 257.9 67.6001 258.6 68.4001 259.3 C 72.6001 262.3 72.3001 259.4 75.9001 261.1 C 77.4001 262 78.7001 262.9 80.2001 263.9 C 81.3001 264.7 82.4001 264.4 85.2001 266.8 C 87.0001 266.5 87.9001 267.2 88.9001 268.2 C 89.9001 269.2 91.0001 270.6 93.1001 271.4 C 92.6001 271.8 92.1001 272.3 91.6001 272.8 C 90.4001 272.1 89.1001 271.4 87.9001 270.8 C 86.6001 270.1 85.4001 269.5 84.2001 268.7 C 84.1001 268.8 84.0001 268.9 83.9001 268.9 C 84.1001 269.8 84.4001 270.7 84.6001 271.6 C 86.7001 272.7 88.6001 273.7 90.7001 274.8 C 92.9 275.9 95.3 277.2 97.5001 278.3 C 99.3001 279.1 101.4 279.9 103.3 280.6 C 105.6 281.5 107.3 282.2 108.8 282.8 C 110.2 283.8 111.7 284.6 113 285.4 C 114.2 285.4 115.5 285.6 116.8 285.8 C 118.1 286 119.5 286.2 121 286.6 C 124 287.3 127.5 287.9 131.7 288.6 C 133.6 289.1 135.7 289.6 137.5 290 L 135.7 293.3 C 133.9 293 132.1 292.7 130.4 292.3 C 128.8 291.9 127.3 291.4 125.8 291 C 125 290.8 124.3 290.6 123.5 290.4 C 122.7 290.2 122 289.9 121.2 289.7 C 121 290 120.7 290.4 120.4 290.8 C 119.4 290.7 118.5 290.5 117.7 290.4 C 115.8 289.2 113.9 287.9 112.1 286.6 C 111.4 286.7 110.6 286.8 109.9 286.8 C 105.2 285.6 103.6 285.4 103.1 286.9 C 101.6 286.5 100.1 286.1 98.6001 285.6 C 95.5001 284 91.9001 281.9 85.8 280.3 C 86.1001 280.9 86.7001 281.5 87.4 282 C 88.2001 282.5 89.1 283 90.2001 283.5 S 92.5001 284.5 93.8 285 C 95.1001 285.5 96.5 285.9 97.9 286.3 C 98.9 286.8 99.9 287.3 100.9 287.7 L 104 289 C 106.1 289.9 108.1 290.8 110.2 291.5 C 110.8 291.6 111.5 291.6 112 291.8 C 112.3 291.5 112.6 291.1 112.8 290.7 C 114 291.1 115.1 291.5 116.4 291.9 C 117.7 293.1 119.7 293.8 122 294.3 C 124.3 294.7 127 294.9 129.5 295.3 L 134.3 296.2 C 135.9 296.5 137.5 296.8 139.1 297 C 141 297.1 143 297.2 144.7 297.4 L 152.2 297.7 C 153.3 297.9 154.6 298 155.7 298.2 C 156.6 298.2 157.4 298.2 158.3 298.3 C 159.2 298.5 160 298.7 160.9 299 C 160.7 299.5 160.6 299.9 160.4 300.3 C 160.4 300.4 160.3 300.5 160.3 300.6 C 162.9 302 164.1 301.9 166.5 300.8 C 167.5 300.8 168.4 300.7 169.3 300.7 C 170.2 300.6 171.1 300.6 172.1 300.5 C 173.2 300 174.3 299.5 175.2 299 C 175.9 299.1 176.5 299.1 177 299.2 C 178.4 299.7 178.2 300.3 179.3 300.5 C 182.4 300 185.7 299.5 188.6 298.8 C 191.1 298.3 194 297.8 194 298.7 C 195.2 298.4 196.5 298.2 198.1 297.8 C 198.9 297.6 199.8 297.4 200.9 297 C 201.9 296.6 203 296.2 204.2 295.6 C 205.7 294.7 207.3 293.8 208.8 292.9 C 209.5 292.7 212.5 292.9 214.2 290.4 C 213.7 290 213.1 289.6 212.4 289.3 C 213.3 288.6 214.2 287.8 215.1 287 C 218 285.9 220.8 284.8 223.6 283.5 C 224.3 283.8 225.2 283.8 226.2 283.7 C 227 283.3 227.9 282.9 228.8 282.5 C 229.7 282.1 230.6 281.7 231.4 281.2 C 233.1 280.3 234.6 279.3 235.2 277.8 C 236.3 277.3 237.2 276.7 238.3 275.8 C 239.4 274.9 240.8 273.7 242.9 271.8 C 243.7 271.3 244.4 270.9 245.2 270.4 C 246.8 269.5 248.4 270.6 250.9 268 C 252.5 266.9 253.8 265.9 254.3 264 C 254.9 262.9 255.4 262.1 256 261 C 257.9 259.4 259.7 257.6 261.5 255.8 C 263.3 254.1 265 252.2 266.7 250.4 C 267.2 250.1 267.6 249.8 268.2 249.4 C 269.9 248.7 271.2 247.9 273 245.8 C 273.7 244 277.4 241.4 277 238.4 C 278 237.2 278.8 235.9 279.7 234.6 C 280.6 233.6 281.4 232.6 282.3 231.5 C 283.1 230.5 284 229.4 284.8 228.2 C 285.7 227.8 286.6 226.8 287.5 225.4 C 288.3 224 289.2 222.3 290 220.5 C 291.2 218.8 292 217.3 292.6 215.8 C 293.2 214.3 293.5 212.9 293.6 211.3 C 294.1 210.2 295.2 208.8 294.6 207.3 C 295.8 204.9 297.5 202 297.7 197 C 298.3 195.4 299 193.7 299.7 191.9 C 301.9 190.2 302.1 192.3 304.1 191.2 C 304.5 189 304.9 186.7 305.3 184.5 C 306 181.3 306 179.3 306.9 176.9 C 307 175.6 306.9 174 306.9 172.7 C 307.3 171 307.7 169.2 308.1 167.8 C 308.4 166.3 308.5 165.1 308.3 164.5 C 308.7 162.1 308.6 160.5 308.3 158.7 Z M 191 17.8 C 191.5 18 192 18.1 192.5 18.2 C 193 18.3 193.5 18.5 194.1 18.6 C 192.5 18.1 190.7 18.7 189.4 17.5 C 189.4 17.4 189.2 17.3 189.1 17.1 C 189.7 17.4 190.3 17.6 191 17.8 Z M 18.2 135.2 C 18.3 134.3 18.4 133.5 18.4 132.6 C 18.4 133.4 18.3 134.3 18.2 135.2 Z M 24.4 71 C 24.9 70.1 25.5 69.3 26.1 68.6 C 25.8 69.4 25.4 70.2 24.4 71 Z M 189.8 286.5 C 189.7 286.5 189.6 286.5 189.4 286.6 L 190.3 286.3 C 190.1 286.3 190 286.4 189.8 286.5 Z M 275.2 230.9 C 275.7 230 276.2 229.1 276.7 228 C 277 227.3 277.4 226.6 277.8 225.8 C 277.3 227.1 276.7 228.8 275.2 230.9 Z M 284.3 216.4 C 283.7 217.4 283.1 218.6 282.6 219.6 C 283.2 218.1 283.9 216.7 284.6 215.3 C 284.6 215.7 284.4 216 284.3 216.4 Z M 287.2 212.1 L 287 212.3 C 287.1 212.2 287.2 212.2 287.2 212.1 C 287.3 211.9 287.4 211.7 287.6 211.5 C 287.5 211.7 287.4 211.9 287.2 212.1 Z&quot;);fill:rgb(217, 128, 13);font-family:Ubuntu, sans-serif;height:auto;inline-size:auto;list-style-type:none;outline-color:rgb(51, 51, 51);overflow-x:visible;overflow-y:visible;perspective-origin:0px 0px;text-align:center;text-decoration:none solid rgb(51, 51, 51);text-decoration-color:rgb(51, 51, 51);text-emphasis-color:rgb(51, 51, 51);transform-origin:0px 0px;width:auto;-webkit-text-fill-color:rgb(51, 51, 51);-webkit-text-stroke-color:rgb(51, 51, 51);"/></g><g id="SvgjsG162005" class="text" transform="translate(144.73649885039356, 180.36171323418924) scale(1)" light-content="false" fill="#ffffff" style="block-size:auto;border-block-end-color:rgb(51, 51, 51);border-block-start-color:rgb(51, 51, 51);border-bottom-color:rgb(51, 51, 51);border-inline-end-color:rgb(51, 51, 51);border-inline-start-color:rgb(51, 51, 51);border-left-color:rgb(51, 51, 51);border-right-color:rgb(51, 51, 51);border-top-color:rgb(51, 51, 51);caret-color:rgb(51, 51, 51);color:rgb(51, 51, 51);column-rule-color:rgb(51, 51, 51);cursor:default;fill:rgb(255, 255, 255);font-family:Ubuntu, sans-serif;height:auto;inline-size:auto;list-style-type:none;outline-color:rgb(51, 51, 51);overflow-x:visible;overflow-y:visible;perspective-origin:0px 0px;text-align:center;text-decoration:none solid rgb(51, 51, 51);text-decoration-color:rgb(51, 51, 51);text-emphasis-color:rgb(51, 51, 51);transform:matrix(1, 0, 0, 1, 144.736, 180.362);transform-origin:0px 0px;width:auto;-webkit-text-fill-color:rgb(51, 51, 51);-webkit-text-stroke-color:rgb(51, 51, 51);"><path d="M-62.21 5.33C-61.63 6.77 -60.69 8.04 -59.4 9.14C-58.1 10.25 -56.59 10.8 -54.86 10.8C-52.56 10.8 -51.07 10.3 -50.4 9.29C-49.73 8.28 -49.39 6.82 -49.39 4.9L-49.97 -29.37C-42.38 -28.22 -36.45 -27.43 -32.18 -27C-27.91 -26.57 -24.72 -26.26 -22.61 -26.06L-18.65 -25.7C-18.12 -25.66 -17.81 -25.44 -17.71 -25.06C-16.08 -25.25 -14.57 -25.75 -13.18 -26.57C-11.78 -27.38 -11.09 -28.75 -11.09 -30.67C-11.09 -31.73 -11.59 -32.85 -12.6 -34.05C-13.61 -35.25 -14.74 -35.95 -15.98 -36.14L-43.92 -39.02L-45.21 -39.74C-39.74 -46.37 -35.25 -51.77 -31.75 -55.94C-28.25 -60.12 -25.46 -63.48 -23.4 -66.02C-21.34 -68.57 -19.85 -70.39 -18.94 -71.49C-18.02 -72.6 -17.42 -73.34 -17.14 -73.73C-17.04 -73.92 -16.92 -74.23 -16.78 -74.66C-16.63 -75.09 -16.56 -75.41 -16.56 -75.6C-16.56 -77.81 -17.28 -79.34 -18.72 -80.21C-20.16 -81.07 -21.89 -81.74 -23.9 -82.22C-25.25 -81.93 -26.35 -81.36 -27.22 -80.49C-28.08 -79.63 -28.85 -78.67 -29.52 -77.61C-30.19 -76.56 -30.84 -75.45 -31.46 -74.3C-32.09 -73.15 -32.73 -72.14 -33.41 -71.28L-49.97 -52.41L-50.54 -52.41L-50.54 -94.46C-50.54 -95.52 -50.85 -96.4 -51.48 -97.12C-52.1 -97.84 -52.85 -98.44 -53.71 -98.92C-54.57 -99.4 -55.51 -99.76 -56.52 -100C-57.53 -100.24 -58.41 -100.36 -59.18 -100.36C-60.24 -100.56 -61.1 -100.15 -61.77 -99.14C-62.45 -98.13 -62.78 -97.15 -62.78 -96.19C-62.59 -96.09 -62.47 -94.17 -62.42 -90.43C-62.37 -86.68 -62.35 -81.96 -62.35 -76.25C-62.35 -70.53 -62.4 -64.22 -62.49 -57.31C-62.59 -50.4 -62.66 -43.65 -62.71 -37.08C-62.76 -30.5 -62.81 -24.48 -62.85 -19.01C-62.9 -13.54 -62.88 -9.46 -62.78 -6.77C-62.78 -6.29 -62.76 -5.5 -62.71 -4.39C-62.66 -3.29 -62.61 -2.09 -62.57 -0.79C-62.52 0.5 -62.45 1.73 -62.35 2.88C-62.25 4.03 -62.21 4.85 -62.21 5.33Z M-6.34 -22.03L-6.34 -21.6C-6.34 -19.1 -6.05 -16.56 -5.47 -13.97C-4.9 -11.38 -3.96 -9.05 -2.66 -6.98C-1.37 -4.92 0.31 -3.22 2.38 -1.87C4.44 -0.53 6.91 0.14 9.79 0.14C12.96 0.14 16.08 -0.91 19.15 -3.02C22.22 -5.14 24.98 -7.78 27.43 -10.94C29.88 -14.11 31.85 -17.47 33.33 -21.02C34.82 -24.58 35.57 -27.79 35.57 -30.67C35.57 -33.07 35.25 -35.85 34.63 -39.02C34.01 -42.19 33.02 -45.14 31.68 -47.88C30.33 -50.61 28.58 -52.94 26.42 -54.86C24.26 -56.78 21.65 -57.74 18.58 -57.74C17.23 -57.74 16.1 -57.53 15.19 -57.09C14.28 -56.66 13.25 -56.45 12.1 -56.45L11.95 -56.45C11.09 -58.17 10.03 -59.64 8.78 -60.84C7.54 -62.04 5.86 -62.64 3.74 -62.64C2.59 -62.64 1.56 -62.35 0.65 -61.77C-0.26 -61.2 -0.82 -60.29 -1.01 -59.04ZM5.76 -21.17L5.76 -21.6C5.76 -24.38 5.98 -27.43 6.41 -30.74C6.84 -34.05 7.63 -36.96 8.78 -39.45C10.8 -43.49 12.82 -45.96 14.83 -46.87C16.85 -47.78 18.65 -47.64 20.23 -46.44C21.82 -45.24 23.04 -43.27 23.9 -40.53C24.77 -37.8 25.01 -34.8 24.62 -31.53C24.62 -29.52 24.19 -27.6 23.33 -25.78C22.46 -23.95 21.38 -22.22 20.09 -20.59C18.79 -18.96 17.42 -17.42 15.98 -15.98C14.54 -14.54 13.2 -13.25 11.95 -12.1C10.61 -11.62 9.58 -11.64 8.86 -12.17C8.14 -12.7 7.58 -13.46 7.2 -14.47C6.82 -15.48 6.53 -16.61 6.34 -17.86C6.14 -19.1 5.95 -20.21 5.76 -21.17Z M21.89 23.76C22.66 25.49 23.88 27 25.56 28.3C27.24 29.59 29.13 30.62 31.25 31.39C33.36 32.16 35.52 32.73 37.73 33.12C39.93 33.5 42 33.69 43.92 33.69C44.49 33.69 45.07 33.55 45.65 33.26C46.22 32.97 46.8 32.93 47.37 33.12C50.83 32.06 53.71 30.36 56.01 28.01C58.32 25.66 60.14 22.97 61.49 19.94C62.83 16.92 63.77 13.73 64.29 10.37C64.82 7.01 65.09 3.74 65.09 0.58C64.51 -8.06 63.96 -15.62 63.43 -22.1C62.9 -28.58 62.42 -34.15 61.99 -38.81C61.56 -43.46 61.17 -47.4 60.84 -50.61C60.5 -53.83 60.24 -56.52 60.05 -58.68C59.85 -60.84 59.71 -62.61 59.61 -64.01C59.52 -65.4 59.47 -66.67 59.47 -67.82C58.41 -69.65 57.26 -70.82 56.01 -71.35C54.77 -71.88 53.18 -72.14 51.26 -72.14C49.73 -72.14 48.6 -71.66 47.88 -70.7C47.16 -69.74 46.8 -68.54 46.8 -67.1C47.76 -56.73 48.55 -47.93 49.17 -40.68C49.8 -33.43 50.33 -27.41 50.76 -22.61C51.19 -17.81 51.5 -13.99 51.69 -11.16C51.89 -8.33 52.05 -6.19 52.2 -4.75C52.34 -3.31 52.41 -2.38 52.41 -1.94L52.41 -1.01C52.41 0.91 52.25 3.31 51.91 6.19C51.57 9.07 50.9 11.83 49.89 14.47C48.89 17.11 47.52 19.37 45.79 21.24C44.06 23.11 41.85 24.05 39.17 24.05C37.92 23.86 36.65 23.3 35.35 22.39C34.05 21.48 32.76 20.54 31.46 19.58C30.17 18.62 28.97 17.76 27.86 16.99C26.76 16.22 25.78 15.86 24.91 15.91C24.05 15.96 23.33 16.58 22.75 17.78C22.18 18.98 21.89 20.98 21.89 23.76ZM40.03 -104.83C40.03 -104.06 40.29 -103.32 40.82 -102.6C41.35 -101.88 42.02 -101.23 42.84 -100.65C43.65 -100.08 44.49 -99.62 45.36 -99.28C46.22 -98.95 46.99 -98.78 47.66 -98.78C48.62 -98.78 49.75 -99.04 51.05 -99.57C52.34 -100.1 52.99 -100.99 52.99 -102.24C52.99 -104.44 52.17 -106.08 50.54 -107.13C48.91 -108.19 47.18 -108.72 45.36 -108.72C44.21 -108.72 43.03 -108.45 41.83 -107.92C40.63 -107.4 40.03 -106.37 40.03 -104.83Z" style="block-size:auto;border-block-end-color:rgb(51, 51, 51);border-block-start-color:rgb(51, 51, 51);border-bottom-color:rgb(51, 51, 51);border-inline-end-color:rgb(51, 51, 51);border-inline-start-color:rgb(51, 51, 51);border-left-color:rgb(51, 51, 51);border-right-color:rgb(51, 51, 51);border-top-color:rgb(51, 51, 51);caret-color:rgb(51, 51, 51);color:rgb(51, 51, 51);column-rule-color:rgb(51, 51, 51);cursor:default;d:path(&quot;M -62.21 5.33 C -61.63 6.77 -60.69 8.04 -59.4 9.14 C -58.1 10.25 -56.59 10.8 -54.86 10.8 C -52.56 10.8 -51.07 10.3 -50.4 9.29 C -49.73 8.28 -49.39 6.82 -49.39 4.9 L -49.97 -29.37 C -42.38 -28.22 -36.45 -27.43 -32.18 -27 C -27.91 -26.57 -24.72 -26.26 -22.61 -26.06 L -18.65 -25.7 C -18.12 -25.66 -17.81 -25.44 -17.71 -25.06 C -16.08 -25.25 -14.57 -25.75 -13.18 -26.57 C -11.78 -27.38 -11.09 -28.75 -11.09 -30.67 C -11.09 -31.73 -11.59 -32.85 -12.6 -34.05 C -13.61 -35.25 -14.74 -35.95 -15.98 -36.14 L -43.92 -39.02 L -45.21 -39.74 C -39.74 -46.37 -35.25 -51.77 -31.75 -55.94 C -28.25 -60.12 -25.46 -63.48 -23.4 -66.02 C -21.34 -68.57 -19.85 -70.39 -18.94 -71.49 C -18.02 -72.6 -17.42 -73.34 -17.14 -73.73 C -17.04 -73.92 -16.92 -74.23 -16.78 -74.66 C -16.63 -75.09 -16.56 -75.41 -16.56 -75.6 C -16.56 -77.81 -17.28 -79.34 -18.72 -80.21 C -20.16 -81.07 -21.89 -81.74 -23.9 -82.22 C -25.25 -81.93 -26.35 -81.36 -27.22 -80.49 C -28.08 -79.63 -28.85 -78.67 -29.52 -77.61 C -30.19 -76.56 -30.84 -75.45 -31.46 -74.3 C -32.09 -73.15 -32.73 -72.14 -33.41 -71.28 L -49.97 -52.41 L -50.54 -52.41 L -50.54 -94.46 C -50.54 -95.52 -50.85 -96.4 -51.48 -97.12 C -52.1 -97.84 -52.85 -98.44 -53.71 -98.92 C -54.57 -99.4 -55.51 -99.76 -56.52 -100 C -57.53 -100.24 -58.41 -100.36 -59.18 -100.36 C -60.24 -100.56 -61.1 -100.15 -61.77 -99.14 C -62.45 -98.13 -62.78 -97.15 -62.78 -96.19 C -62.59 -96.09 -62.47 -94.17 -62.42 -90.43 C -62.37 -86.68 -62.35 -81.96 -62.35 -76.25 C -62.35 -70.53 -62.4 -64.22 -62.49 -57.31 C -62.59 -50.4 -62.66 -43.65 -62.71 -37.08 C -62.76 -30.5 -62.81 -24.48 -62.85 -19.01 C -62.9 -13.54 -62.88 -9.46 -62.78 -6.77 C -62.78 -6.29 -62.76 -5.5 -62.71 -4.39 C -62.66 -3.29 -62.61 -2.09 -62.57 -0.79 C -62.52 0.5 -62.45 1.73 -62.35 2.88 C -62.25 4.03 -62.21 4.85 -62.21 5.33 Z M -6.34 -22.03 L -6.34 -21.6 C -6.34 -19.1 -6.05 -16.56 -5.47 -13.97 C -4.9 -11.38 -3.96 -9.05 -2.66 -6.98 C -1.37 -4.92 0.31 -3.22 2.38 -1.87 C 4.44 -0.53 6.91 0.14 9.79 0.14 C 12.96 0.14 16.08 -0.91 19.15 -3.02 C 22.22 -5.14 24.98 -7.78 27.43 -10.94 C 29.88 -14.11 31.85 -17.47 33.33 -21.02 C 34.82 -24.58 35.57 -27.79 35.57 -30.67 C 35.57 -33.07 35.25 -35.85 34.63 -39.02 C 34.01 -42.19 33.02 -45.14 31.68 -47.88 C 30.33 -50.61 28.58 -52.94 26.42 -54.86 C 24.26 -56.78 21.65 -57.74 18.58 -57.74 C 17.23 -57.74 16.1 -57.53 15.19 -57.09 C 14.28 -56.66 13.25 -56.45 12.1 -56.45 L 11.95 -56.45 C 11.09 -58.17 10.03 -59.64 8.78 -60.84 C 7.54 -62.04 5.86 -62.64 3.74 -62.64 C 2.59 -62.64 1.56 -62.35 0.65 -61.77 C -0.26 -61.2 -0.82 -60.29 -1.01 -59.04 Z M 5.76 -21.17 L 5.76 -21.6 C 5.76 -24.38 5.98 -27.43 6.41 -30.74 C 6.84 -34.05 7.63 -36.96 8.78 -39.45 C 10.8 -43.49 12.82 -45.96 14.83 -46.87 C 16.85 -47.78 18.65 -47.64 20.23 -46.44 C 21.82 -45.24 23.04 -43.27 23.9 -40.53 C 24.77 -37.8 25.01 -34.8 24.62 -31.53 C 24.62 -29.52 24.19 -27.6 23.33 -25.78 C 22.46 -23.95 21.38 -22.22 20.09 -20.59 C 18.79 -18.96 17.42 -17.42 15.98 -15.98 C 14.54 -14.54 13.2 -13.25 11.95 -12.1 C 10.61 -11.62 9.58 -11.64 8.86 -12.17 C 8.14 -12.7 7.58 -13.46 7.2 -14.47 C 6.82 -15.48 6.53 -16.61 6.34 -17.86 C 6.14 -19.1 5.95 -20.21 5.76 -21.17 Z M 21.89 23.76 C 22.66 25.49 23.88 27 25.56 28.3 C 27.24 29.59 29.13 30.62 31.25 31.39 C 33.36 32.16 35.52 32.73 37.73 33.12 C 39.93 33.5 42 33.69 43.92 33.69 C 44.49 33.69 45.07 33.55 45.65 33.26 C 46.22 32.97 46.8 32.93 47.37 33.12 C 50.83 32.06 53.71 30.36 56.01 28.01 C 58.32 25.66 60.14 22.97 61.49 19.94 C 62.83 16.92 63.77 13.73 64.29 10.37 C 64.82 7.01 65.09 3.74 65.09 0.58 C 64.51 -8.06 63.96 -15.62 63.43 -22.1 C 62.9 -28.58 62.42 -34.15 61.99 -38.81 C 61.56 -43.46 61.17 -47.4 60.84 -50.61 C 60.5 -53.83 60.24 -56.52 60.05 -58.68 C 59.85 -60.84 59.71 -62.61 59.61 -64.01 C 59.52 -65.4 59.47 -66.67 59.47 -67.82 C 58.41 -69.65 57.26 -70.82 56.01 -71.35 C 54.77 -71.88 53.18 -72.14 51.26 -72.14 C 49.73 -72.14 48.6 -71.66 47.88 -70.7 C 47.16 -69.74 46.8 -68.54 46.8 -67.1 C 47.76 -56.73 48.55 -47.93 49.17 -40.68 C 49.8 -33.43 50.33 -27.41 50.76 -22.61 C 51.19 -17.81 51.5 -13.99 51.69 -11.16 C 51.89 -8.33 52.05 -6.19 52.2 -4.75 C 52.34 -3.31 52.41 -2.38 52.41 -1.94 L 52.41 -1.01 C 52.41 0.91 52.25 3.31 51.91 6.19 C 51.57 9.07 50.9 11.83 49.89 14.47 C 48.89 17.11 47.52 19.37 45.79 21.24 C 44.06 23.11 41.85 24.05 39.17 24.05 C 37.92 23.86 36.65 23.3 35.35 22.39 C 34.05 21.48 32.76 20.54 31.46 19.58 C 30.17 18.62 28.97 17.76 27.86 16.99 C 26.76 16.22 25.78 15.86 24.91 15.91 C 24.05 15.96 23.33 16.58 22.75 17.78 C 22.18 18.98 21.89 20.98 21.89 23.76 Z M 40.03 -104.83 C 40.03 -104.06 40.29 -103.32 40.82 -102.6 C 41.35 -101.88 42.02 -101.23 42.84 -100.65 C 43.65 -100.08 44.49 -99.62 45.36 -99.28 C 46.22 -98.95 46.99 -98.78 47.66 -98.78 C 48.62 -98.78 49.75 -99.04 51.05 -99.57 C 52.34 -100.1 52.99 -100.99 52.99 -102.24 C 52.99 -104.44 52.17 -106.08 50.54 -107.13 C 48.91 -108.19 47.18 -108.72 45.36 -108.72 C 44.21 -108.72 43.03 -108.45 41.83 -107.92 C 40.63 -107.4 40.03 -106.37 40.03 -104.83 Z&quot;);fill:rgb(255, 255, 255);font-family:Ubuntu, sans-serif;height:auto;inline-size:auto;list-style-type:none;outline-color:rgb(51, 51, 51);overflow-x:visible;overflow-y:visible;perspective-origin:0px 0px;text-align:center;text-decoration:none solid rgb(51, 51, 51);text-decoration-color:rgb(51, 51, 51);text-emphasis-color:rgb(51, 51, 51);transform-origin:0px 0px;width:auto;-webkit-text-fill-color:rgb(51, 51, 51);-webkit-text-stroke-color:rgb(51, 51, 51);"/></g></g></svg>