<svg
      xmlns="http://www.w3.org/2000/svg"
      width="300"
      height="148"
      overflow="visible"
      viewBox="0 0 150.458 147"
    >
      <g opacity="1" transform="scale(.5281)">
        <g fill="#D9800D" className="SPyJnn33p">
          <path
            d="M216.6 20.3c1.3.8 3.2 1.6 5.3 2.4-.2-.9-.9-1.7-2.1-2.5-1.3-.7-3.1-1.4-5.6-2.1.2.7 1.1 1.4 2.4 2.2zM68.5 266c-3.6-2.6-7-5.4-10.3-8.3-1.4-1.2-2.7-2.3-4.1-3.5-.3-.4-.6-.9-.8-1.3.3-.8-.4-1.7-1.5-2.7-1.1-1-2.7-2-4.3-3-2.7-2.8-3.7-3.3-5.1-2.5 1.2 1.4 2.4 2.8 3.5 4 1 1.5 1.9 2.8 3 4.2-2.3-2.6-4.3-5.4-6.5-8.2-1.5-1.7-2.9-2-3.5-1.4l2.1 3.3c.8 1.1 1.6 2.1 2.3 3.2.2 1.6-1 1.2-1.3 1.4.6.7 1.1 1.3 1.7 2 .6.7 1.2 1.3 1.9 2 1.3 1.3 2.6 2.7 4 4 1.4 1.3 2.8 2.6 4.3 4 1.5 1.3 3 2.6 4.6 3.9.6.5 1.2 1 1.9 1.4.7.4 1.3.9 2 1.3 1.3-.4 2.6-.9 3.9-1.4-.3-.2-.4-.3-.7-.6 1.2-.7 2-1.2 2.9-1.8zm-17.4-9.4c-.9-1.1-1.8-2.3-2.7-3.4 1.2 1.3 2.3 2.9 3.7 4.2.4.4.8.8 1.2 1.1-.8-.4-1.6-1-2.2-1.9zM68.4 270c.3.9 1.2 1.8 2.6 2.9.7.5 1.6 1 2.6 1.6 1 .6 2.3 1.1 3.7 1.7.5-.3-.9-1.5-1.3-2.3-1.8-1.2-3.7-2.7-7.6-3.9zm-11.8-54.2c.6 1.3 1.3 2.6 1.8 3.8.3.5.6.9.8 1.2.8 1.1 1.7 2.3 2.6 3.5 6 2.9-2.6-5.1-2.9-7.8-.5.4-1.9-1.6-2.3-.7zM206.9 14c-2-1.5-3.9-2.8-5.7-3.5-1.8-.7-3.4-1-4.5-.6.5 1.6 4.3 2.7 10.2 4.1z"
            transform="matrix(.9231 0 0 .9231 .062 -.092)"
          ></path>
          <path
            d="M308.3 158.7c-.1-.9-.3-1.9-.4-3.2-.1-1.3-.1-2.8-.1-4.7-.1-.1-.2-.1-.3-.2-.5-.2-1-.5-1.5-.7-.2-1.8-.4-3.3-.6-4.9-1.1.3-2.2.8-3.3 1.2-.7-.1-1.5-.1-2.3 0-.6-.3-.9-.4-1.5 2.9-.6.8-1.2 1.8-1.8 2.7-.7 0-1.5-.1-2.3-.1-1.2-1.1-2.6-2.2-3.9-3.4-.4-1.4-.8-1.7-1-2.8-.7-.3-1.5-.6-2.2-.8-.9-.2-1.9-.2-2.9-.2-.5 0-1.5-1.2-1.6.2-.8.7-1.7 1.3-2.5 2.2-.2-.5-.5-.8-.7-1 .1 12.2-1.5 24.5-5.1 36.2.2 1.3-2.1 4.1-.6 4-1 6.6-3.7 12.2-6.3 18.1 1.7.7.9 2.4-.5 4.2-1.3 1.8-3 3.8-2.8 5.5-1.6.5-2.4 2.2-3.4 4-1 1.8-2 3.9-3.9 4.8-4.2 6.7-10.4 13.5-16.2 18.3-1.6 1.7-3.2 3.3-5 4.7-.9.7-1.8 1.4-2.8 2.1-.9.7-1.9 1.4-2.9 2-2 1.3-4 2.6-6.2 3.7l-3.3 1.8c-1.1.6-2.3 1.2-3.5 1.8.1.8-1.6 1.3-1.8 2.3-1.8.9-3.7 1.7-5.6 2.6-1.9.8-3.9 1.6-5.8 2.4-1.6.6-3.3 1.2-5.1 1.9-1.8.6-3.8 1.1-5.7 1.7-3.9 1-7.9 1.9-11.4 2.4-.6.8-3.3.3-3.2 2.1-1-.3-2.1-.5-3.4-.4-.6 0-1.3.2-2 .4s-1.4.4-2.2.8c-1.6-.5-5.3.6-5.2-.7-1 .1-3.1-.2-3.1.4-.6.3-1.3.4-2.2.4-.8 0-1.7-.1-2.5-.1-1.4.3-2.6.5-4.1.8 1-1.3-3.3-1.3-3.6-.9-.6.3-1.6.2-2.7.2s-2.2 0-3.1.7c-.3 0-.5-.1-.8-.1-1-.7-2-1.2-2.9-1.4-.9-.2-1.7-.2-2.3.4-.8-.2-1.4-.6-2.3-.8-.9-.2-2.1-.1-4.1.5-.8-.1-1.7-.2-2.4-.2 1.3-.8-1.2-1-.7-1.8-1.3.1-2.9-.2-4.5-.6-1.6-.4-3.3-.9-5-1.5-1.7-.6-3.3-1.2-4.9-1.7-1.6-.6-3-1-4.4-1.1-1.9-.8-3.6-1.6-5.5-2.5-1.3-.5-2.8-1.4-4.3-2.1-1.5-.7-3-1.3-4.5-1.5-.4-.2-.8-.5-1.4-.8-3.8-2.3-8.2-6.2-14.2-8.9-1.8-1.5-3.5-3.1-5.1-4.7-.8-.8-1.6-1.6-2.4-2.3-.8-.7-1.6-1.5-2.4-2.2-1.1-1.2-1.5-2.1-1.7-3 0-.1 0-.2-.1-.3-8.4-6.5-15-14.4-20.8-23.2-.9-.4-1.8-.6-2.6-.9-.9-.7-1.9-1.6-2.7-2.4-.2-.4-.4-.9-.7-1.4-3.7-7.7-7.2-17.2-9.6-25.4-.2-.1-.5-.4-.8-.6-.3-.8-.5-1.7-.7-2.8-.2-1.1-.5-2.6-.7-4.6.3-.1.6-.1 1-.2-3.9-15.5-5-31-2.9-46.9l.5.5c.4-4.2 1.1-8.3 1.9-12.3v-.1c.1-.2.1-.5.2-.7 5.5-25 19.1-47.9 37.9-65.4-1 1-1.5 2-2.5 3 16.5-17 37-28 60.5-33.5 6-1 12-2.5 18-2 8.5 0 17.5 0 26 .5l-.5.5c11.5 1 22.5 5 33.5 9-1.5-.5-3.5-1-5-1.5 15.5 6 30 14 42 26 2.7 3.1 5.4 5.9 8.1 8.8h.4c1.4-.5 1.6-2.2 1.8-3.3-1-1.5-2.2-2.8-3.4-4.3-.7-1.1-1.3-2.1-2.2-3.2-2-1.9-4.2-3.9-6.3-5.6-.7-.9-1.5-1.7-2.3-2.6-.8-.8-1.7-1.6-2.5-2.4-1.7-1.7-3.6-3.1-5.5-4.6l-1.4-1.1-1.5-1c-1-.7-1.9-1.4-2.9-2.1-1.9-1.4-3.9-2.6-5.6-4-.8-.9-2.7-1.8-4.5-2.8-.5-.2-.9-.5-1.4-.7-.4-.2-.9-.4-1.3-.6-.8-.4-1.4-.8-1.8-1.2-.8-.4-1.7-.8-2.5-1.2-.8-.4-1.7-.7-2.5-1-.9-.4-2-.8-2.9-1.2.6-1.7-3.6-2.7-5.1-2.5l-1.9-.7-1.9-.6-3.8-1.1c-1.3-.4-2.6-.6-3.9-1-1.3-.3-2.6-.7-3.9-.9-1.3-.3-2.6-.7-3.9-1-.2-.7-1.4-1.3-2.9-1.5-1.5-.2-3.2-.2-4.2.1-.8-.1-1.7-.2-2.5-.3-1.9-.6-4.1-1.2-6.2-1.8 1.2-1-1.5-1.2-.6-1.9.8-.6 1.4-1.2 2-1.8 1.2-.1 2.5-.1 4.1-.2 1.6-.2 3.6-.3 6.2-.6l3 .6c1 .2 1.9.5 2.9.7 1 .2 1.9.5 2.9.7.5.1 1 .2 1.4.4.5.1 1 .3 1.4.4.1.7 1.2 1.4 2.9 1.8 1.7.4 4 .8 6.7.8-1.7-1-3.4-2-5.2-2.8.1-.4.3-.8.4-1.3 0-.1.1-.2.1-.3-.8-.3-1.7-.7-2.5-1-1.4-.3-2.8-.7-4.2-1-2-.2-1.4 1.1-3 1.4-.9-.4-1.4-1.1-2.1-1.7-.7-.6-1.7-1.2-3.4-1.2-1.6-.2-3.4-.3-5.2-.4-1.6-.1-3.4-.1-5.1-.2 0 .1 0 .3-.1.3-1.3.3-2.4.6-3.7 1-1.2-.1-2.4-.1-3.7-.1-1.2 0-2.5-.1-3.7 0-2.5.1-4.9 0-7-.2-8.2.2-16.4 1.2-24.4 2.9-.9-.5-2.3-.5-3.8-.1s-2.9 1.1-3.9 1.7c-10.2 2.7-20.2 6.6-29.6 11.6-1.5.2-2.6-.4-4.3 1-.9 1.1-2.9 2-3.2 3.4-1.2.6-2.4 1.1-3.6 1.7-1.1.6-2.3 1.2-3.4 1.8-1.6 1-3.3 2-4.8 3.1-1.6 1.1-3.2 2.1-4.7 3.3-1.4.9-2.9 1.9-4.4 2.9-1 1.1-1.8 2.2-2.9 3.4-.9.9-1.9 1.7-2.8 2.6-.9.9-1.8 1.9-2.8 2.9-.8.6-1.7 1.3-2.4 2.1-.8.8-1.4 1.6-1.7 2.3-1.3 1.2-2.7 2.4-3.9 3.6.7-1.8-1.4-1.1-.8-3.1-1.2.4-2.4 2.6-3.5 3.8-.5 1.3-.9 2.5-1.3 3.8-.1.1-.3.4-.4.6-.4-1.1-1.5-.1-2.3.5-.6.8-1.1 1.5-1.6 2.4-.5 1-1.1 2.2-1.7 4-1.3 1.4-2.1 1.9-2.8 2.6-1 2.1-3.5 4.7-3.1 6.5-.8 1.7-1.5 3.2-2.3 5-1.1 1.7-2 3.6-3 5.4-.6.5-1.1 1.5-1.6 2.5-.4 1.1-.8 2.2-1.3 3.2-.1 1.6-.2 3.2-.2 4.9-.6 1.9-1.2 3.7-1.8 5.6-.6 1.9-1 3.7-1.5 5.5-.4 1.3-.7 2.3-1 3.6-1 .4-2.2 3-3.3 4.4-.5 1.8-.7 3.7-.7 6.5-.1.6-.2 1.1-.3 1.8-2 1.6-1.2 6.1-1.5 8 .4 1 .9 1.9 1.3 2.9-1 1.2-.8 3.5-1 5.3-2.8 4.3-2.3 13-1.7 20.6.6 1.3 1.2 2.5 1.9 3.8.2 1.8.3 3.6.5 5.3.2 1.8.5 3.5.7 5.3-.9.4-1.1 2.6-.4 4.6.9.8 1.3 3 1.9 5.3.7 2.3 1.6 4.8 3.4 5.8.2.7.4 1.6.7 2.5.4 1.1.8 2.3 1.1 3.4.7 1.4-.1-2.7.6-1.3.7 1 1.3 2.5 2.1 3.8.8 1.3 1.5 2.3 2.2 2.3.2-1.3 0-2-.6-3.1-.5-1.1-1.4-2.7-2.8-5.7 1.1-2.5-2.4-9.6-2.2-13.9-.8-1.6-1.5-3.3-2.2-5.1-.4-2.4-.6-3.6-.8-5.1-.7-2.2-1.4-4.2-2-6.2 1 .7 1.1-3.3 2-3.5-.1-1.2-.1-2.4-.2-3.6-.1-1.2 0-2.4-.1-3.5 0-2.3-.1-4.7 0-7 .2-1.1.3-2.3.5-3.4.1-1.5.3-2.9.4-4.3.2-1.4.4-2.9.6-4.3.2-.3.5-.6.7-.8.2.6.5 1.2.8 2 1.6-4.4 1.8 1.4 2.7 2.1.5.4 1 .7 1.5 1.1-.2 2.4-.6 5.5.2 7.5-.2.5-.3 1-.4 1.7-.7.5-1 2.5-.9 4.7 0 1.1.1 2.3.3 3.4.2 1.1.5 2 .9 2.7h.9c1.1.5 2.2 1.1 3.3 1.7.3.8.6 1.6 1 2.4.4.8.7 1.6 1.1 2.4.2 1.8.3 2.8.5 4 .3 0 .7 0 1.6-.1.3 1.5.5 3 .7 4.3.2 1.3.6 2.5 1.3 3.4.4 1.8.8 3.5 1.2 5.3l1.5 5.4c.5 2.1 1.3 4.3 1.9 6.4.7 2.1 1.5 4.2 2.1 6.3.6 1.9 1.3 3.7 1.9 5.5.6 1.9 1.5 3.6 2.2 5.5.6 1.6 1.4 3.2 2.1 4.7.7 1.6 1.4 3.1 2.2 4.7.2 1.3.6 2.9 1.3 4.5.8 1.6 1.8 3.2 3.1 4.6.8.3 1.6.5 2.5.9.4.5.9 1.2 1.3 1.9-1.8-.4-.3 1.6-.3 2.4 1.1 1.3 2.4 2.5 3.6 3.7.1 1.2 0 2.2.1 3.3 1.7 2 3.2 3.8 4.9 5.7 1 1.7 3 2 3.7 2.6.9.8 1.8 1.6 2.8 2.4l3 2.4c3.1 2.7 3.1 4 4.7 6.3-1 0-1.9 0-3-.1-.3.2-.6.4-.8.5.9.8 1.7 1.5 2.5 2.2 4.2 3 3.9.1 7.5 1.8 1.5.9 2.8 1.8 4.3 2.8 1.1.8 2.2.5 5 2.9 1.8-.3 2.7.4 3.7 1.4 1 1 2.1 2.4 4.2 3.2-.5.4-1 .9-1.5 1.4-1.2-.7-2.5-1.4-3.7-2-1.3-.7-2.5-1.3-3.7-2.1-.1.1-.2.2-.3.2.2.9.5 1.8.7 2.7 2.1 1.1 4 2.1 6.1 3.2 2.2 1.1 4.6 2.4 6.8 3.5 1.8.8 3.9 1.6 5.8 2.3 2.3.9 4 1.6 5.5 2.2 1.4 1 2.9 1.8 4.2 2.6 1.2 0 2.5.2 3.8.4 1.3.2 2.7.4 4.2.8 3 .7 6.5 1.3 10.7 2 1.9.5 4 1 5.8 1.4l-1.8 3.3c-1.8-.3-3.6-.6-5.3-1-1.6-.4-3.1-.9-4.6-1.3-.8-.2-1.5-.4-2.3-.6-.8-.2-1.5-.5-2.3-.7-.2.3-.5.7-.8 1.1-1-.1-1.9-.3-2.7-.4-1.9-1.2-3.8-2.5-5.6-3.8-.7.1-1.5.2-2.2.2-4.7-1.2-6.3-1.4-6.8.1-1.5-.4-3-.8-4.5-1.3-3.1-1.6-6.7-3.7-12.8-5.3.3.6.9 1.2 1.6 1.7.8.5 1.7 1 2.8 1.5s2.3 1 3.6 1.5c1.3.5 2.7.9 4.1 1.3 1 .5 2 1 3 1.4l3.1 1.3c2.1.9 4.1 1.8 6.2 2.5.6.1 1.3.1 1.8.3.3-.3.6-.7.8-1.1 1.2.4 2.3.8 3.6 1.2 1.3 1.2 3.3 1.9 5.6 2.4 2.3.4 5 .6 7.5 1l4.8.9c1.6.3 3.2.6 4.8.8 1.9.1 3.9.2 5.6.4l7.5.3c1.1.2 2.4.3 3.5.5.9 0 1.7 0 2.6.1.9.2 1.7.4 2.6.7-.2.5-.3.9-.5 1.3 0 .1-.1.2-.1.3 2.6 1.4 3.8 1.3 6.2.2 1 0 1.9-.1 2.8-.1.9-.1 1.8-.1 2.8-.2 1.1-.5 2.2-1 3.1-1.5.7.1 1.3.1 1.8.2 1.4.5 1.2 1.1 2.3 1.3 3.1-.5 6.4-1 9.3-1.7 2.5-.5 5.4-1 5.4-.1 1.2-.3 2.5-.5 4.1-.9.8-.2 1.7-.4 2.8-.8 1-.4 2.1-.8 3.3-1.4 1.5-.9 3.1-1.8 4.6-2.7.7-.2 3.7 0 5.4-2.5-.5-.4-1.1-.8-1.8-1.1.9-.7 1.8-1.5 2.7-2.3 2.9-1.1 5.7-2.2 8.5-3.5.7.3 1.6.3 2.6.2.8-.4 1.7-.8 2.6-1.2.9-.4 1.8-.8 2.6-1.3 1.7-.9 3.2-1.9 3.8-3.4 1.1-.5 2-1.1 3.1-2 1.1-.9 2.5-2.1 4.6-4 .8-.5 1.5-.9 2.3-1.4 1.6-.9 3.2.2 5.7-2.4 1.6-1.1 2.9-2.1 3.4-4 .6-1.1 1.1-1.9 1.7-3 1.9-1.6 3.7-3.4 5.5-5.2 1.8-1.7 3.5-3.6 5.2-5.4.5-.3.9-.6 1.5-1 1.7-.7 3-1.5 4.8-3.6.7-1.8 4.4-4.4 4-7.4 1-1.2 1.8-2.5 2.7-3.8.9-1 1.7-2 2.6-3.1.8-1 1.7-2.1 2.5-3.3.9-.4 1.8-1.4 2.7-2.8.8-1.4 1.7-3.1 2.5-4.9 1.2-1.7 2-3.2 2.6-4.7.6-1.5.9-2.9 1-4.5.5-1.1 1.6-2.5 1-4 1.2-2.4 2.9-5.3 3.1-10.3.6-1.6 1.3-3.3 2-5.1 2.2-1.7 2.4.4 4.4-.7.4-2.2.8-4.5 1.2-6.7.7-3.2.7-5.2 1.6-7.6.1-1.3 0-2.9 0-4.2.4-1.7.8-3.5 1.2-4.9.3-1.5.4-2.7.2-3.3.4-2.4.3-4 0-5.8zM191 17.8c.5.2 1 .3 1.5.4.5.1 1 .3 1.6.4-1.6-.5-3.4.1-4.7-1.1 0-.1-.2-.2-.3-.4.6.3 1.2.5 1.9.7zM18.2 135.2c.1-.9.2-1.7.2-2.6 0 .8-.1 1.7-.2 2.6zM24.4 71c.5-.9 1.1-1.7 1.7-2.4-.3.8-.7 1.6-1.7 2.4zm165.4 215.5c-.1 0-.2 0-.4.1l.9-.3c-.2 0-.3.1-.5.2zm85.4-55.6c.5-.9 1-1.8 1.5-2.9.3-.7.7-1.4 1.1-2.2-.5 1.3-1.1 3-2.6 5.1zm9.1-14.5c-.6 1-1.2 2.2-1.7 3.2.6-1.5 1.3-2.9 2-4.3 0 .4-.2.7-.3 1.1zm2.9-4.3l-.2.2c.1-.1.2-.1.2-.2.1-.2.2-.4.4-.6-.1.2-.2.4-.4.6z"
            transform="matrix(.9231 0 0 .9231 .062 -.092)"
          ></path>
        </g>
        <path
          fill="#0A0A0A"
          d="M-60.78 5.21c.57 1.4 1.48 2.64 2.75 3.72 1.26 1.08 2.74 1.62 4.43 1.62 2.25 0 3.7-.49 4.36-1.48.66-.98.98-2.41.98-4.29l-.56-33.48c7.41 1.13 13.2 1.9 17.38 2.32 4.17.42 7.29.73 9.35.92l3.87.35c.52.04.82.26.92.63 1.59-.19 3.07-.68 4.43-1.48 1.36-.79 2.04-2.13 2.04-4.01 0-1.03-.5-2.13-1.48-3.3s-2.09-1.85-3.31-2.04l-27.29-2.82-1.27-.7c5.35-6.47 9.74-11.75 13.16-15.83s6.14-7.36 8.16-9.84c2.02-2.49 3.47-4.27 4.36-5.35.89-1.08 1.48-1.81 1.76-2.18.09-.19.21-.49.35-.92.14-.42.21-.72.21-.91 0-2.16-.7-3.66-2.11-4.5-1.41-.85-3.09-1.5-5.06-1.97-1.32.28-2.4.84-3.24 1.69-.84.84-1.59 1.78-2.25 2.81-.66 1.03-1.29 2.11-1.9 3.24-.61 1.12-1.24 2.11-1.9 2.95l-16.18 18.43h-.56v-41.08c0-1.03-.31-1.9-.92-2.6-.6-.71-1.33-1.29-2.18-1.76-.84-.47-1.75-.82-2.74-1.06-.98-.23-1.85-.35-2.6-.35-1.03-.19-1.88.21-2.53 1.2-.66.98-.99 1.94-.99 2.88.19.1.31 1.97.35 5.63.05 3.66.07 8.28.07 13.86s-.04 11.74-.14 18.5c-.09 6.75-.16 13.34-.21 19.76-.05 6.43-.09 12.31-.14 17.66-.05 5.35-.02 9.33.07 11.96 0 .47.02 1.24.07 2.32.05 1.08.1 2.25.14 3.52.05 1.26.12 2.46.21 3.58.1 1.13.14 1.93.14 2.4zm54.59-26.73v.42c0 2.44.28 4.92.84 7.45.57 2.54 1.48 4.81 2.75 6.83C-1.34-4.81.3-3.14 2.32-1.83S6.75.14 9.57.14c3.09 0 6.14-1.03 9.14-3.09 3-2.07 5.7-4.65 8.09-7.74 2.39-3.1 4.31-6.38 5.77-9.85 1.45-3.47 2.18-6.61 2.18-9.43 0-2.34-.31-5.06-.92-8.16a34.64 34.64 0 00-2.88-8.65c-1.31-2.67-3.02-4.95-5.13-6.82-2.11-1.88-4.67-2.81-7.67-2.81-1.31 0-2.42.21-3.31.63-.89.42-1.9.63-3.02.63h-.14c-.85-1.69-1.88-3.12-3.1-4.29-1.22-1.17-2.86-1.76-4.92-1.76-1.13 0-2.14.28-3.03.85-.89.56-1.43 1.45-1.61 2.67zm11.82.84v-.42c0-2.72.21-5.7.63-8.94.42-3.23 1.2-6.07 2.32-8.51 1.97-3.94 3.94-6.35 5.91-7.24 1.97-.89 3.73-.75 5.28.42 1.54 1.17 2.74 3.09 3.58 5.77.85 2.67 1.08 5.6.71 8.79 0 1.97-.42 3.85-1.27 5.63a26.05 26.05 0 01-3.16 5.06c-1.27 1.6-2.61 3.1-4.01 4.5-1.41 1.41-2.72 2.68-3.94 3.8-1.32.47-2.32.45-3.03-.07-.7-.51-1.24-1.26-1.62-2.25-.37-.98-.65-2.09-.84-3.3-.19-1.22-.37-2.3-.56-3.24zm15.75 43.89c.75 1.69 1.95 3.17 3.59 4.43 1.64 1.27 3.5 2.28 5.56 3.03 2.06.75 4.17 1.31 6.33 1.69 2.16.37 4.17.56 6.05.56.56 0 1.12-.14 1.69-.42.56-.28 1.12-.33 1.69-.14 3.37-1.03 6.19-2.7 8.44-5 2.25-2.29 4.03-4.92 5.34-7.88 1.32-2.95 2.23-6.07 2.75-9.35.51-3.28.77-6.47.77-9.57-.56-8.44-1.1-15.82-1.62-22.16-.51-6.33-.98-11.77-1.4-16.31-.43-4.55-.8-8.4-1.13-11.54-.33-3.14-.59-5.77-.77-7.88-.19-2.11-.33-3.84-.43-5.2a57.26 57.26 0 01-.14-3.73c-1.03-1.78-2.15-2.93-3.37-3.45-1.22-.52-2.77-.77-4.65-.77-1.5 0-2.6.47-3.3 1.4-.71.94-1.06 2.11-1.06 3.52.94 10.13 1.71 18.74 2.32 25.82.61 7.08 1.13 12.96 1.55 17.65.42 4.69.73 8.42.92 11.19.18 2.76.35 4.85.49 6.26.14 1.4.21 2.32.21 2.74v.92c0 1.87-.16 4.22-.49 7.03-.33 2.81-.99 5.51-1.97 8.09-.99 2.58-2.32 4.78-4.01 6.61s-3.85 2.74-6.47 2.74c-1.22-.18-2.47-.72-3.73-1.61-1.27-.89-2.53-1.81-3.8-2.75-1.27-.93-2.44-1.78-3.52-2.53-1.08-.75-2.04-1.1-2.88-1.05-.85.04-1.55.65-2.11 1.82-.56 1.18-.85 3.12-.85 5.84zm17.73-125.63c0 .75.26 1.48.77 2.18.52.71 1.18 1.34 1.97 1.9.8.56 1.62 1.01 2.47 1.34.84.33 1.59.49 2.25.49.93 0 2.04-.26 3.3-.77 1.27-.52 1.9-1.39 1.9-2.61 0-2.15-.79-3.75-2.39-4.78-1.59-1.03-3.28-1.55-5.06-1.55-1.13 0-2.28.26-3.45.78-1.17.51-1.76 1.52-1.76 3.02z"
          transform="translate(141.413 176.215)"
          className="0"
        ></path>
      </g>
    </svg>
