<svg width="272" height="342" viewBox="0 0 272 342" fill="none" xmlns="http://www.w3.org/2000/svg">
<path d="M34.3678 341.624H17.2158V0.375977H34.3678V341.624Z" fill="#D1D8DE"/>
<path d="M220.48 341.624H29.7603V0.375977H271.168V291.064L220.48 341.624Z" fill="#EFF2F4"/>
<path d="M0.832031 136.568V36.856L17.216 52.984V152.824L0.832031 136.568Z" fill="#D44013"/>
<path d="M220.48 291.064H271.168L220.48 341.624V291.064Z" fill="#CFD8DF"/>
<path d="M0.832031 136.568V36.856H180.672V136.568H0.832031Z" fill="#FE5722"/>
<path d="M47.5523 73.2079L41.4083 92.2799H53.8243L47.5523 73.2079ZM42.1763 64.2479H52.8003L68.9283 109.048H59.2003L56.1283 99.8319H38.8483L35.9043 109.048H26.1763L42.0483 64.2479H42.1763ZM90.1763 73.2079L84.0323 92.2799H96.4483L90.1763 73.2079ZM84.8003 64.2479H95.4243L111.552 109.048H101.824L98.7523 99.8319H81.4723L78.5283 109.048H68.8003L84.6723 64.2479H84.8003ZM155.2 93.6879C154.816 98.8079 152.896 102.776 149.312 105.848C145.728 108.792 141.12 110.328 135.36 110.328C128.704 110.328 123.584 108.28 119.872 104.184C116.16 100.088 114.368 94.1999 114.368 86.7759C114.368 79.2239 116.288 73.3359 120 69.2399C123.712 65.1439 129.088 63.2239 136.128 63.2239C141.888 63.2239 146.368 64.6319 149.696 67.4479C153.024 70.2639 154.816 74.2319 155.2 79.2239H146.112C145.728 76.6639 144.704 74.7439 143.04 73.4639C141.376 72.1839 139.072 71.4159 136.256 71.4159C132.16 71.4159 129.088 72.6959 127.04 75.3839C124.992 77.9439 123.84 81.7839 123.84 86.7759C123.84 91.6399 124.864 95.3519 127.04 98.0399C129.088 100.728 132.16 102.008 136 102.008C138.816 102.008 141.12 101.24 142.912 99.8319C144.704 98.4239 145.856 96.3759 146.368 93.6879H155.328H155.2Z" fill="white"/>
<path fill-rule="evenodd" clip-rule="evenodd" d="M151.105 189.048C164.417 189.048 176.961 194.296 186.305 203.64C195.649 212.984 200.897 225.656 200.897 238.84C200.897 252.152 195.649 264.696 186.305 274.04C176.961 283.384 164.289 288.632 151.105 288.632C137.793 288.632 125.249 283.384 115.905 274.04C106.561 264.696 101.312 252.024 101.312 238.84C101.312 225.528 106.561 212.984 115.905 203.64C125.249 194.296 137.921 189.048 151.105 189.048ZM180.673 209.272C172.865 201.464 162.241 196.984 151.105 196.984C139.969 196.984 129.473 201.336 121.537 209.272C113.729 217.08 109.249 227.704 109.249 238.84C109.249 249.976 113.601 260.472 121.537 268.408C129.345 276.216 139.969 280.696 151.105 280.696C162.241 280.696 172.737 276.344 180.673 268.408C188.481 260.6 192.961 249.976 192.961 238.84C192.961 227.704 188.609 217.208 180.673 209.272Z" fill="#78909C"/>
<path d="M151.104 191.48C164.16 191.48 176.064 196.728 184.64 205.304C193.216 213.88 198.464 225.784 198.464 238.84C198.464 251.896 193.216 263.8 184.64 272.376C176.064 280.952 164.16 286.2 151.104 286.2C138.048 286.2 126.144 280.952 117.568 272.376C108.992 263.8 103.744 251.896 103.744 238.84C103.744 225.784 108.992 213.88 117.568 205.304C126.144 196.728 138.048 191.48 151.104 191.48ZM182.336 207.608C174.4 199.672 163.264 194.68 151.104 194.68C138.944 194.68 127.808 199.672 119.872 207.608C111.936 215.544 106.944 226.68 106.944 238.84C106.944 251 111.936 262.136 119.872 270.072C127.808 278.008 138.944 283 151.104 283C163.264 283 174.4 278.008 182.336 270.072C190.272 262.136 195.264 251 195.264 238.84C195.264 226.68 190.272 215.544 182.336 207.608Z" fill="#90A4AE"/>
<path d="M134.464 209.784L182.208 239.736L134.464 269.816V209.784Z" fill="#F74E1B"/>
</svg>
