<svg width="272" height="342" viewBox="0 0 272 342" fill="none" xmlns="http://www.w3.org/2000/svg">
<path d="M34.3678 341.624H17.2158V0.375977H34.3678V341.624Z" fill="#D1D8DE"/>
<path d="M220.48 341.624H29.7603V0.375977H271.168V291.064L220.48 341.624Z" fill="#EFF2F4"/>
<path d="M0.832031 136.568V36.856L17.216 52.984V152.824L0.832031 136.568Z" fill="#DE8200"/>
<path d="M220.48 291.064H271.168L220.48 341.624V291.064Z" fill="#D1D8DE"/>
<path d="M0.832031 136.568V36.856H180.672V136.568H0.832031Z" fill="#FB9200"/>
<path d="M83.648 73.336L77.504 92.408H89.92L83.648 73.336ZM78.272 64.376H88.896L105.024 109.176H95.296L92.224 99.96H74.944L72 109.176H62.272L78.144 64.376H78.272ZM110.016 109.176V64.376H119.232V109.176H110.016Z" fill="white"/>
<path d="M105.408 193.144C118.592 194.04 130.368 199.672 138.816 207.992C147.264 216.312 152.384 227.448 152.384 239.736C152.384 250.488 156.864 260.344 164.16 267.896C171.584 275.576 182.08 280.696 193.856 281.976L193.472 286.2C180.672 284.92 169.28 279.288 161.216 270.968C153.152 262.648 148.16 251.768 148.16 239.864C148.16 228.728 143.424 218.744 135.872 211.192C128.064 203.512 117.312 198.52 105.152 197.624L105.408 193.4V193.144Z" fill="#A4A9AD"/>
<path fill-rule="evenodd" clip-rule="evenodd" d="M155.584 240.76H143.424V228.6H155.584V240.76Z" fill="#333E48"/>
<path fill-rule="evenodd" clip-rule="evenodd" d="M201.536 288.376H189.376V276.216H201.536V288.376Z" fill="#333E48"/>
<path fill-rule="evenodd" clip-rule="evenodd" d="M112.448 201.72H100.288V189.56H112.448V201.72Z" fill="#333E48"/>
</svg>
