<svg width="272" height="342" viewBox="0 0 272 342" fill="none" xmlns="http://www.w3.org/2000/svg">
<path d="M34.3678 341.624H17.2158V0.375977H34.3678V341.624Z" fill="#D1D8DE"/>
<path d="M220.48 341.624H29.7603V0.375977H271.168V291.064L220.48 341.624Z" fill="#EFF2F4"/>
<path d="M0.832031 136.568V36.856L17.216 52.984V152.824L0.832031 136.568Z" fill="#CC2929"/>
<path d="M220.48 291.064H271.168L220.48 341.624V291.064Z" fill="#CFD8DF"/>
<path d="M0.832031 136.568V36.856H180.672V136.568H0.832031Z" fill="#E24040"/>
<path d="M64.7041 73.336L58.5601 92.408H70.9761L64.7041 73.336ZM59.3281 64.376H69.9521L86.0801 109.176H76.3521L73.2801 99.96H56.0001L53.0561 109.176H43.3281L59.2001 64.376H59.3281ZM100.16 109.176L84.6721 64.376H94.9121L104.384 97.912L114.112 64.376H124.224L108.992 109.176H100.16ZM128.832 109.176V64.376H138.048V109.176H128.832Z" fill="white"/>
<path d="M111.424 189.176L192.32 238.968L111.424 288.632V189.176Z" fill="#E24040"/>
</svg>
