<svg width="272" height="342" viewBox="0 0 272 342" fill="none" xmlns="http://www.w3.org/2000/svg">
<path d="M34.3678 341.624H17.2158V0.375977H34.3678V341.624Z" fill="#D1D8DE"/>
<path d="M220.48 341.624H29.7603V0.375977H271.168V291.064L220.48 341.624Z" fill="#EFF2F4"/>
<path d="M0.832031 136.568V36.856L17.216 52.984V152.824L0.832031 136.568Z" fill="#2963B3"/>
<path d="M220.48 291.064H271.168L220.48 341.624V291.064Z" fill="#CFD8DF"/>
<path d="M0.832031 136.568V36.856H180.672V136.568H0.832031Z" fill="#366FC0"/>
<path d="M35.7758 100.984H46.6558C49.2158 100.984 51.1358 100.472 52.2878 99.5759C53.4398 98.6799 54.0798 97.1439 54.0798 95.2239C54.0798 93.1759 53.4398 91.6399 52.2878 90.7439C51.1358 89.8479 49.2158 89.3359 46.5278 89.3359H35.6478V100.984H35.7758ZM35.7758 81.6559H46.2718C48.5758 81.6559 50.2398 81.2719 51.2638 80.5039C52.2878 79.7359 52.7998 78.4559 52.7998 76.7919C52.7998 75.1279 52.2878 73.9759 51.2638 73.2079C50.2398 72.4399 48.5758 72.0559 46.1438 72.0559H35.6478V81.6559H35.7758ZM26.9438 109.048V64.2479H48.0638C52.6718 64.2479 56.1278 65.2719 58.5598 67.1919C60.9918 69.1119 62.1438 71.9279 62.1438 75.6399C62.1438 77.9439 61.7598 79.7359 60.8638 81.2719C59.9678 82.8079 58.6878 83.9599 56.8958 84.7279C59.1998 85.6239 60.9918 87.0319 62.0158 88.8239C63.1678 90.6159 63.6798 92.7919 63.6798 95.3519C63.6798 99.7039 62.2718 103.032 59.4558 105.464C56.6398 107.896 52.5438 109.048 47.4238 109.048H27.0718H26.9438ZM70.7198 109.048V64.2479H84.2879L93.2479 98.2959L102.08 64.2479H115.776V109.048H107.2V72.9519L98.1119 109.048H88.6399L79.4239 72.9519V109.048H70.8478H70.7198ZM134.208 84.9839H143.168C145.6 84.9839 147.264 84.4719 148.416 83.4479C149.568 82.4239 150.08 80.7599 150.08 78.4559C150.08 76.2799 149.568 74.7439 148.416 73.5919C147.392 72.4399 145.728 71.9279 143.552 71.9279H134.208V84.8559V84.9839ZM134.208 93.0479V108.92H124.992V64.1199H144.832C149.568 64.1199 153.024 65.3999 155.456 67.8319C157.888 70.2639 159.04 73.8479 159.04 78.5839C159.04 83.1919 157.888 86.7759 155.456 89.2079C153.152 91.7679 149.696 92.9199 145.344 92.9199H134.08L134.208 93.0479Z" fill="white"/>
<path fill-rule="evenodd" clip-rule="evenodd" d="M100.416 189.176H202.176V288.504H100.416V189.176Z" fill="#999999"/>
<path d="M183.872 198.264H118.592C113.714 198.264 109.76 202.218 109.76 207.096V270.328C109.76 275.206 113.714 279.16 118.592 279.16H183.872C188.75 279.16 192.704 275.206 192.704 270.328V207.096C192.704 202.218 188.75 198.264 183.872 198.264Z" fill="#FFCC99"/>
<path fill-rule="evenodd" clip-rule="evenodd" d="M152.64 262.392C152.768 264.44 153.792 272.12 155.84 272.76C156.608 275.192 160.192 277.368 160.32 277.624C161.856 278.136 162.624 279.16 164.288 279.288H165.056H183.872C188.736 279.288 192.704 275.32 192.704 270.456V228.856C188.352 228.856 187.328 222.2 184.768 219.64C180.416 215.288 176.32 232.44 174.656 236.024C169.408 247.928 162.496 245.496 157.248 248.44C154.432 250.104 152.64 258.808 152.512 261.88V262.264L152.64 262.392Z" fill="#522C06"/>
<path fill-rule="evenodd" clip-rule="evenodd" d="M132.544 252.152C131.648 256.888 129.344 276.472 123.584 279.288H164.928C149.312 274.424 156.096 244.472 146.88 237.432C134.976 228.344 133.824 246.008 132.672 252.152H132.544Z" fill="#663300"/>
</svg>
