<svg width="272" height="342" viewBox="0 0 272 342" fill="none" xmlns="http://www.w3.org/2000/svg">
<path d="M34.3678 341.624H17.2158V0.375977H34.3678V341.624Z" fill="#D1D8DE"/>
<path d="M220.48 341.624H29.7603V0.375977H271.168V291.064L220.48 341.624Z" fill="#EFF2F4"/>
<path d="M0.832031 136.568V36.856L17.216 52.984V152.824L0.832031 136.568Z" fill="#2F84BD"/>
<path d="M220.48 291.064H271.168L220.48 341.624V291.064Z" fill="#CFD8DF"/>
<path d="M0.832031 136.568V36.856H180.672V136.568H0.832031Z" fill="#4A9FD8"/>
<path d="M68.5439 93.6879C68.1599 98.8079 66.2399 102.776 62.6559 105.848C59.0719 108.792 54.4639 110.328 48.7039 110.328C42.0479 110.328 36.9279 108.28 33.2159 104.184C29.5039 100.088 27.7119 94.1999 27.7119 86.7759C27.7119 79.2239 29.6319 73.3359 33.3439 69.2399C37.0559 65.1439 42.4319 63.2239 49.4719 63.2239C55.2319 63.2239 59.7119 64.6319 63.0399 67.4479C66.3679 70.2639 68.1599 74.2319 68.5439 79.2239H59.4559C59.0719 76.6639 58.0479 74.7439 56.3839 73.4639C54.7199 72.1839 52.4159 71.4159 49.5999 71.4159C45.5039 71.4159 42.4319 72.6959 40.3839 75.3839C38.3359 77.9439 37.1839 81.7839 37.1839 86.7759C37.1839 91.6399 38.2079 95.3519 40.3839 98.0399C42.4319 100.728 45.5039 102.008 49.3439 102.008C52.1599 102.008 54.4639 101.24 56.2559 99.8319C58.0479 98.4239 59.1999 96.3759 59.7119 93.6879H68.6719H68.5439ZM92.4799 73.2079L86.3359 92.2799H98.7519L92.4799 73.2079ZM87.1039 64.2479H97.7279L113.856 109.048H104.128L101.056 99.8319H83.7759L80.8319 109.048H71.1039L86.9759 64.2479H87.1039ZM127.552 100.856H134.976C139.2 100.856 142.4 99.7039 144.32 97.5279C146.24 95.3519 147.136 91.6399 147.136 86.6479C147.136 81.6559 146.24 77.9439 144.448 75.6399C142.656 73.3359 139.84 72.0559 136.128 72.0559H127.68V100.856H127.552ZM118.592 108.92V64.1199H136.128C143.04 64.1199 148.16 66.0399 151.488 69.6239C154.816 73.3359 156.608 78.9679 156.608 86.5199C156.608 90.6159 155.968 94.1999 154.688 97.3999C153.408 100.472 151.616 103.032 149.312 104.952C147.52 106.36 145.472 107.384 143.296 108.024C140.992 108.664 137.792 108.92 133.696 108.92H118.72H118.592Z" fill="white"/>
<path fill-rule="evenodd" clip-rule="evenodd" d="M179.008 265.976L160.448 220.28C161.088 218.744 161.472 217.08 161.472 215.416C161.472 209.272 156.864 204.28 150.976 203.384L153.28 193.016L149.056 188.92L145.216 193.016L147.52 203.384C141.632 204.152 137.024 209.272 137.024 215.416C137.024 217.848 137.792 220.152 139.072 222.072L122.944 266.104L124.48 270.968L120 289.4L128.96 272.76L133.824 269.816L150.08 228.216L168 269.816L172.48 272.248L181.824 289.4L176.96 270.456L178.88 266.104L179.008 265.976ZM153.664 215.416C153.664 217.72 151.872 219.512 149.568 219.512C147.264 219.512 145.472 217.72 145.472 215.416C145.472 213.112 147.264 211.32 149.568 211.32C151.872 211.32 153.664 213.24 153.664 215.416ZM149.568 221.688C145.984 221.688 143.168 218.872 143.168 215.288C143.168 211.704 145.984 208.888 149.568 208.888C153.152 208.888 155.968 211.704 155.968 215.288C155.968 218.872 153.152 221.688 149.568 221.688Z" fill="#455A64"/>
<path d="M149.44 203.128C152.768 203.128 155.84 204.536 158.016 206.712C160.192 208.888 161.6 211.96 161.6 215.416C161.6 218.744 160.192 221.816 158.016 224.12C155.84 226.296 152.768 227.704 149.312 227.704C145.984 227.704 142.912 226.296 140.608 224.12C138.432 221.944 137.024 218.872 137.024 215.544C137.024 212.216 138.432 209.144 140.608 206.968C142.784 204.792 145.856 203.384 149.184 203.384L149.44 203.128ZM154.816 210.04C153.408 208.632 151.616 207.864 149.44 207.864C147.392 207.864 145.472 208.76 144.064 210.04C142.656 211.448 141.888 213.24 141.888 215.416C141.888 217.464 142.784 219.384 144.064 220.792C145.472 222.2 147.264 222.968 149.44 222.968C151.488 222.968 153.408 222.072 154.816 220.792C156.224 219.384 156.992 217.592 156.992 215.416C156.992 213.368 156.096 211.448 154.816 210.04Z" fill="#78909C"/>
</svg>
