<svg width="272" height="342" viewBox="0 0 272 342" fill="none" xmlns="http://www.w3.org/2000/svg">
<path d="M34.3678 341.624H17.2158V0.375977H34.3678V341.624Z" fill="#D1D8DE"/>
<path d="M220.48 341.624H29.7603V0.375977H271.168V291.064L220.48 341.624Z" fill="#EFF2F4"/>
<path d="M0.832031 136.568V36.856L17.216 52.984V152.824L0.832031 136.568Z" fill="#7FAD27"/>
<path d="M220.48 291.064H271.168L220.48 341.624V291.064Z" fill="#D1D8DE"/>
<path d="M0.832031 136.568V36.856H180.672V136.568H0.832031Z" fill="#86C129"/>
<path d="M67.7758 93.6879C67.3918 98.8079 65.4718 102.776 61.8878 105.848C58.3038 108.792 53.6958 110.328 47.9358 110.328C41.2798 110.328 36.1598 108.28 32.4478 104.184C28.7358 100.088 26.9438 94.1999 26.9438 86.7759C26.9438 79.2239 28.8638 73.3359 32.5758 69.2399C36.2878 65.1439 41.6638 63.2239 48.7038 63.2239C54.4638 63.2239 58.9438 64.6319 62.2718 67.4479C65.5998 70.2639 67.3918 74.2319 67.7758 79.2239H58.6878C58.3038 76.6639 57.2798 74.7439 55.6158 73.4639C53.9518 72.1839 51.6478 71.4159 48.8318 71.4159C44.7358 71.4159 41.6638 72.6959 39.6158 75.3839C37.5678 77.9439 36.4158 81.7839 36.4158 86.7759C36.4158 91.6399 37.4398 95.3519 39.6158 98.0399C41.6638 100.728 44.7358 102.008 48.5758 102.008C51.3918 102.008 53.6958 101.24 55.4878 99.8319C57.2798 98.4239 58.4318 96.3759 58.9438 93.6879H67.9038H67.7758ZM84.1599 100.984H91.5839C95.8079 100.984 99.0079 99.8319 100.928 97.6559C102.848 95.4799 103.744 91.7679 103.744 86.7759C103.744 81.7839 102.848 78.0719 101.056 75.7679C99.2639 73.4639 96.4479 72.1839 92.7359 72.1839H84.2879V100.984H84.1599ZM75.1998 109.048V64.2479H92.7359C99.6479 64.2479 104.768 66.1679 108.096 69.7519C111.424 73.4639 113.216 79.0959 113.216 86.6479C113.216 90.7439 112.576 94.3279 111.296 97.5279C110.016 100.6 108.224 103.16 105.92 105.08C104.128 106.488 102.08 107.512 99.9039 108.152C97.5999 108.792 94.3999 109.048 90.3039 109.048H75.3278H75.1998ZM129.6 83.8319H140.48C142.784 83.8319 144.576 83.3199 145.6 82.4239C146.752 81.5279 147.264 79.9919 147.264 77.9439C147.264 76.0239 146.752 74.4879 145.6 73.4639C144.576 72.4399 142.912 71.9279 140.864 71.9279H129.6V83.8319ZM120.384 109.048V64.2479H142.144C147.008 64.2479 150.592 65.2719 153.024 67.3199C155.328 69.3679 156.608 72.5679 156.608 76.9199C156.608 79.6079 156.096 81.9119 154.944 83.7039C153.792 85.4959 152.128 86.7759 149.952 87.4159C151.872 88.0559 153.28 89.2079 154.048 90.6159C154.816 92.0239 155.328 94.1999 155.456 97.2719L155.584 102.52V102.648C155.584 105.336 156.224 107 157.376 107.512V108.92H147.264C146.88 108.28 146.752 107.512 146.496 106.616C146.368 105.72 146.24 104.568 146.24 103.288L146.112 98.5519C145.984 95.7359 145.472 93.9439 144.576 92.9199C143.68 91.8959 141.888 91.5119 139.456 91.5119H129.728V108.92H120.512L120.384 109.048Z" fill="white"/>
<path fill-rule="evenodd" clip-rule="evenodd" d="M192.832 252.28L201.664 283C202.688 286.712 200.512 289.144 196.672 288.248L165.568 280.952L192.832 252.28Z" fill="#86C129"/>
<path fill-rule="evenodd" clip-rule="evenodd" d="M116.672 189.048L169.664 239.608C171.712 241.528 171.712 244.728 169.792 246.648C167.872 248.696 164.672 248.696 162.752 246.776L102.08 189.048H100.288V218.872L100.544 219.64L163.264 279.416L191.424 249.848L127.424 188.92H116.672V189.048Z" fill="#86C129"/>
</svg>
