<svg width="272" height="342" viewBox="0 0 272 342" fill="none" xmlns="http://www.w3.org/2000/svg">
<path d="M34.3681 341.624H17.2161V0.375977H34.3681V341.624Z" fill="#D1D8DE"/>
<path d="M220.48 341.624H29.76V0.375977H271.168V291.064L220.48 341.624Z" fill="#EFF2F4"/>
<path d="M0.832031 136.568V36.856L17.216 52.984V152.824L0.832031 136.568Z" fill="#DEA542"/>
<path d="M220.48 291.064H271.168L220.48 341.624V291.064Z" fill="#CFD8DF"/>
<path d="M0.832031 136.568V36.856H180.672V136.568H0.832031Z" fill="#EDB657"/>
<path d="M69.8239 93.6879C69.4399 98.8079 67.5199 102.776 63.9359 105.848C60.3519 108.792 55.7439 110.328 49.9839 110.328C43.3279 110.328 38.2079 108.28 34.4959 104.184C30.7839 100.088 28.9919 94.1999 28.9919 86.7759C28.9919 79.2239 30.9119 73.3359 34.6239 69.2399C38.3359 65.1439 43.7119 63.2239 50.7519 63.2239C56.5119 63.2239 60.9919 64.6319 64.3199 67.4479C67.6479 70.2639 69.4399 74.2319 69.8239 79.2239H60.7359C60.3519 76.6639 59.3279 74.7439 57.6639 73.4639C55.9999 72.1839 53.6959 71.4159 50.8799 71.4159C46.7839 71.4159 43.7119 72.6959 41.6639 75.3839C39.6159 77.9439 38.4639 81.7839 38.4639 86.7759C38.4639 91.6399 39.4879 95.3519 41.6639 98.0399C43.7119 100.728 46.7839 102.008 50.6239 102.008C53.4399 102.008 55.7439 101.24 57.5359 99.8319C59.3279 98.4239 60.4799 96.3759 60.9919 93.6879H69.9519H69.8239ZM76.2239 95.2239H85.3119C85.6959 97.6559 86.7199 99.4479 88.2559 100.728C89.9199 101.88 92.3519 102.52 95.4239 102.52C98.1119 102.52 100.16 102.008 101.44 101.112C102.848 100.216 103.488 98.8079 103.488 96.8879C103.488 94.1999 99.6479 91.8959 91.8399 90.1039H91.5839C91.3279 90.1039 91.0719 89.9759 90.6879 89.8479C86.4639 88.9519 83.5199 87.9279 81.7279 86.7759C80.1919 85.7519 78.9119 84.3439 78.1439 82.6799C77.3759 81.0159 76.8639 78.9679 76.8639 76.6639C76.8639 72.3119 78.3999 68.9839 81.3439 66.6799C84.2879 64.3759 88.5119 63.2239 94.1439 63.2239C99.3919 63.2239 103.488 64.5039 106.432 66.9359C109.376 69.3679 110.912 72.9519 111.04 77.4319H102.208C102.08 75.2559 101.184 73.5919 99.7759 72.4399C98.2399 71.2879 96.1919 70.7759 93.3759 70.7759C90.9439 70.7759 89.1519 71.2879 87.7439 72.1839C86.4639 73.0799 85.8239 74.4879 85.8239 76.1519C85.8239 78.5839 88.3839 80.2479 93.5039 81.5279C94.9119 81.9119 95.9359 82.0399 96.7039 82.2959C99.9039 83.0639 102.336 83.8319 103.616 84.2159C105.024 84.7279 106.176 85.2399 107.2 85.7519C108.992 86.7759 110.4 88.0559 111.296 89.7199C112.192 91.3839 112.704 93.4319 112.704 95.7359C112.704 100.344 111.168 104.056 107.968 106.616C104.768 109.176 100.416 110.456 94.6559 110.456C89.0239 110.456 84.5439 109.176 81.4719 106.488C78.2719 103.928 76.6079 100.216 76.3519 95.3519L76.2239 95.2239ZM118.848 95.2239H127.936C128.32 97.6559 129.344 99.4479 130.88 100.728C132.544 101.88 134.976 102.52 138.048 102.52C140.736 102.52 142.784 102.008 144.064 101.112C145.472 100.216 146.112 98.8079 146.112 96.8879C146.112 94.1999 142.272 91.8959 134.464 90.1039H134.208C133.952 90.1039 133.696 89.9759 133.312 89.8479C129.088 88.9519 126.144 87.9279 124.352 86.7759C122.816 85.7519 121.536 84.3439 120.768 82.6799C120 81.0159 119.488 78.9679 119.488 76.6639C119.488 72.3119 121.024 68.9839 123.968 66.6799C126.912 64.3759 131.136 63.2239 136.768 63.2239C142.016 63.2239 146.112 64.5039 149.056 66.9359C152 69.3679 153.536 72.9519 153.664 77.4319H144.832C144.704 75.2559 143.808 73.5919 142.4 72.4399C140.864 71.2879 138.816 70.7759 136 70.7759C133.568 70.7759 131.776 71.2879 130.368 72.1839C129.088 73.0799 128.448 74.4879 128.448 76.1519C128.448 78.5839 131.008 80.2479 136.128 81.5279C137.536 81.9119 138.56 82.0399 139.328 82.2959C142.528 83.0639 144.96 83.8319 146.24 84.2159C147.648 84.7279 148.8 85.2399 149.824 85.7519C151.616 86.7759 153.024 88.0559 153.92 89.7199C154.816 91.3839 155.328 93.4319 155.328 95.7359C155.328 100.344 153.792 104.056 150.592 106.616C147.392 109.176 143.04 110.456 137.28 110.456C131.648 110.456 127.168 109.176 124.096 106.488C120.896 103.928 119.232 100.216 118.976 95.3519L118.848 95.2239Z" fill="white"/>
<path d="M100.544 234.616C103.232 234.488 105.408 233.848 107.072 232.44C108.736 231.032 109.888 229.24 110.4 226.808C110.912 224.376 111.168 220.408 111.296 214.648C111.296 208.888 111.424 205.048 111.552 203.256C111.808 200.312 112.448 198.008 113.344 196.216C114.24 194.424 115.264 193.016 116.416 191.992C117.696 190.968 119.232 190.2 121.152 189.56C122.432 189.176 124.608 189.048 127.552 189.048H130.496V197.112H128.832C125.248 197.112 122.944 197.752 121.664 199.032C120.512 200.312 119.872 203.256 119.872 207.736C119.872 216.824 119.616 222.456 119.232 224.888C118.592 228.6 117.568 231.416 116.032 233.464C114.496 235.512 112.192 237.176 108.992 238.84C112.832 240.376 115.52 242.808 117.184 246.136C118.848 249.336 119.744 254.712 119.744 262.136C119.744 268.792 119.744 272.888 120 274.168C120.256 276.472 121.024 278.136 122.048 279.032C123.2 279.928 125.376 280.44 128.576 280.44H130.24V288.504H127.296C123.968 288.504 121.536 288.248 120 287.736C117.824 286.968 116.032 285.688 114.496 283.896C113.088 282.104 112.064 279.928 111.68 277.112C111.296 274.424 111.04 269.944 110.912 263.672C110.912 257.528 110.656 253.176 110.016 250.872C109.504 248.44 108.352 246.648 106.688 245.24C105.024 243.832 102.848 243.064 100.16 243.064V234.616H100.544Z" fill="#BF8F3D"/>
<path d="M202.176 234.616V243.064C199.488 243.064 197.312 243.832 195.648 245.24C193.984 246.648 192.832 248.44 192.32 250.872C191.808 253.176 191.424 257.272 191.424 263.032C191.424 268.792 191.296 272.632 191.168 274.424C190.912 277.368 190.272 279.672 189.376 281.464C188.48 283.256 187.456 284.664 186.304 285.688C185.024 286.712 183.488 287.48 181.568 288.12C180.288 288.504 178.112 288.76 175.168 288.76H172.224V280.696H173.888C177.472 280.696 179.776 280.056 181.056 278.776C182.208 277.496 182.848 274.552 182.848 270.072C182.848 261.496 182.976 255.992 183.36 253.688C183.872 249.848 185.024 246.776 186.688 244.472C188.352 242.168 190.656 240.376 193.728 239.096C189.76 237.176 186.944 234.744 185.408 231.544C183.744 228.472 182.976 223.224 182.976 215.8C182.976 209.144 182.848 205.048 182.72 203.768C182.464 201.464 181.824 199.8 180.672 198.904C179.52 198.008 177.344 197.496 174.144 197.496H172.48V189.432H175.424C178.752 189.432 181.184 189.688 182.72 190.2C184.896 190.968 186.688 192.248 188.224 194.04C189.632 195.832 190.656 198.136 191.04 200.824C191.424 203.512 191.68 207.992 191.808 214.264C191.808 220.408 192.064 224.76 192.704 227.064C193.216 229.368 194.368 231.288 196.032 232.696C197.696 234.104 199.872 234.744 202.56 234.872L202.176 234.616Z" fill="#BF8F3D"/>
</svg>
