<svg width="272" height="342" viewBox="0 0 272 342" fill="none" xmlns="http://www.w3.org/2000/svg">
<path d="M34.3681 341.624H17.2161V0.375977H34.3681V341.624Z" fill="#D1D8DE"/>
<path d="M220.48 341.624H29.76V0.375977H271.168V291.064L220.48 341.624Z" fill="#EFF2F4"/>
<path d="M0.832031 136.568V36.856L17.216 52.984V152.824L0.832031 136.568Z" fill="#0062A3"/>
<path d="M220.48 291.064H271.168L220.48 341.624V291.064Z" fill="#CFD8DF"/>
<path d="M0.832031 136.568V36.856H180.672V136.568H0.832031Z" fill="#006DB8"/>
<path d="M61.1199 100.984H68.5439C72.7679 100.984 75.9679 99.832 77.8879 97.656C79.8079 95.48 80.7039 91.768 80.7039 86.776C80.7039 81.784 79.8079 78.072 78.0159 75.768C76.2239 73.464 73.4079 72.184 69.6959 72.184H61.2479V100.984H61.1199ZM52.1599 109.048V64.248H69.6959C76.6079 64.248 81.7279 66.168 85.0559 69.752C88.3839 73.464 90.1759 79.096 90.1759 86.648C90.1759 90.744 89.5359 94.328 88.2559 97.528C86.9759 100.6 85.1839 103.16 82.8799 105.08C81.0879 106.488 79.0399 107.512 76.8639 108.152C74.5599 108.792 71.3599 109.048 67.2639 109.048H52.2879H52.1599ZM106.176 100.984H117.056C119.616 100.984 121.536 100.472 122.688 99.576C123.84 98.68 124.48 97.144 124.48 95.224C124.48 93.176 123.84 91.64 122.688 90.744C121.536 89.848 119.616 89.336 116.928 89.336H106.048V100.984H106.176ZM106.176 81.656H116.672C118.976 81.656 120.64 81.272 121.664 80.504C122.688 79.736 123.2 78.456 123.2 76.792C123.2 75.128 122.688 73.976 121.664 73.208C120.64 72.44 118.976 72.056 116.544 72.056H106.048V81.656H106.176ZM97.3439 109.048V64.248H118.464C123.072 64.248 126.528 65.272 128.96 67.192C131.392 69.112 132.544 71.928 132.544 75.64C132.544 77.944 132.16 79.736 131.264 81.272C130.368 82.808 129.088 83.96 127.296 84.728C129.6 85.624 131.392 87.032 132.416 88.824C133.568 90.616 134.08 92.792 134.08 95.352C134.08 99.704 132.672 103.032 129.856 105.464C127.04 107.896 122.944 109.048 117.824 109.048H97.4719H97.3439Z" fill="white"/>
<path fill-rule="evenodd" clip-rule="evenodd" d="M104 210.296H197.568V272.888H104V210.296Z" fill="#37474F"/>
<path d="M198.336 189.176H103.872C101.893 189.176 100.288 190.781 100.288 192.76V214.392C100.288 216.371 101.893 217.976 103.872 217.976H198.336C200.315 217.976 201.92 216.371 201.92 214.392V192.76C201.92 190.781 200.315 189.176 198.336 189.176Z" fill="#808080"/>
<path d="M198.336 224.504H103.744C101.765 224.504 100.16 226.109 100.16 228.088V249.72C100.16 251.699 101.765 253.304 103.744 253.304H198.336C200.316 253.304 201.92 251.699 201.92 249.72V228.088C201.92 226.109 200.316 224.504 198.336 224.504Z" fill="#808080"/>
<path d="M198.336 259.832H103.744C101.765 259.832 100.16 261.437 100.16 263.416V285.048C100.16 287.027 101.765 288.632 103.744 288.632H198.336C200.316 288.632 201.92 287.027 201.92 285.048V263.416C201.92 261.437 200.316 259.832 198.336 259.832Z" fill="#808080"/>
<path fill-rule="evenodd" clip-rule="evenodd" d="M189.248 196.344H194.624V209.912H189.248V196.344Z" fill="#0288D1"/>
<path fill-rule="evenodd" clip-rule="evenodd" d="M163.776 196.344H169.152V209.912H163.776V196.344Z" fill="#D81B60"/>
<path fill-rule="evenodd" clip-rule="evenodd" d="M172.224 196.344H177.6V209.912H172.224V196.344Z" fill="#FFA000"/>
<path fill-rule="evenodd" clip-rule="evenodd" d="M180.8 196.344H186.176V209.912H180.8V196.344Z" fill="#B2FF59"/>
</svg>
