<svg width="272" height="342" viewBox="0 0 272 342" fill="none" xmlns="http://www.w3.org/2000/svg">
<path d="M34.3678 341.624H17.2158V0.375977H34.3678V341.624Z" fill="#D1D8DE"/>
<path d="M220.48 341.624H29.7598V0.375977H271.168V291.064L220.48 341.624Z" fill="#EFF2F4"/>
<path d="M0.832031 136.568V36.856L17.216 52.984V152.824L0.832031 136.568Z" fill="#BD5D2D"/>
<path d="M220.48 291.064H271.168L220.48 341.624V291.064Z" fill="#D1D8DE"/>
<path d="M0.832031 136.568V36.856H180.672V136.568H0.832031Z" fill="#CC6633"/>
<path d="M34.8799 109.048V64.2479H67.3919V72.0559H43.9679V81.6559H65.3439V89.3359H43.9679V100.856H68.5439V109.176H35.0079L34.8799 109.048ZM84.7999 84.9839H93.7599C96.1919 84.9839 97.8559 84.4719 99.0079 83.4479C100.16 82.4239 100.672 80.7599 100.672 78.4559C100.672 76.2799 100.16 74.7439 99.0079 73.5919C97.9839 72.4399 96.3199 71.9279 94.1439 71.9279H84.7999V84.8559V84.9839ZM84.7999 93.0479V108.92H75.5839V64.1199H95.4239C100.16 64.1199 103.616 65.3999 106.048 67.8319C108.48 70.2639 109.632 73.8479 109.632 78.5839C109.632 83.1919 108.48 86.7759 106.048 89.2079C103.744 91.7679 100.288 92.9199 95.9359 92.9199H84.6719L84.7999 93.0479ZM115.008 95.0959H124.096C124.48 97.5279 125.504 99.3199 127.04 100.6C128.704 101.752 131.136 102.392 134.208 102.392C136.896 102.392 138.944 101.88 140.224 100.984C141.632 100.088 142.272 98.6799 142.272 96.7599C142.272 94.0719 138.432 91.7679 130.624 89.9759H130.368C130.112 89.9759 129.856 89.8479 129.472 89.7199C125.248 88.8239 122.304 87.7999 120.512 86.6479C118.976 85.6239 117.696 84.2159 116.928 82.5519C116.16 80.8879 115.648 78.8399 115.648 76.5359C115.648 72.1839 117.184 68.8559 120.128 66.5519C123.072 64.2479 127.296 63.0959 132.928 63.0959C138.176 63.0959 142.272 64.3759 145.216 66.8079C148.16 69.2399 149.696 72.8239 149.824 77.3039H140.992C140.864 75.1279 139.968 73.4639 138.56 72.3119C137.024 71.1599 134.976 70.6479 132.16 70.6479C129.728 70.6479 127.936 71.1599 126.528 72.0559C125.248 72.9519 124.608 74.3599 124.608 76.0239C124.608 78.4559 127.168 80.1199 132.288 81.3999C133.696 81.7839 134.72 81.9119 135.488 82.1679C138.688 82.9359 141.12 83.7039 142.4 84.0879C143.808 84.5999 144.96 85.1119 145.984 85.6239C147.776 86.6479 149.184 87.9279 150.08 89.5919C150.976 91.2559 151.488 93.3039 151.488 95.6079C151.488 100.216 149.952 103.928 146.752 106.488C143.552 109.048 139.2 110.328 133.44 110.328C127.808 110.328 123.328 109.048 120.256 106.36C117.056 103.8 115.392 100.088 115.136 95.2239L115.008 95.0959Z" fill="white"/>
<path fill-rule="evenodd" clip-rule="evenodd" d="M174.911 281.72L172.607 279.416C189.631 262.392 189.631 234.872 172.607 217.848C164.415 209.656 153.407 205.048 141.887 205.048C130.239 205.048 119.359 209.528 111.167 217.848L108.863 215.544C117.695 206.712 129.471 201.848 142.015 201.848C154.559 201.848 166.335 206.712 175.167 215.544C193.471 233.848 193.471 263.544 175.167 281.72H174.911Z" fill="#A4A9AD"/>
<path fill-rule="evenodd" clip-rule="evenodd" d="M197.568 242.04L148.416 192.888L149.952 191.352L199.104 240.504L197.568 242.04Z" fill="#333E48"/>
<path fill-rule="evenodd" clip-rule="evenodd" d="M173.76 225.4L165.056 216.696L173.76 207.992L182.464 216.696L173.76 225.4Z" fill="#333E48"/>
<path fill-rule="evenodd" clip-rule="evenodd" d="M153.024 192.12C153.024 194.168 151.36 195.96 149.184 195.96C147.136 195.96 145.344 194.296 145.344 192.12C145.344 190.072 147.008 188.28 149.184 188.28C151.232 188.28 153.024 189.944 153.024 192.12Z" fill="#333E48"/>
<path fill-rule="evenodd" clip-rule="evenodd" d="M202.047 241.272C202.047 243.32 200.383 245.112 198.207 245.112C196.159 245.112 194.367 243.448 194.367 241.272C194.367 239.224 196.031 237.432 198.207 237.432C200.255 237.432 202.047 239.096 202.047 241.272Z" fill="#333E48"/>
<path fill-rule="evenodd" clip-rule="evenodd" d="M173.76 225.4L165.056 216.696L173.76 207.992L182.464 216.696L173.76 225.4Z" fill="#333E48"/>
<path fill-rule="evenodd" clip-rule="evenodd" d="M109.888 225.4L101.184 216.696L109.888 207.992L118.592 216.696L109.888 225.4Z" fill="#333E48"/>
<path fill-rule="evenodd" clip-rule="evenodd" d="M173.76 289.272L165.056 280.568L173.76 271.864L182.464 280.568L173.76 289.272Z" fill="#333E48"/>
</svg>
