<svg width="272" height="342" viewBox="0 0 272 342" fill="none" xmlns="http://www.w3.org/2000/svg">
<path d="M34.3678 341.624H17.2158V0.375977H34.3678V341.624Z" fill="#D1D8DE"/>
<path d="M220.48 341.624H29.7598V0.375977H271.168V291.064L220.48 341.624Z" fill="#EFF2F4"/>
<path d="M0.832031 136.568V36.856L17.216 52.984V152.824L0.832031 136.568Z" fill="#D64040"/>
<path d="M220.48 291.064H271.168L220.48 341.624V291.064Z" fill="#CFD8DF"/>
<path d="M0.832031 136.568V36.856H180.672V136.568H0.832031Z" fill="#EC5757"/>
<path d="M41.4082 109.048V64.248H72.6402V72.056H50.4962V82.168H69.9522V89.976H50.4962V109.048H41.4082ZM78.6562 109.048V64.248H87.8722V100.728H109.76V109.048H78.6562ZM120.768 109.048L105.28 64.248H115.52L124.992 97.784L134.72 64.248H144.832L129.6 109.048H120.768Z" fill="white"/>
<path fill-rule="evenodd" clip-rule="evenodd" d="M168.64 198.008C150.08 209.016 138.432 238.712 128.576 254.968C118.72 271.352 100.544 269.304 100.544 269.304V288.504C100.544 288.504 111.936 288.76 121.536 285.56C131.136 282.36 142.272 275.32 148.672 266.488C151.232 263.032 155.072 255.992 159.296 248.184H188.48V228.472H169.92C172.736 223.48 175.296 219.256 177.344 216.824C184.512 207.992 202.048 208.248 202.048 208.248V189.432C202.048 189.432 187.2 186.744 168.768 197.752L168.64 198.008Z" fill="#EC5757"/>
</svg>
