<svg width="272" height="342" viewBox="0 0 272 342" fill="none" xmlns="http://www.w3.org/2000/svg">
<path d="M34.3678 341.624H17.2158V0.375977H34.3678V341.624Z" fill="#D1D8DE"/>
<path d="M220.48 341.624H29.7598V0.375977H271.168V291.064L220.48 341.624Z" fill="#EFF2F4"/>
<path d="M0.832031 136.568V36.856L17.216 52.984V152.824L0.832031 136.568Z" fill="#870400"/>
<path d="M220.48 291.064H271.168L220.48 341.624V291.064Z" fill="#CFD8DF"/>
<path d="M0.832031 136.568V36.856H180.672V136.568H0.832031Z" fill="#9A0703"/>
<path d="M78.3996 103.8C76.7356 106.104 74.8156 107.64 72.7676 108.792C70.5916 109.816 68.1596 110.328 65.3436 110.328C59.0716 110.328 54.0796 108.152 50.1116 103.8C46.2716 99.4479 44.3516 93.6879 44.3516 86.6479C44.3516 79.4799 46.2716 73.8479 50.1116 69.4959C53.9516 65.2719 59.0716 63.0959 65.5996 63.0959C71.2316 63.0959 75.8396 64.3759 79.2956 67.0639C82.8796 69.7519 84.9276 73.4639 85.5676 78.1999H76.2236C75.7116 75.8959 74.5596 74.1039 72.7676 72.9519C70.9756 71.7999 68.6716 71.1599 65.8556 71.1599C62.1436 71.1599 59.1996 72.5679 57.0236 75.2559C54.8476 77.9439 53.8236 81.7839 53.8236 86.6479C53.8236 91.5119 54.9756 95.3519 57.1516 98.0399C59.3276 100.728 62.3996 102.136 66.3676 102.136C69.3116 102.136 71.7436 101.24 73.6636 99.5759C75.5836 97.9119 76.8636 95.4799 77.2476 92.5359H67.1356V84.8559H85.6956V109.048H79.5516L78.3996 103.8ZM94.7836 109.048V64.2479H104V109.048H94.7836ZM113.6 109.048V64.2479H144.832V72.0559H122.688V82.1679H142.144V89.9759H122.688V109.048H113.6Z" fill="white"/>
<path fill-rule="evenodd" clip-rule="evenodd" d="M100.544 189.176H202.176V288.504H100.544V189.176Z" fill="#C3E1ED"/>
<path fill-rule="evenodd" clip-rule="evenodd" d="M186.816 210.296C186.816 214.776 183.232 218.36 178.752 218.36C174.272 218.36 170.688 214.776 170.688 210.296C170.688 205.816 174.272 202.232 178.752 202.232C183.232 202.232 186.816 205.816 186.816 210.296Z" fill="#ED8A19"/>
<path fill-rule="evenodd" clip-rule="evenodd" d="M202.176 262.264L200.256 260.216L177.728 239.48L157.888 261.112L168.256 271.48L175.808 279.032H202.176V262.264Z" fill="#1A9172"/>
<path fill-rule="evenodd" clip-rule="evenodd" d="M100.544 286.584H145.728L138.048 279.032L117.44 258.296L100.544 273.272V286.584Z" fill="#1A9172"/>
<path fill-rule="evenodd" clip-rule="evenodd" d="M100.544 279.032H202.176V288.504H100.544V279.032Z" fill="#6B5B4B"/>
<path fill-rule="evenodd" clip-rule="evenodd" d="M168.256 271.48L147.52 250.872L115.52 279.032H175.808L168.256 271.48Z" fill="#25AE88"/>
<path fill-rule="evenodd" clip-rule="evenodd" d="M131.904 200.952L170.816 225.528L131.904 249.976V200.952Z" fill="#9A0703"/>
</svg>
