<svg width="272" height="342" viewBox="0 0 272 342" fill="none" xmlns="http://www.w3.org/2000/svg">
<path d="M34.3678 341.624H17.2158V0.375977H34.3678V341.624Z" fill="#D1D8DE"/>
<path d="M220.48 341.624H29.7603V0.375977H271.168V291.064L220.48 341.624Z" fill="#EFF2F4"/>
<path d="M0.832031 136.568V36.856L17.216 52.984V152.824L0.832031 136.568Z" fill="#808080"/>
<path d="M220.48 291.064H271.168L220.48 341.624V291.064Z" fill="#CFD8DF"/>
<path d="M0.832031 136.568V36.856H180.672V136.568H0.832031Z" fill="#999999"/>
<path d="M42.1763 109.048V64.2479H51.3923V109.048H42.1763ZM58.9443 95.2239H68.0323C68.4163 97.6559 69.4403 99.4479 70.9763 100.728C72.6403 101.88 75.0723 102.52 78.1443 102.52C80.8323 102.52 82.8803 102.008 84.1603 101.112C85.5683 100.216 86.2083 98.8079 86.2083 96.8879C86.2083 94.1999 82.3683 91.8959 74.5603 90.1039H74.3043C74.0483 90.1039 73.7923 89.9759 73.4083 89.8479C69.1843 88.9519 66.2403 87.9279 64.4483 86.7759C62.9123 85.7519 61.6323 84.3439 60.8643 82.6799C60.0963 81.0159 59.5843 78.9679 59.5843 76.6639C59.5843 72.3119 61.1203 68.9839 64.0643 66.6799C67.0083 64.3759 71.2323 63.2239 76.8643 63.2239C82.1123 63.2239 86.2083 64.5039 89.1523 66.9359C92.0963 69.3679 93.6323 72.9519 93.7603 77.4319H84.9283C84.8003 75.2559 83.9043 73.5919 82.4963 72.4399C80.9603 71.2879 78.9123 70.7759 76.0963 70.7759C73.6643 70.7759 71.8723 71.2879 70.4643 72.1839C69.1843 73.0799 68.5443 74.4879 68.5443 76.1519C68.5443 78.5839 71.1043 80.2479 76.2243 81.5279C77.6323 81.9119 78.6563 82.0399 79.4243 82.2959C82.6243 83.0639 85.0563 83.8319 86.3363 84.2159C87.7443 84.7279 88.8963 85.2399 89.9203 85.7519C91.7123 86.7759 93.1203 88.0559 94.0163 89.7199C94.9123 91.3839 95.4243 93.4319 95.4243 95.7359C95.4243 100.344 93.8883 104.056 90.6883 106.616C87.4883 109.176 83.1363 110.456 77.3763 110.456C71.7443 110.456 67.2643 109.176 64.1923 106.488C60.9923 103.928 59.3283 100.216 59.0723 95.3519L58.9443 95.2239ZM109.888 86.6479C109.888 91.5119 111.04 95.3519 113.216 98.1679C115.392 100.856 118.464 102.264 122.432 102.264C126.4 102.264 129.472 100.856 131.648 98.1679C133.824 95.4799 134.976 91.6399 134.976 86.6479C134.976 81.7839 133.824 77.9439 131.648 75.1279C129.472 72.4399 126.4 71.0319 122.432 71.0319C118.464 71.0319 115.392 72.4399 113.216 75.1279C111.04 77.8159 109.888 81.6559 109.888 86.6479ZM100.544 86.6479C100.544 79.4799 102.464 73.7199 106.432 69.4959C110.4 65.2719 115.648 63.0959 122.432 63.0959C129.088 63.0959 134.464 65.2719 138.432 69.4959C142.4 73.7199 144.32 79.4799 144.32 86.6479C144.32 93.8159 142.4 99.5759 138.432 103.8C134.464 108.024 129.088 110.2 122.432 110.2C115.776 110.2 110.4 108.024 106.432 103.8C102.464 99.5759 100.544 93.8159 100.544 86.6479Z" fill="white"/>
<path fill-rule="evenodd" clip-rule="evenodd" d="M151.232 189.176C123.584 189.176 101.056 211.448 101.056 238.968C101.056 266.488 123.456 288.76 151.232 288.76C178.88 288.76 201.408 266.488 201.408 238.968C201.408 211.448 179.008 189.176 151.232 189.176ZM151.232 251C144.576 251 139.072 245.624 139.072 238.968C139.072 232.312 144.448 226.936 151.232 226.936C157.888 226.936 163.392 232.312 163.392 238.968C163.392 245.624 158.016 251 151.232 251Z" fill="#999999"/>
<path fill-rule="evenodd" clip-rule="evenodd" d="M183.744 200.952L159.168 229.752C160.576 230.904 161.6 232.312 162.368 233.976L197.056 218.488C193.984 211.704 189.376 205.688 183.744 200.952Z" fill="#E6E6E6"/>
<path fill-rule="evenodd" clip-rule="evenodd" d="M151.232 222.584C142.144 222.584 134.72 229.88 134.72 238.968C134.72 248.056 142.144 255.352 151.232 255.352C160.32 255.352 167.744 248.056 167.744 238.968C167.744 229.88 160.32 222.584 151.232 222.584ZM151.232 249.848C145.088 249.848 140.224 244.984 140.224 238.968C140.224 232.952 145.216 228.088 151.232 228.088C157.376 228.088 162.24 232.952 162.24 238.968C162.24 244.984 157.248 249.848 151.232 249.848Z" fill="#333E48"/>
</svg>
