<svg width="272" height="342" viewBox="0 0 272 342" fill="none" xmlns="http://www.w3.org/2000/svg">
<path d="M34.3678 341.624H17.2158V0.375977H34.3678V341.624Z" fill="#D1D8DE"/>
<path d="M220.48 341.624H29.7603V0.375977H271.168V291.064L220.48 341.624Z" fill="#EFF2F4"/>
<path d="M0.832031 136.568V36.856L17.216 52.984V152.824L0.832031 136.568Z" fill="#DE8B10"/>
<path d="M220.48 291.064H271.168L220.48 341.624V291.064Z" fill="#CFD8DF"/>
<path d="M0.832031 136.568V36.856H202.176V136.568H0.832031Z" fill="#FAA320"/>
<path d="M29.1202 91.5119H37.5682V96.6319C37.5682 98.0399 37.9522 99.1919 38.8482 99.9599C39.7442 100.728 41.0242 101.112 42.6882 101.112C44.4802 101.112 45.7602 100.6 46.4002 99.7039C47.1682 98.8079 47.4242 97.0159 47.4242 94.4559V65.0159H56.1282V94.8399C56.1282 97.5279 56.0002 99.4479 55.6162 100.728C55.2322 102.008 54.7202 103.032 54.0802 104.056C52.9282 105.464 51.3922 106.488 49.4722 107.256C47.5522 108.024 45.2482 108.408 42.6882 108.408C40.2562 108.408 38.2082 108.024 36.2882 107.384C34.4962 106.744 32.9602 105.72 31.6802 104.44C30.6562 103.416 30.0162 102.264 29.6322 100.984C29.2482 99.7039 28.9922 97.6559 28.9922 94.7119V91.3839L29.1202 91.5119ZM80.1922 73.4639L74.3042 91.3839H86.0802L80.1922 73.4639ZM75.2002 65.0159H85.1842L100.416 107.256H91.3282L88.5122 98.5519H72.1282L69.3122 107.256H60.2242L75.2002 65.0159ZM113.728 107.256L99.1362 65.0159H108.736L117.696 96.6319L126.784 65.0159H136.256L121.92 107.256H113.6H113.728ZM155.2 73.4639L149.312 91.3839H161.088L155.2 73.4639ZM150.208 65.0159H160.192L175.424 107.256H166.336L163.52 98.5519H147.136L144.32 107.256H135.232L150.208 65.0159Z" fill="white"/>
<path fill-rule="evenodd" clip-rule="evenodd" d="M147.52 206.968C143.04 210.168 137.792 213.752 135.104 219.768C130.368 230.264 144.96 241.656 145.472 242.04C145.6 242.168 145.728 242.168 145.984 242.168C146.112 242.168 146.368 242.168 146.496 242.04C146.752 241.784 146.88 241.4 146.752 241.016C146.752 240.888 141.504 230.776 141.632 223.48C141.76 220.92 145.216 218.104 149.056 215.032C152.512 212.216 156.352 209.016 158.656 205.304C163.648 197.112 158.144 189.176 158.016 189.048C157.76 188.792 157.376 188.664 156.992 188.792C156.608 188.92 156.48 189.304 156.48 189.688C156.48 189.688 157.632 195.064 154.56 200.568C153.28 202.872 150.592 204.792 147.392 206.968H147.52Z" fill="#DE8B10"/>
<path fill-rule="evenodd" clip-rule="evenodd" d="M166.592 210.552C166.976 210.296 166.976 209.912 166.848 209.528C166.592 209.144 166.208 209.016 165.824 209.144C165.056 209.4 146.88 216.44 146.88 224.888C146.88 230.648 149.312 233.72 151.232 236.024C152 236.92 152.512 237.688 152.768 238.328C153.28 240.248 152 243.576 151.36 244.728C151.232 245.112 151.232 245.496 151.616 245.752C151.744 245.88 152 246.008 152.128 246.008C152.256 246.008 152.512 246.008 152.64 245.88C152.896 245.624 160.192 240.504 158.912 234.232C158.4 231.928 157.248 230.136 156.224 228.6C154.688 226.296 153.536 224.504 155.2 221.432C157.248 217.72 166.464 210.808 166.592 210.68V210.552Z" fill="#DE8B10"/>
<path fill-rule="evenodd" clip-rule="evenodd" d="M119.488 246.008C119.232 246.904 119.36 247.8 119.872 248.696C121.792 251.384 128.832 252.92 139.456 252.92C140.864 252.92 142.4 252.92 143.936 252.792C160.96 252.152 167.36 246.904 167.616 246.648C167.872 246.392 168 246.008 167.744 245.624C167.616 245.24 167.232 245.112 166.848 245.24C160.832 246.904 149.568 247.416 141.888 247.416C133.184 247.416 128.704 246.776 127.68 246.264C128.192 245.496 131.648 244.088 135.872 243.32C136.256 243.192 136.512 242.808 136.512 242.424C136.512 242.04 136.128 241.656 135.744 241.656C133.312 241.656 120.768 241.912 119.488 245.752V246.008Z" fill="#FAA320"/>
<path fill-rule="evenodd" clip-rule="evenodd" d="M176.576 240.504C173.12 240.504 169.664 242.296 169.536 242.296C169.152 242.424 169.024 242.808 169.152 243.192C169.28 243.576 169.536 243.832 169.92 243.832C170.048 243.832 177.472 243.832 178.112 248.184C178.752 251.896 171.072 257.784 168.128 259.704C167.744 259.96 167.616 260.344 167.872 260.728C168 260.984 168.256 261.24 168.64 261.24H168.768C169.536 261.112 186.176 257.4 184.384 247.672C183.36 241.784 179.52 240.504 176.576 240.504Z" fill="#FAA320"/>
<path fill-rule="evenodd" clip-rule="evenodd" d="M165.184 258.552C165.184 258.296 165.056 257.912 164.8 257.784L160.832 254.968C160.576 254.84 160.448 254.84 160.192 254.84C160.192 254.84 155.968 255.992 149.952 256.632C147.52 256.888 144.832 257.016 142.144 257.016C136.128 257.016 132.16 256.248 131.52 255.736C131.392 255.608 131.52 255.48 131.52 255.48C131.648 255.224 132.16 254.84 132.544 254.712C132.928 254.584 133.184 254.072 133.056 253.688C132.928 253.304 132.544 253.048 132.16 253.176C128.192 254.2 126.144 255.48 126.4 257.144C126.656 260.216 133.568 261.752 139.456 262.136C140.352 262.136 141.248 262.264 142.144 262.264C152 262.264 164.544 259.192 164.672 259.192C164.928 259.064 165.184 258.808 165.312 258.552H165.184Z" fill="#FAA320"/>
<path fill-rule="evenodd" clip-rule="evenodd" d="M135.104 264.952C135.36 264.696 135.488 264.44 135.488 264.056C135.36 263.672 135.104 263.544 134.72 263.544C134.208 263.544 129.472 263.8 129.088 266.744C128.96 267.64 129.216 268.408 129.856 269.176C131.52 271.224 136.128 272.376 143.808 272.76C144.704 272.76 145.6 272.888 146.496 272.888C156.224 272.888 162.88 269.816 163.136 269.688C163.392 269.56 163.52 269.304 163.648 269.048C163.648 268.792 163.52 268.408 163.264 268.28L158.272 265.208C158.144 265.08 157.888 265.08 157.632 265.08C157.632 265.08 154.432 265.72 149.568 266.36C148.672 266.488 147.52 266.488 146.112 266.488C141.248 266.488 135.872 265.72 134.848 265.208C134.848 265.08 134.848 264.952 134.976 264.824L135.104 264.952Z" fill="#FAA320"/>
<path fill-rule="evenodd" clip-rule="evenodd" d="M141.888 282.232C164.288 282.232 176.32 278.264 178.624 275.704C179.392 274.808 179.52 273.912 179.52 273.4C179.392 271.992 178.112 271.224 177.984 271.096C177.6 270.84 177.216 270.968 176.96 271.224C176.704 271.48 176.704 271.992 176.96 272.248C177.088 272.376 177.216 272.76 176.832 273.144C175.936 274.04 166.592 276.6 150.976 277.368C148.8 277.496 146.624 277.496 144.32 277.496C130.368 277.496 120.128 275.576 118.848 274.424C119.36 273.656 122.944 272.504 126.784 271.864C127.168 271.736 127.552 271.352 127.424 270.968C127.296 270.584 126.912 270.2 126.528 270.328C126.4 270.328 126.016 270.328 125.632 270.328C119.36 270.712 111.936 271.608 111.552 274.808V275.192C111.552 275.96 111.808 276.728 112.448 277.496C114.112 279.416 119.104 281.976 141.888 281.976V282.232Z" fill="#FAA320"/>
<path fill-rule="evenodd" clip-rule="evenodd" d="M183.104 276.344C182.848 276.216 182.464 276.216 182.208 276.472C182.208 276.472 178.752 280.056 168.64 282.104C164.8 282.872 157.504 283.256 147.008 283.256C136.512 283.256 126.528 282.872 126.4 282.872C126.016 282.872 125.632 283.128 125.632 283.512C125.632 283.896 125.888 284.28 126.272 284.408C126.4 284.408 136.896 286.84 151.232 286.84C158.144 286.84 164.8 286.328 171.072 285.176C182.848 283.128 183.616 277.24 183.744 276.984C183.744 276.6 183.616 276.344 183.232 276.216L183.104 276.344Z" fill="#FAA320"/>
</svg>
