<svg width="272" height="342" viewBox="0 0 272 342" fill="none" xmlns="http://www.w3.org/2000/svg">
<path d="M34.3678 341.624H17.2158V0.375977H34.3678V341.624Z" fill="#D1D8DE"/>
<path d="M220.48 341.624H29.7603V0.375977H271.168V291.064L220.48 341.624Z" fill="#EFF2F4"/>
<path d="M0.832031 136.568V36.856L17.216 52.984V152.824L0.832031 136.568Z" fill="#22A882"/>
<path d="M220.48 291.064H271.168L220.48 341.624V291.064Z" fill="#CFD8DF"/>
<path d="M0.832031 136.568V36.856H180.672V136.568H0.832031Z" fill="#37C49C"/>
<path d="M55.6162 92.4079H64.5762V97.7839C64.5762 99.3199 65.0882 100.472 65.9842 101.368C66.8802 102.136 68.2882 102.648 69.9522 102.648C71.8722 102.648 73.1522 102.136 73.9202 101.112C74.6882 100.088 75.0722 98.2959 75.0722 95.4799V64.2479H84.2882V95.8639C84.2882 98.6799 84.1602 100.728 83.7762 102.136C83.3922 103.416 82.8802 104.696 82.1122 105.592C80.9602 107.128 79.2962 108.28 77.2482 109.048C75.2002 109.816 72.7682 110.2 70.0802 110.2C67.5202 110.2 65.3442 109.816 63.2962 109.176C61.3762 108.536 59.7122 107.512 58.4322 106.104C57.4082 104.952 56.6402 103.8 56.2562 102.392C55.8722 100.984 55.6162 98.8079 55.6162 95.7359V92.2799V92.4079ZM91.0722 95.2239H100.16C100.544 97.6559 101.568 99.4479 103.104 100.728C104.768 101.88 107.2 102.52 110.272 102.52C112.96 102.52 115.008 102.008 116.288 101.112C117.696 100.216 118.336 98.8079 118.336 96.8879C118.336 94.1999 114.496 91.8959 106.688 90.1039H106.432C106.176 90.1039 105.92 89.9759 105.536 89.8479C101.312 88.9519 98.3682 87.9279 96.5762 86.7759C95.0402 85.7519 93.7602 84.3439 92.9922 82.6799C92.2242 81.0159 91.7122 78.9679 91.7122 76.6639C91.7122 72.3119 93.2482 68.9839 96.1922 66.6799C99.1362 64.3759 103.36 63.2239 108.992 63.2239C114.24 63.2239 118.336 64.5039 121.28 66.9359C124.224 69.3679 125.76 72.9519 125.888 77.4319H117.056C116.928 75.2559 116.032 73.5919 114.624 72.4399C113.088 71.2879 111.04 70.7759 108.224 70.7759C105.792 70.7759 104 71.2879 102.592 72.1839C101.312 73.0799 100.672 74.4879 100.672 76.1519C100.672 78.5839 103.232 80.2479 108.352 81.5279C109.76 81.9119 110.784 82.0399 111.552 82.2959C114.752 83.0639 117.184 83.8319 118.464 84.2159C119.872 84.7279 121.024 85.2399 122.048 85.7519C123.84 86.7759 125.248 88.0559 126.144 89.7199C127.04 91.3839 127.552 93.4319 127.552 95.7359C127.552 100.344 126.016 104.056 122.816 106.616C119.616 109.176 115.264 110.456 109.504 110.456C103.872 110.456 99.3922 109.176 96.3202 106.488C93.1202 103.928 91.4562 100.216 91.2002 95.3519L91.0722 95.2239Z" fill="white"/>
<path fill-rule="evenodd" clip-rule="evenodd" d="M161.216 211.32H202.176V221.944H161.216V211.32Z" fill="#808080"/>
<path fill-rule="evenodd" clip-rule="evenodd" d="M161.216 189.048H202.176V199.672H161.216V189.048Z" fill="#808080"/>
<path fill-rule="evenodd" clip-rule="evenodd" d="M161.216 233.592H202.176V244.216H161.216V233.592Z" fill="#808080"/>
<path fill-rule="evenodd" clip-rule="evenodd" d="M100.416 255.736H202.176V266.488H100.416V255.736Z" fill="#808080"/>
<path fill-rule="evenodd" clip-rule="evenodd" d="M100.416 278.008H202.176V288.632H100.416V278.008Z" fill="#808080"/>
<path fill-rule="evenodd" clip-rule="evenodd" d="M100.374 204.304L125.409 218.912V244.231L100.374 229.624V204.304Z" fill="#37C49C"/>
<path fill-rule="evenodd" clip-rule="evenodd" d="M151.787 204.304L126.751 218.912V244.231L151.787 229.624V204.304Z" fill="#37C49C"/>
<path fill-rule="evenodd" clip-rule="evenodd" d="M100.928 203.512C109.504 198.776 119.616 193.784 127.936 189.048C133.568 196.6 141.76 201.208 149.696 189.176C153.536 202.616 145.472 206.84 126.016 218.104L100.8 203.64L100.928 203.512Z" fill="#26B58D"/>
</svg>
