<svg width="272" height="342" viewBox="0 0 272 342" fill="none" xmlns="http://www.w3.org/2000/svg">
<path d="M34.3678 341.624H17.2158V0.375977H34.3678V341.624Z" fill="#D1D8DE"/>
<path d="M220.48 341.624H29.7603V0.375977H271.168V291.064L220.48 341.624Z" fill="#EFF2F4"/>
<path d="M0.832031 136.568V36.856L17.216 52.984V152.824L0.832031 136.568Z" fill="#ED6E1A"/>
<path d="M220.48 291.064H271.168L220.48 341.624V291.064Z" fill="#CFD8DF"/>
<path d="M0.832031 136.568V36.856H180.672V136.568H0.832031Z" fill="#FF7F28"/>
<path d="M26.8159 109.048V64.248H40.3839L49.3439 98.296L58.1759 64.248H71.8719V109.048H63.2959V72.952L54.2079 109.048H44.7359L35.5199 72.952V109.048H26.9439H26.8159ZM81.0879 109.048V64.248H90.3039V82.68L107.84 64.248H119.36L101.44 82.296L120.896 108.92H109.632L95.0399 88.44L90.3039 93.176V108.92H81.0879V109.048ZM135.36 109.048L119.872 64.248H130.112L139.584 97.784L149.312 64.248H159.424L144.192 109.048H135.36Z" fill="white"/>
<path fill-rule="evenodd" clip-rule="evenodd" d="M191.296 277.24H111.68C122.688 249.08 133.696 220.792 144.832 192.632C146.496 187.64 156.736 188.28 158.144 192.632L191.296 277.24Z" fill="#FF7F28"/>
<path fill-rule="evenodd" clip-rule="evenodd" d="M100.544 276.856H202.432V288.76H100.544V276.856Z" fill="#FF671B"/>
<path fill-rule="evenodd" clip-rule="evenodd" d="M177.856 243.064H125.12L118.592 259.576H184.384L177.856 243.064ZM164.416 208.888H138.432L131.904 225.4H170.944L164.416 208.888Z" fill="#F2F2BA"/>
</svg>
