<svg width="272" height="342" viewBox="0 0 272 342" fill="none" xmlns="http://www.w3.org/2000/svg">
<path d="M34.3678 341.624H17.2158V0.375977H34.3678V341.624Z" fill="#D1D8DE"/>
<path d="M220.48 341.624H29.7603V0.375977H271.168V291.064L220.48 341.624Z" fill="#EFF2F4"/>
<path d="M0.832031 136.568V36.856L17.216 52.984V152.824L0.832031 136.568Z" fill="#D92818"/>
<path d="M220.48 291.064H271.168L220.48 341.624V291.064Z" fill="#CFD8DF"/>
<path d="M0.832031 136.568V36.856H180.672V136.568H0.832031Z" fill="#E13424"/>
<path d="M24.3838 109.048V64.2479H37.9518L46.9118 98.2959L55.7438 64.2479H69.4398V109.048H60.8638V72.9519L51.7758 109.048H42.3038L33.0878 72.9519V109.048H24.5118H24.3838ZM86.0798 86.6479C86.0798 91.5119 87.2318 95.3519 89.4078 98.1679C91.5838 100.856 94.6558 102.264 98.6238 102.264C102.592 102.264 105.664 100.856 107.84 98.1679C110.016 95.4799 111.168 91.6399 111.168 86.6479C111.168 81.7839 110.016 77.9439 107.84 75.1279C105.664 72.4399 102.592 71.0319 98.6238 71.0319C94.6558 71.0319 91.5838 72.4399 89.4078 75.1279C87.2318 77.8159 86.0798 81.6559 86.0798 86.6479ZM76.7358 86.6479C76.7358 79.4799 78.6558 73.7199 82.6238 69.4959C86.5918 65.2719 91.8398 63.0959 98.6238 63.0959C105.28 63.0959 110.656 65.2719 114.624 69.4959C118.592 73.7199 120.512 79.4799 120.512 86.6479C120.512 93.8159 118.592 99.5759 114.624 103.8C110.656 108.024 105.28 110.2 98.6238 110.2C91.9678 110.2 86.5918 108.024 82.6238 103.8C78.6558 99.5759 76.7358 93.8159 76.7358 86.6479ZM137.792 109.048L122.304 64.2479H132.544L142.016 97.7839L151.744 64.2479H161.856L146.624 109.048H137.792Z" fill="white"/>
<path fill-rule="evenodd" clip-rule="evenodd" d="M202.048 238.84C202.048 266.36 179.264 288.632 151.232 288.632C123.2 288.632 100.416 266.36 100.416 238.84C100.416 211.32 123.2 189.048 151.232 189.048C179.264 189.048 202.048 211.32 202.048 238.84Z" fill="#333E48"/>
<path fill-rule="evenodd" clip-rule="evenodd" d="M180.672 238.84C180.672 254.712 167.488 267.64 151.232 267.64C134.976 267.64 121.792 254.712 121.792 238.84C121.792 222.968 134.976 210.04 151.232 210.04C167.488 210.04 180.672 222.968 180.672 238.84Z" fill="#38A3FF"/>
<path fill-rule="evenodd" clip-rule="evenodd" d="M151.232 238.84C146.752 243.192 146.752 250.36 151.232 254.712L185.792 288.632H202.048V272.76L167.488 238.84C163.008 234.488 155.712 234.488 151.232 238.84Z" fill="#333E48"/>
</svg>
