<svg width="272" height="342" viewBox="0 0 272 342" fill="none" xmlns="http://www.w3.org/2000/svg">
<path d="M34.3678 341.624H17.2158V0.375977H34.3678V341.624Z" fill="#D1D8DE"/>
<path d="M220.48 341.624H29.7603V0.375977H271.168V291.064L220.48 341.624Z" fill="#EFF2F4"/>
<path d="M0.832031 136.568V36.856L17.216 52.984V152.824L0.832031 136.568Z" fill="#CC2D2F"/>
<path d="M220.48 291.064H271.168L220.48 341.624V291.064Z" fill="#CFD8DF"/>
<path d="M0.832031 136.568V36.856H180.672V136.568H0.832031Z" fill="#E24042"/>
<path d="M28.7358 108.408V63.608H42.3038L51.2638 97.656L60.0958 63.608H73.7918V108.408H65.2158V72.312L56.1278 108.408H46.6558L37.4398 72.312V108.408H28.8638H28.7358ZM92.2238 84.344H101.184C103.616 84.344 105.28 83.832 106.432 82.808C107.584 81.784 108.096 80.12 108.096 77.816C108.096 75.64 107.584 74.104 106.432 72.952C105.408 71.8 103.744 71.288 101.568 71.288H92.2238V84.216V84.344ZM92.2238 92.408V108.28H83.0078V63.48H102.848C107.584 63.48 111.04 64.76 113.472 67.192C115.904 69.624 117.056 73.208 117.056 77.944C117.056 82.552 115.904 86.136 113.472 88.568C111.168 91.128 107.712 92.28 103.36 92.28H92.0958L92.2238 92.408ZM121.664 95.096H129.984C129.984 97.528 130.624 99.32 131.776 100.6C132.928 101.88 134.592 102.392 136.896 102.392C139.072 102.392 140.736 101.88 142.016 100.728C143.168 99.576 143.808 97.912 143.808 95.736C143.808 93.56 143.168 92.024 141.76 90.872C140.352 89.72 138.304 89.208 135.616 89.208C135.488 89.208 135.232 89.208 134.976 89.208C134.72 89.208 134.464 89.208 134.336 89.208V83.192H135.232C137.792 83.192 139.584 82.68 140.864 81.656C142.016 80.632 142.656 79.224 142.656 77.176C142.656 75.512 142.144 74.232 141.12 73.208C140.096 72.184 138.688 71.672 136.896 71.672C134.976 71.672 133.44 72.184 132.416 73.336C131.392 74.488 130.88 76.024 130.88 78.2V78.584H122.688C122.816 74.104 124.096 70.776 126.656 68.344C129.216 65.912 132.8 64.76 137.408 64.76C141.76 64.76 145.216 65.784 147.776 67.96C150.336 70.136 151.616 72.952 151.616 76.536C151.616 78.456 151.232 80.12 150.336 81.528C149.44 82.936 148.16 84.216 146.368 85.112C148.544 86.136 150.336 87.416 151.36 89.208C152.512 90.872 153.024 92.92 153.024 95.352C153.024 99.704 151.616 103.16 148.8 105.72C145.984 108.28 142.016 109.56 137.152 109.56C132.288 109.56 128.448 108.28 125.888 105.848C123.2 103.416 121.92 99.832 121.92 95.224V95.096H121.664Z" fill="white"/>
<path d="M126.016 201.208V265.72C123.712 265.464 121.152 265.464 118.464 265.976C108.48 267.64 100.544 274.04 100.544 280.056C100.544 286.2 108.608 289.656 118.464 287.992C128.32 286.328 136.384 279.928 136.384 273.912V228.856L191.808 220.408V255.48C189.504 255.224 186.944 255.224 184.256 255.736C174.272 257.4 166.336 263.8 166.336 269.816C166.336 275.96 174.4 279.416 184.256 277.752C194.24 276.088 202.176 269.688 202.176 263.672V189.176L126.016 201.208Z" fill="#E24042"/>
</svg>
