<svg width="272" height="342" viewBox="0 0 272 342" fill="none" xmlns="http://www.w3.org/2000/svg">
<path d="M34.3681 341.624H17.2161V0.375977H34.3681V341.624Z" fill="#D1D8DE"/>
<path d="M220.48 341.624H29.76V0.375977H271.168V291.064L220.48 341.624Z" fill="#EFF2F4"/>
<path d="M0.832031 136.568V36.856L17.216 52.984V152.824L0.832031 136.568Z" fill="#DE3131"/>
<path d="M220.48 291.064H271.168L220.48 341.624V291.064Z" fill="#CFD8DF"/>
<path d="M0.832031 136.568V36.856H180.672V136.568H0.832031Z" fill="#F84545"/>
<path d="M25.408 109.048V64.248H38.976L47.936 98.296L56.768 64.248H70.464V109.048H61.888V72.952L52.8 109.048H43.328L34.112 72.952V109.048H25.536H25.408ZM88.896 84.984H97.856C100.288 84.984 101.952 84.472 103.104 83.448C104.256 82.424 104.768 80.76 104.768 78.456C104.768 76.28 104.256 74.744 103.104 73.592C102.08 72.44 100.416 71.928 98.24 71.928H88.896V84.856V84.984ZM88.896 93.048V108.92H79.68V64.12H99.52C104.256 64.12 107.712 65.4 110.144 67.832C112.576 70.264 113.728 73.848 113.728 78.584C113.728 83.192 112.576 86.776 110.144 89.208C107.84 91.768 104.384 92.92 100.032 92.92H88.768L88.896 93.048ZM153.408 103.672C151.744 105.976 149.824 107.512 147.776 108.664C145.6 109.688 143.168 110.2 140.352 110.2C134.08 110.2 129.088 108.024 125.12 103.672C121.28 99.32 119.36 93.56 119.36 86.52C119.36 79.352 121.28 73.72 125.12 69.368C128.96 65.144 134.08 62.968 140.608 62.968C146.24 62.968 150.848 64.248 154.304 66.936C157.888 69.624 159.936 73.336 160.576 78.072H151.232C150.72 75.768 149.568 73.976 147.776 72.824C145.984 71.672 143.68 71.032 140.864 71.032C137.152 71.032 134.208 72.44 132.032 75.128C129.856 77.816 128.832 81.656 128.832 86.52C128.832 91.384 129.984 95.224 132.16 97.912C134.336 100.6 137.408 102.008 141.376 102.008C144.32 102.008 146.752 101.112 148.672 99.448C150.592 97.784 151.872 95.352 152.256 92.408H142.144V84.728H160.704V108.92H154.56L153.408 103.672Z" fill="white"/>
<path fill-rule="evenodd" clip-rule="evenodd" d="M100.288 276.984V200.952H202.176V276.984H100.288Z" fill="#333E48"/>
<path fill-rule="evenodd" clip-rule="evenodd" d="M100.288 288.76V276.984H202.176V288.76H100.288Z" fill="#A4A9AD"/>
<path fill-rule="evenodd" clip-rule="evenodd" d="M100.288 200.952V189.176H202.176V200.952H100.288Z" fill="#A4A9AD"/>
<path d="M108.11 214.102V263.815C108.11 266.093 112.707 267.939 118.378 267.939H182.688C188.358 267.939 192.955 266.093 192.955 263.815V214.102C192.955 211.824 188.358 209.977 182.688 209.977H118.378C112.707 209.977 108.11 211.824 108.11 214.102Z" fill="#38A3FF"/>
<path d="M105.76 280.406V285.538C105.76 285.953 106.131 286.29 106.589 286.29H113.771C114.228 286.29 114.599 285.953 114.599 285.538V280.406C114.599 279.991 114.228 279.655 113.771 279.655H106.589C106.131 279.655 105.76 279.991 105.76 280.406Z" fill="white"/>
<path d="M119.45 280.406V285.538C119.45 285.953 119.821 286.29 120.278 286.29H127.46C127.918 286.29 128.289 285.953 128.289 285.538V280.406C128.289 279.991 127.918 279.655 127.46 279.655H120.278C119.821 279.655 119.45 279.991 119.45 280.406Z" fill="white"/>
<path d="M133.141 280.406V285.538C133.141 285.953 133.512 286.29 133.969 286.29H141.151C141.609 286.29 141.98 285.953 141.98 285.538V280.406C141.98 279.991 141.609 279.655 141.151 279.655H133.969C133.512 279.655 133.141 279.991 133.141 280.406Z" fill="white"/>
<path d="M146.831 280.406V285.538C146.831 285.953 147.202 286.29 147.66 286.29H154.842C155.299 286.29 155.67 285.953 155.67 285.538V280.406C155.67 279.991 155.299 279.655 154.842 279.655H147.66C147.202 279.655 146.831 279.991 146.831 280.406Z" fill="white"/>
<path d="M160.521 280.406V285.538C160.521 285.953 160.892 286.29 161.35 286.29H168.531C168.989 286.29 169.36 285.953 169.36 285.538V280.406C169.36 279.991 168.989 279.655 168.531 279.655H161.35C160.892 279.655 160.521 279.991 160.521 280.406Z" fill="white"/>
<path d="M174.212 280.406V285.538C174.212 285.953 174.583 286.29 175.041 286.29H182.222C182.68 286.29 183.051 285.953 183.051 285.538V280.406C183.051 279.991 182.68 279.655 182.222 279.655H175.041C174.583 279.655 174.212 279.991 174.212 280.406Z" fill="white"/>
<path d="M187.903 280.406V285.538C187.903 285.953 188.274 286.29 188.732 286.29H195.913C196.371 286.29 196.742 285.953 196.742 285.538V280.406C196.742 279.991 196.371 279.655 195.913 279.655H188.732C188.274 279.655 187.903 279.991 187.903 280.406Z" fill="white"/>
<path d="M105.76 192.516V197.649C105.76 198.063 106.131 198.4 106.589 198.4H113.771C114.228 198.4 114.599 198.063 114.599 197.649V192.516C114.599 192.101 114.228 191.765 113.771 191.765H106.589C106.131 191.765 105.76 192.101 105.76 192.516Z" fill="white"/>
<path d="M119.45 192.516V197.649C119.45 198.063 119.821 198.4 120.278 198.4H127.46C127.918 198.4 128.289 198.063 128.289 197.649V192.516C128.289 192.101 127.918 191.765 127.46 191.765H120.278C119.821 191.765 119.45 192.101 119.45 192.516Z" fill="white"/>
<path d="M133.141 192.516V197.649C133.141 198.063 133.512 198.4 133.969 198.4H141.151C141.609 198.4 141.98 198.063 141.98 197.649V192.516C141.98 192.101 141.609 191.765 141.151 191.765H133.969C133.512 191.765 133.141 192.101 133.141 192.516Z" fill="white"/>
<path d="M146.831 192.516V197.649C146.831 198.063 147.202 198.4 147.66 198.4H154.842C155.299 198.4 155.67 198.063 155.67 197.649V192.516C155.67 192.101 155.299 191.765 154.842 191.765H147.66C147.202 191.765 146.831 192.101 146.831 192.516Z" fill="white"/>
<path d="M160.521 192.516V197.649C160.521 198.063 160.892 198.4 161.35 198.4H168.531C168.989 198.4 169.36 198.063 169.36 197.649V192.516C169.36 192.101 168.989 191.765 168.531 191.765H161.35C160.892 191.765 160.521 192.101 160.521 192.516Z" fill="white"/>
<path d="M174.212 192.516V197.649C174.212 198.063 174.583 198.4 175.041 198.4H182.222C182.68 198.4 183.051 198.063 183.051 197.649V192.516C183.051 192.101 182.68 191.765 182.222 191.765H175.041C174.583 191.765 174.212 192.101 174.212 192.516Z" fill="white"/>
<path d="M187.903 192.516V197.649C187.903 198.063 188.274 198.4 188.732 198.4H195.913C196.371 198.4 196.742 198.063 196.742 197.649V192.516C196.742 192.101 196.371 191.765 195.913 191.765H188.732C188.274 191.765 187.903 192.101 187.903 192.516Z" fill="white"/>
<path d="M132.416 216.184L170.048 239.736L132.416 263.416V216.184Z" fill="white"/>
</svg>
