<svg width="272" height="342" viewBox="0 0 272 342" fill="none" xmlns="http://www.w3.org/2000/svg">
<path d="M34.3681 341.624H17.2161V0.375977H34.3681V341.624Z" fill="#D1D8DE"/>
<path d="M220.48 341.624H29.76V0.375977H271.168V291.064L220.48 341.624Z" fill="#EFF2F4"/>
<path d="M0.832031 136.568V36.856L17.216 52.984V152.824L0.832031 136.568Z" fill="#B73737"/>
<path d="M220.48 291.064H271.168L220.48 341.624V291.064Z" fill="#CFD8DF"/>
<path d="M0.832031 136.568V36.856H180.672V136.568H0.832031Z" fill="#EE4937"/>
<path d="M133.312 247.288C136.384 241.144 139.968 234.36 142.784 227.448L143.936 224.76C140.224 210.68 138.048 199.416 139.968 192.248C140.48 190.328 142.656 189.176 145.088 189.176H146.496H146.752C149.952 189.176 151.488 193.272 151.616 194.808C151.872 197.496 150.72 201.976 150.72 201.976C150.72 200.184 150.848 197.24 149.696 194.68C148.416 191.736 147.136 190.072 145.984 189.688C145.472 190.072 144.832 190.84 144.704 192.376C144.32 194.552 144.192 197.24 144.192 198.648C144.192 203.64 145.216 210.04 147.008 216.824C147.392 215.8 147.648 214.776 147.904 213.88C148.288 212.344 150.72 202.616 150.72 202.616C150.72 202.616 150.08 215.672 149.184 219.512C149.056 220.28 148.8 221.176 148.544 222.072C151.744 230.904 156.736 238.712 162.752 244.344C165.184 246.52 168.128 248.312 170.944 249.976C177.216 249.08 182.848 248.696 187.712 248.696C194.112 248.824 198.72 249.72 200.64 251.64C201.536 252.536 201.92 253.688 202.048 254.84C202.048 255.352 201.792 256.376 201.792 256.76C201.92 256.376 201.92 254.712 196.8 253.176C192.832 251.896 185.28 251.896 176.32 252.92C186.688 258.04 196.928 260.6 200.128 259.064C200.896 258.68 201.92 257.4 201.92 257.4C201.92 257.4 201.408 259.96 200.896 260.6C200.384 261.24 199.36 262.008 198.336 262.264C193.216 263.672 180.032 260.472 168.512 253.944C155.584 255.864 141.504 259.32 130.112 263.032C118.976 282.616 110.656 291.576 103.744 288.12L101.184 286.84C100.16 286.2 100.032 284.792 100.288 283.64C101.056 279.8 105.92 273.912 115.776 268.024C116.8 267.384 121.536 264.952 121.536 264.952C121.536 264.952 118.08 268.28 117.184 268.92C109.376 275.32 103.616 283.384 103.744 286.456V286.712C110.4 285.816 120.384 272.248 133.184 247.16L133.312 247.288ZM137.408 249.336C135.232 253.304 133.184 257.144 131.264 260.472C141.888 255.992 153.408 253.176 164.288 251.128C162.88 250.104 161.344 249.08 160.064 247.928C154.048 242.808 149.44 236.408 146.112 229.752C144.064 235.384 141.504 241.528 137.408 249.336Z" fill="#EE4937"/>
<path d="M34.4961 63.3521H51.2641C55.6161 63.3521 59.0721 64.6321 61.7601 67.3201C64.4481 70.0081 65.7281 73.3361 65.7281 77.5601C65.7281 81.7841 64.4481 85.2401 61.7601 87.8001C59.0721 90.3601 55.6161 91.6401 51.2641 91.6401H41.2801V107.896H34.6241V63.3521H34.4961ZM41.1521 69.1121V86.0081H47.4241C49.3441 86.0081 50.8801 85.8801 52.2881 85.6241C53.5681 85.3681 54.7201 84.9841 55.8721 84.3441C56.8961 83.7041 57.6641 82.8081 58.1761 81.7841C58.6881 80.6321 58.9441 79.2241 58.9441 77.5601C58.9441 74.8721 58.1761 72.8241 56.7681 71.2881C55.3601 69.7521 53.1841 69.1121 50.4961 69.1121H41.2801H41.1521Z" fill="#F1F2F2"/>
<path d="M72.384 63.3521H87.232C90.048 63.3521 92.608 63.7361 94.784 64.3761C96.96 65.1441 98.88 66.0401 100.416 67.3201C101.952 68.6001 103.104 70.1361 104.128 72.0561C105.152 73.9761 105.792 76.0241 106.304 78.2001C106.688 80.3761 106.944 82.8081 106.944 85.4961C106.944 88.1841 106.688 90.4881 106.304 92.7921C105.92 94.9681 105.152 97.0161 104.256 98.9361C103.232 100.856 102.08 102.392 100.544 103.672C99.008 104.952 97.216 105.976 94.912 106.744C92.736 107.512 90.176 107.896 87.232 107.896H72.384V63.3521ZM79.04 69.1121V102.136H86.592C91.072 102.136 94.4 100.728 96.576 98.0401C98.752 95.3521 99.904 91.2561 99.904 85.6241C99.904 83.0641 99.648 80.7601 99.136 78.8401C98.624 76.9201 97.856 75.1281 96.832 73.5921C95.808 72.0561 94.4 71.0321 92.736 70.2641C90.944 69.4961 88.896 69.1121 86.464 69.1121H78.912H79.04Z" fill="#F1F2F2"/>
<path d="M121.664 107.896H114.88V63.3521H141.888V69.1121H121.664V83.4481H140.224V89.2081H121.664V107.896Z" fill="#F1F2F2"/>
</svg>
