<svg width="272" height="342" viewBox="0 0 272 342" fill="none" xmlns="http://www.w3.org/2000/svg">
<path d="M34.3678 341.624H17.2158V0.375977H34.3678V341.624Z" fill="#D1D8DE"/>
<path d="M220.48 341.624H29.7598V0.375977H271.168V291.064L220.48 341.624Z" fill="#EFF2F4"/>
<path d="M0.832031 136.568V36.856L17.216 52.984V152.824L0.832031 136.568Z" fill="#736654"/>
<path d="M220.48 291.064H271.168L220.48 341.624V291.064Z" fill="#CFD8DF"/>
<path d="M0.832031 136.568V36.856H180.672V136.568H0.832031Z" fill="#998B79"/>
<path d="M41.4084 84.9839H50.3684C52.8004 84.9839 54.4644 84.4719 55.6164 83.4479C56.7684 82.4239 57.2804 80.7599 57.2804 78.4559C57.2804 76.2799 56.7684 74.7439 55.6164 73.5919C54.5924 72.4399 52.9284 71.9279 50.7524 71.9279H41.4084V84.8559V84.9839ZM41.4084 93.0479V108.92H32.1924V64.1199H52.0324C56.7684 64.1199 60.2244 65.3999 62.6564 67.8319C65.0884 70.2639 66.2404 73.8479 66.2404 78.5839C66.2404 83.1919 65.0884 86.7759 62.6564 89.2079C60.3524 91.7679 56.8964 92.9199 52.5444 92.9199H41.2804L41.4084 93.0479ZM73.6644 108.92V64.1199H82.8804V80.7599H101.312V64.1199H110.528V108.92H101.312V89.0799H82.8804V108.92H73.6644ZM129.216 84.8559H138.176C140.608 84.8559 142.272 84.3439 143.424 83.3199C144.576 82.2959 145.088 80.6319 145.088 78.3279C145.088 76.1519 144.576 74.6159 143.424 73.4639C142.4 72.3119 140.736 71.7999 138.56 71.7999H129.216V84.7279V84.8559ZM129.216 92.9199V108.792H120V63.9919H139.84C144.576 63.9919 148.032 65.2719 150.464 67.7039C152.896 70.1359 154.048 73.7199 154.048 78.4559C154.048 83.0639 152.896 86.6479 150.464 89.0799C148.16 91.6399 144.704 92.7919 140.352 92.7919H129.088L129.216 92.9199Z" fill="white"/>
<path fill-rule="evenodd" clip-rule="evenodd" d="M185.792 230.904C188.992 230.904 191.04 231.544 192.192 232.696C193.216 233.848 193.472 235.896 192.96 238.712C192.32 241.656 191.296 243.832 189.632 245.112C187.968 246.392 185.408 247.032 182.08 247.032H176.96L180.032 230.904H185.792ZM142.4 214.648H150.72L148.672 224.888H156.096C160.704 224.888 163.904 225.656 165.696 227.32C167.488 228.984 168 231.544 167.232 235.256L163.776 253.176H155.328L158.656 236.152C159.04 234.232 158.912 232.952 158.272 232.184C157.632 231.544 156.224 231.16 154.048 231.16H147.392L143.168 253.176H134.848L142.272 214.776L142.4 214.648ZM120.512 230.904C123.712 230.904 125.76 231.544 126.912 232.696C127.936 233.848 128.192 235.896 127.68 238.712C127.04 241.656 126.016 243.832 124.352 245.112C122.688 246.392 120.128 247.032 116.8 247.032H111.68L114.752 230.904H120.512ZM100.16 263.288H108.48L110.528 253.048H117.696C120.896 253.048 123.456 252.664 125.504 252.024C127.552 251.384 129.344 250.232 131.136 248.696C132.544 247.416 133.696 246.008 134.592 244.472C135.488 242.936 136.128 241.144 136.384 239.352C137.28 234.744 136.64 231.288 134.336 228.728C132.16 226.168 128.576 224.888 123.712 224.888H107.584L100.16 263.288ZM165.568 263.288H173.888L175.936 253.048H183.104C186.304 253.048 188.864 252.664 190.912 252.024C192.96 251.384 194.752 250.232 196.544 248.696C197.952 247.416 199.104 246.008 200 244.472C200.896 242.936 201.536 241.144 201.792 239.352C202.688 234.744 202.048 231.288 199.744 228.728C197.568 226.168 193.984 224.888 189.12 224.888H172.992L165.568 263.288Z" fill="#333333"/>
</svg>
