<svg width="272" height="342" viewBox="0 0 272 342" fill="none" xmlns="http://www.w3.org/2000/svg">
<path d="M34.3678 341.624H17.2158V0.375977H34.3678V341.624Z" fill="#D1D8DE"/>
<path d="M220.48 341.624H29.7598V0.375977H271.168V291.064L220.48 341.624Z" fill="#EFF2F4"/>
<path d="M0.832031 136.568V36.856L17.216 52.984V152.824L0.832031 136.568Z" fill="#143E7A"/>
<path d="M220.48 291.064H271.168L220.48 341.624V291.064Z" fill="#CFD8DF"/>
<path d="M0.832031 136.568V36.856H180.672V136.568H0.832031Z" fill="#235395"/>
<path d="M38.7199 84.984H47.6799C50.1119 84.984 51.7759 84.472 52.9279 83.448C54.0799 82.424 54.5919 80.76 54.5919 78.456C54.5919 76.28 54.0799 74.744 52.9279 73.592C51.9039 72.44 50.2399 71.928 48.0639 71.928H38.7199V84.856V84.984ZM38.7199 93.048V108.92H29.5039V64.12H49.3439C54.0799 64.12 57.5359 65.4 59.9679 67.832C62.3999 70.264 63.5519 73.848 63.5519 78.584C63.5519 83.192 62.3999 86.776 59.9679 89.208C57.6639 91.768 54.2079 92.92 49.8559 92.92H38.5919L38.7199 93.048ZM70.9759 108.92V64.12H80.5759L98.7519 94.84V64.12H107.84V108.92H98.3679L80.0639 78.2V108.92H70.9759ZM149.312 103.672C147.648 105.976 145.728 107.512 143.68 108.664C141.504 109.688 139.072 110.2 136.256 110.2C129.984 110.2 124.992 108.024 121.024 103.672C117.184 99.32 115.264 93.56 115.264 86.52C115.264 79.352 117.184 73.72 121.024 69.368C124.864 65.144 129.984 62.968 136.512 62.968C142.144 62.968 146.752 64.248 150.208 66.936C153.792 69.624 155.84 73.336 156.48 78.072H147.136C146.624 75.768 145.472 73.976 143.68 72.824C141.888 71.672 139.584 71.032 136.768 71.032C133.056 71.032 130.112 72.44 127.936 75.128C125.76 77.816 124.736 81.656 124.736 86.52C124.736 91.384 125.888 95.224 128.064 97.912C130.24 100.6 133.312 102.008 137.28 102.008C140.224 102.008 142.656 101.112 144.576 99.448C146.496 97.784 147.776 95.352 148.16 92.408H138.048V84.728H156.608V108.92H150.464L149.312 103.672Z" fill="white"/>
<path fill-rule="evenodd" clip-rule="evenodd" d="M202.048 189.176H176.576V214.008H202.048V189.176Z" fill="white"/>
<path fill-rule="evenodd" clip-rule="evenodd" d="M176.576 189.176H151.232V214.008H176.576V189.176Z" fill="#D1D3D3"/>
<path fill-rule="evenodd" clip-rule="evenodd" d="M151.232 189.176H125.76V214.008H151.232V189.176Z" fill="white"/>
<path fill-rule="evenodd" clip-rule="evenodd" d="M125.76 189.176H100.288V214.008H125.76V189.176Z" fill="#D1D3D3"/>
<path fill-rule="evenodd" clip-rule="evenodd" d="M125.76 214.008H100.288V238.968H125.76V214.008Z" fill="white"/>
<path fill-rule="evenodd" clip-rule="evenodd" d="M151.232 214.008H125.76V238.968H151.232V214.008Z" fill="#D1D3D3"/>
<path fill-rule="evenodd" clip-rule="evenodd" d="M176.576 214.008H151.232V238.968H176.576V214.008Z" fill="white"/>
<path fill-rule="evenodd" clip-rule="evenodd" d="M202.048 214.008H176.576V238.968H202.048V214.008Z" fill="#D1D3D3"/>
<path fill-rule="evenodd" clip-rule="evenodd" d="M202.048 238.968H176.576V263.8H202.048V238.968Z" fill="white"/>
<path fill-rule="evenodd" clip-rule="evenodd" d="M176.576 238.968H151.232V263.8H176.576V238.968Z" fill="#D1D3D3"/>
<path fill-rule="evenodd" clip-rule="evenodd" d="M151.232 238.968H125.76V263.8H151.232V238.968Z" fill="white"/>
<path fill-rule="evenodd" clip-rule="evenodd" d="M125.76 238.968H100.288V263.8H125.76V238.968Z" fill="#D1D3D3"/>
<path fill-rule="evenodd" clip-rule="evenodd" d="M125.76 263.8H100.288V288.632H125.76V263.8Z" fill="white"/>
<path fill-rule="evenodd" clip-rule="evenodd" d="M151.232 263.8H125.76V288.632H151.232V263.8Z" fill="#D1D3D3"/>
<path fill-rule="evenodd" clip-rule="evenodd" d="M176.576 263.8H151.232V288.632H176.576V263.8Z" fill="white"/>
<path fill-rule="evenodd" clip-rule="evenodd" d="M202.048 263.8H176.576V288.632H202.048V263.8Z" fill="#D1D3D3"/>
<path fill-rule="evenodd" clip-rule="evenodd" d="M122.432 250.488L142.656 283.896C153.664 265.848 164.544 211.576 175.552 229.624L202.176 273.528V288.76H100.544V286.968C107.84 274.808 115.264 238.456 122.56 250.488H122.432Z" fill="#007934"/>
</svg>
