<svg width="272" height="342" viewBox="0 0 272 342" fill="none" xmlns="http://www.w3.org/2000/svg">
<path d="M34.3678 341.624H17.2158V0.375977H34.3678V341.624Z" fill="#D1D8DE"/>
<path d="M220.48 341.624H29.7598V0.375977H271.168V291.064L220.48 341.624Z" fill="#EFF2F4"/>
<path d="M0.832031 136.568V36.856L17.216 52.984V152.824L0.832031 136.568Z" fill="#0F2F68"/>
<path d="M220.48 291.064H271.168L220.48 341.624V291.064Z" fill="#D1D8DE"/>
<path d="M0.832031 136.568V36.856H180.672V136.568H0.832031Z" fill="#0C44A1"/>
<path d="M64.4484 84.9839H73.4084C75.8404 84.9839 77.5044 84.4719 78.6564 83.4479C79.8084 82.4239 80.3204 80.7599 80.3204 78.4559C80.3204 76.2799 79.8084 74.7439 78.6564 73.5919C77.6324 72.4399 75.9684 71.9279 73.7924 71.9279H64.4484V84.8559V84.9839ZM64.4484 93.0479V108.92H55.2324V64.1199H75.0724C79.8084 64.1199 83.2644 65.3999 85.6964 67.8319C88.1284 70.2639 89.2804 73.8479 89.2804 78.5839C89.2804 83.1919 88.1284 86.7759 85.6964 89.2079C83.3924 91.7679 79.9364 92.9199 75.5844 92.9199H64.3204L64.4484 93.0479ZM94.6564 95.0959H103.744C104.128 97.5279 105.152 99.3199 106.688 100.6C108.352 101.752 110.784 102.392 113.856 102.392C116.544 102.392 118.592 101.88 119.872 100.984C121.28 100.088 121.92 98.6799 121.92 96.7599C121.92 94.0719 118.08 91.7679 110.272 89.9759H110.016C109.76 89.9759 109.504 89.8479 109.12 89.7199C104.896 88.8239 101.952 87.7999 100.16 86.6479C98.6244 85.6239 97.3444 84.2159 96.5764 82.5519C95.8084 80.8879 95.2964 78.8399 95.2964 76.5359C95.2964 72.1839 96.8324 68.8559 99.7764 66.5519C102.72 64.2479 106.944 63.0959 112.576 63.0959C117.824 63.0959 121.92 64.3759 124.864 66.8079C127.808 69.2399 129.344 72.8239 129.472 77.3039H120.64C120.512 75.1279 119.616 73.4639 118.208 72.3119C116.672 71.1599 114.624 70.6479 111.808 70.6479C109.376 70.6479 107.584 71.1599 106.176 72.0559C104.896 72.9519 104.256 74.3599 104.256 76.0239C104.256 78.4559 106.816 80.1199 111.936 81.3999C113.344 81.7839 114.368 81.9119 115.136 82.1679C118.336 82.9359 120.768 83.7039 122.048 84.0879C123.456 84.5999 124.608 85.1119 125.632 85.6239C127.424 86.6479 128.832 87.9279 129.728 89.5919C130.624 91.2559 131.136 93.3039 131.136 95.6079C131.136 100.216 129.6 103.928 126.4 106.488C123.2 109.048 118.848 110.328 113.088 110.328C107.456 110.328 102.976 109.048 99.9044 106.36C96.7044 103.8 95.0404 100.088 94.7844 95.2239L94.6564 95.0959Z" fill="white"/>
<path fill-rule="evenodd" clip-rule="evenodd" d="M193.728 288.888C193.088 290.04 164.928 272.76 144.32 253.048L157.76 239.864C177.472 260.344 195.776 286.968 193.856 289.016L193.728 288.888Z" fill="#886C60"/>
<path fill-rule="evenodd" clip-rule="evenodd" d="M159.039 252.152C163.391 250.104 166.335 246.136 166.335 241.656C166.335 235 159.807 229.624 151.743 229.624C146.879 229.624 142.399 231.672 139.839 234.744C127.423 250.104 114.495 239.48 112.191 231.672C106.943 213.88 128.703 190.328 154.687 190.328C180.671 190.328 201.663 207.096 201.663 227.96C201.663 247.544 179.775 269.432 159.167 265.464C148.927 263.416 156.607 253.688 158.911 252.408L159.039 252.152Z" fill="#6EB1E1"/>
<path fill-rule="evenodd" clip-rule="evenodd" d="M175.168 239.864C175.168 243.448 178.88 246.392 183.488 246.392C188.096 246.392 191.808 243.448 191.808 239.864C191.808 236.28 188.096 233.336 183.488 233.336C178.88 233.336 175.168 236.28 175.168 239.864Z" fill="#FF0000"/>
<path fill-rule="evenodd" clip-rule="evenodd" d="M173.12 219C173.12 222.584 176.832 225.528 181.44 225.528C186.048 225.528 189.76 222.584 189.76 219C189.76 215.416 186.048 212.472 181.44 212.472C176.832 212.472 173.12 215.416 173.12 219Z" fill="#FF6600"/>
<path fill-rule="evenodd" clip-rule="evenodd" d="M152 206.072C152 209.656 155.712 212.6 160.32 212.6C164.928 212.6 168.64 209.656 168.64 206.072C168.64 202.488 164.928 199.544 160.32 199.544C155.712 199.544 152 202.488 152 206.072Z" fill="#99FF00"/>
<path fill-rule="evenodd" clip-rule="evenodd" d="M125.888 215.032C125.888 218.616 129.6 221.56 134.208 221.56C138.816 221.56 142.528 218.616 142.528 215.032C142.528 211.448 138.816 208.504 134.208 208.504C129.6 208.504 125.888 211.448 125.888 215.032Z" fill="#FFCC00"/>
<path fill-rule="evenodd" clip-rule="evenodd" d="M116.288 211.96C119.488 208.76 128.192 211.96 144.448 226.808L131.264 239.992C116.288 223.864 113.088 215.288 116.288 211.96Z" fill="#F0582F"/>
<path fill-rule="evenodd" clip-rule="evenodd" d="M131.264 239.992L144.448 226.808C146.88 228.984 155.968 237.944 157.76 239.864L144.32 253.048C142.4 251.256 133.568 242.424 131.392 239.992H131.264Z" fill="#886C60"/>
<path fill-rule="evenodd" clip-rule="evenodd" d="M116.288 211.96C114.24 214.008 114.88 218.36 119.36 225.272L127.04 218.104L130.112 215.288C128.832 214.392 127.552 213.624 126.4 213.112C121.28 210.424 118.08 210.296 116.288 211.96Z" fill="white"/>
<path fill-rule="evenodd" clip-rule="evenodd" d="M118.848 213.88C121.024 211.704 122.688 207.096 117.568 201.592C112.448 196.088 102.976 194.808 102.464 188.024C102.464 188.024 95.6799 203.256 104.256 211.704C110.656 218.232 115.52 217.08 118.848 213.88Z" fill="#393D47"/>
</svg>
