<svg width="272" height="342" viewBox="0 0 272 342" fill="none" xmlns="http://www.w3.org/2000/svg">
<path d="M34.3678 341.624H17.2158V0.375977H34.3678V341.624Z" fill="#D1D8DE"/>
<path d="M220.48 341.624H29.7598V0.375977H271.168V291.064L220.48 341.624Z" fill="#EFF2F4"/>
<path d="M0.832031 136.568V36.856L17.216 52.984V152.824L0.832031 136.568Z" fill="#2F69DE"/>
<path d="M220.48 291.064H271.168L220.48 341.624V291.064Z" fill="#CFD8DF"/>
<path d="M0.832031 136.568V36.856H180.672V136.568H0.832031Z" fill="#3C76E7"/>
<path d="M41.9201 84.9839H50.8801C53.3121 84.9839 54.9761 84.4719 56.1281 83.4479C57.2801 82.4239 57.7921 80.7599 57.7921 78.4559C57.7921 76.2799 57.2801 74.7439 56.1281 73.5919C55.1041 72.4399 53.4401 71.9279 51.2641 71.9279H41.9201V84.8559V84.9839ZM41.9201 93.0479V108.92H32.7041V64.1199H52.5441C57.2801 64.1199 60.7361 65.3999 63.1681 67.8319C65.6001 70.2639 66.7521 73.8479 66.7521 78.5839C66.7521 83.1919 65.6001 86.7759 63.1681 89.2079C60.8641 91.7679 57.4081 92.9199 53.0561 92.9199H41.7921L41.9201 93.0479ZM72.1281 95.0959H81.2161C81.6001 97.5279 82.6241 99.3199 84.1601 100.6C85.8241 101.752 88.2561 102.392 91.3281 102.392C94.0161 102.392 96.0641 101.88 97.3441 100.984C98.7521 100.088 99.3921 98.6799 99.3921 96.7599C99.3921 94.0719 95.5521 91.7679 87.7441 89.9759H87.4881C87.2321 89.9759 86.9761 89.8479 86.5921 89.7199C82.3681 88.8239 79.4241 87.7999 77.6321 86.6479C76.0961 85.6239 74.8161 84.2159 74.0481 82.5519C73.2801 80.8879 72.7681 78.8399 72.7681 76.5359C72.7681 72.1839 74.3041 68.8559 77.2481 66.5519C80.1921 64.2479 84.4161 63.0959 90.0481 63.0959C95.2961 63.0959 99.3921 64.3759 102.336 66.8079C105.28 69.2399 106.816 72.8239 106.944 77.3039H98.1121C97.9841 75.1279 97.0881 73.4639 95.6801 72.3119C94.1441 71.1599 92.0961 70.6479 89.2801 70.6479C86.8481 70.6479 85.0561 71.1599 83.6481 72.0559C82.3681 72.9519 81.7281 74.3599 81.7281 76.0239C81.7281 78.4559 84.2881 80.1199 89.4081 81.3999C90.8161 81.7839 91.8401 81.9119 92.6081 82.1679C95.8081 82.9359 98.2401 83.7039 99.5201 84.0879C100.928 84.5999 102.08 85.1119 103.104 85.6239C104.896 86.6479 106.304 87.9279 107.2 89.5919C108.096 91.2559 108.608 93.3039 108.608 95.6079C108.608 100.216 107.072 103.928 103.872 106.488C100.672 109.048 96.3201 110.328 90.5601 110.328C84.9281 110.328 80.4481 109.048 77.3761 106.36C74.1761 103.8 72.5121 100.088 72.2561 95.2239L72.1281 95.0959ZM124.736 100.856H132.16C136.384 100.856 139.584 99.7039 141.504 97.5279C143.424 95.3519 144.32 91.6399 144.32 86.6479C144.32 81.6559 143.424 77.9439 141.632 75.6399C139.84 73.3359 137.024 72.0559 133.312 72.0559H124.864V100.856H124.736ZM115.776 108.92V64.1199H133.312C140.224 64.1199 145.344 66.0399 148.672 69.6239C152 73.3359 153.792 78.9679 153.792 86.5199C153.792 90.6159 153.152 94.1999 151.872 97.3999C150.592 100.472 148.8 103.032 146.496 104.952C144.704 106.36 142.656 107.384 140.48 108.024C138.176 108.664 134.976 108.92 130.88 108.92H115.904H115.776Z" fill="white"/>
<path fill-rule="evenodd" clip-rule="evenodd" d="M115.392 248.696H187.072L202.304 270.328H100.032L115.392 248.696Z" fill="#666666"/>
<path fill-rule="evenodd" clip-rule="evenodd" d="M115.392 236.408H187.072L202.304 258.04H100.032L115.392 236.408Z" fill="#808080"/>
<path fill-rule="evenodd" clip-rule="evenodd" d="M115.392 224.12H187.072L202.304 245.752H100.032L115.392 224.12Z" fill="#999999"/>
<path fill-rule="evenodd" clip-rule="evenodd" d="M201.92 288.76C188.096 283.256 143.68 249.592 134.592 240.76L148.16 227.192C158.272 235.512 197.184 278.008 201.92 288.76Z" fill="#994A28"/>
<path fill-rule="evenodd" clip-rule="evenodd" d="M118.08 212.728C121.408 209.4 130.624 212.472 148.288 227.064L134.72 240.632C118.592 224.632 114.88 216.056 118.208 212.728H118.08Z" fill="#E6B800"/>
<path fill-rule="evenodd" clip-rule="evenodd" d="M120.896 214.648C123.2 212.344 124.864 207.736 119.36 202.36C113.856 196.984 103.744 195.832 102.976 189.048C102.976 189.048 96.1921 204.536 105.408 212.856C112.32 219.256 117.568 218.104 120.896 214.648Z" fill="#393D47"/>
</svg>
