<svg width="272" height="342" viewBox="0 0 272 342" fill="none" xmlns="http://www.w3.org/2000/svg">
<path d="M34.3678 341.624H17.2158V0.375977H34.3678V341.624Z" fill="#D1D8DE"/>
<path d="M220.48 341.624H29.7603V0.375977H271.168V291.064L220.48 341.624Z" fill="#EFF2F4"/>
<path d="M0.832031 136.568V36.856L17.216 52.984V152.824L0.832031 136.568Z" fill="#37BA67"/>
<path d="M220.48 291.064H271.168L220.48 341.624V291.064Z" fill="#CFD8DF"/>
<path d="M0.832031 136.568V36.856H180.672V136.568H0.832031Z" fill="#4DD680"/>
<path d="M40.256 83.832H51.136C53.44 83.832 55.232 83.32 56.256 82.424C57.408 81.528 57.92 79.992 57.92 77.944C57.92 76.024 57.408 74.488 56.256 73.464C55.232 72.44 53.568 71.928 51.52 71.928H40.256V83.832ZM31.04 109.048V64.248H52.8C57.664 64.248 61.248 65.272 63.68 67.32C65.984 69.368 67.264 72.568 67.264 76.92C67.264 79.608 66.752 81.912 65.6 83.704C64.448 85.496 62.784 86.776 60.608 87.416C62.528 88.056 63.936 89.208 64.704 90.616C65.472 92.024 65.984 94.2 66.112 97.272L66.24 102.52V102.648C66.24 105.336 66.88 107 68.032 107.512V108.92H57.92C57.536 108.28 57.408 107.512 57.152 106.616C57.024 105.72 56.896 104.568 56.896 103.288L56.768 98.552C56.64 95.736 56.128 93.944 55.232 92.92C54.336 91.896 52.544 91.512 50.112 91.512H40.384V108.92H31.168L31.04 109.048ZM92.096 73.208L85.952 92.28H98.368L92.096 73.208ZM86.72 64.248H97.344L113.472 109.048H103.744L100.672 99.832H83.392L80.448 109.048H70.72L86.592 64.248H86.72ZM127.296 83.832H138.176C140.48 83.832 142.272 83.32 143.296 82.424C144.448 81.528 144.96 79.992 144.96 77.944C144.96 76.024 144.448 74.488 143.296 73.464C142.272 72.44 140.608 71.928 138.56 71.928H127.296V83.832ZM118.08 109.048V64.248H139.84C144.704 64.248 148.288 65.272 150.72 67.32C153.024 69.368 154.304 72.568 154.304 76.92C154.304 79.608 153.792 81.912 152.64 83.704C151.488 85.496 149.824 86.776 147.648 87.416C149.568 88.056 150.976 89.208 151.744 90.616C152.512 92.024 153.024 94.2 153.152 97.272L153.28 102.52V102.648C153.28 105.336 153.92 107 155.072 107.512V108.92H144.96C144.576 108.28 144.448 107.512 144.192 106.616C144.064 105.72 143.936 104.568 143.936 103.288L143.808 98.552C143.68 95.736 143.168 93.944 142.272 92.92C141.376 91.896 139.584 91.512 137.152 91.512H127.424V108.92H118.208L118.08 109.048Z" fill="white"/>
<path fill-rule="evenodd" clip-rule="evenodd" d="M186.432 205.944H199.232V261.88H186.432V205.944Z" fill="#A4A9AD"/>
<path fill-rule="evenodd" clip-rule="evenodd" d="M202.176 246.776L183.488 250.104V255.864L202.176 252.408V246.776Z" fill="#D1D3D3"/>
<path fill-rule="evenodd" clip-rule="evenodd" d="M202.176 235.128L183.488 238.584V244.216L202.176 240.888V235.128Z" fill="#D1D3D3"/>
<path fill-rule="evenodd" clip-rule="evenodd" d="M202.176 223.608L183.488 226.936V232.696L202.176 229.24V223.608Z" fill="#D1D3D3"/>
<path fill-rule="evenodd" clip-rule="evenodd" d="M202.176 211.96L183.488 215.416V221.048L202.176 217.72V211.96Z" fill="#D1D3D3"/>
<path fill-rule="evenodd" clip-rule="evenodd" d="M188.608 265.976H197.184V282.104H188.608V265.976Z" fill="#A4A9AD"/>
<path fill-rule="evenodd" clip-rule="evenodd" d="M183.488 259.576L166.08 266.232H113.472L119.744 276.728H166.08L183.488 270.2H202.176V259.576H183.488Z" fill="#A4A9AD"/>
<path fill-rule="evenodd" clip-rule="evenodd" d="M183.488 208.248L166.08 201.592H113.472L119.744 191.096H166.08L183.488 197.624H202.176V208.248H183.488Z" fill="#A4A9AD"/>
<path fill-rule="evenodd" clip-rule="evenodd" d="M100.288 201.592H163.904V266.232H100.288V201.592Z" fill="#4DD680"/>
<path fill-rule="evenodd" clip-rule="evenodd" d="M109.76 209.784H154.432V230.136H109.76V209.784Z" fill="#41B56C"/>
<path fill-rule="evenodd" clip-rule="evenodd" d="M124.864 215.672H139.328V219.256H124.864V215.672Z" fill="white"/>
<path fill-rule="evenodd" clip-rule="evenodd" d="M109.76 237.688H154.432V258.04H109.76V237.688Z" fill="#41B56C"/>
<path fill-rule="evenodd" clip-rule="evenodd" d="M124.864 243.576H139.328V247.16H124.864V243.576Z" fill="white"/>
<path fill-rule="evenodd" clip-rule="evenodd" d="M183.488 276.728H202.176V287.352H183.488V276.728Z" fill="#A4A9AD"/>
</svg>
