<svg width="272" height="342" viewBox="0 0 272 342" fill="none" xmlns="http://www.w3.org/2000/svg">
<path d="M34.3678 341.624H17.2158V0.375977H34.3678V341.624Z" fill="#D1D8DE"/>
<path d="M220.48 341.624H29.7603V0.375977H271.168V291.064L220.48 341.624Z" fill="#EFF2F4"/>
<path d="M0.832031 136.568V36.856L17.216 52.984V152.824L0.832031 136.568Z" fill="#8F2F59"/>
<path d="M220.48 291.064H271.168L220.48 341.624V291.064Z" fill="#CFD8DF"/>
<path d="M0.832031 136.568V36.856H180.672V136.568H0.832031Z" fill="#A33F6B"/>
<path d="M30.144 94.328H39.232C39.616 96.76 40.64 98.552 42.176 99.832C43.84 100.984 46.272 101.624 49.344 101.624C52.032 101.624 54.08 101.112 55.36 100.216C56.768 99.32 57.408 97.912 57.408 95.992C57.408 93.304 53.568 91 45.76 89.208H45.504C45.248 89.208 44.992 89.08 44.608 88.952C40.384 88.056 37.44 87.032 35.648 85.88C34.112 84.856 32.832 83.448 32.064 81.784C31.296 80.12 30.784 78.072 30.784 75.768C30.784 71.416 32.32 68.088 35.264 65.784C38.208 63.48 42.432 62.328 48.064 62.328C53.312 62.328 57.408 63.608 60.352 66.04C63.296 68.472 64.832 72.056 64.96 76.536H56.128C56 74.36 55.104 72.696 53.696 71.544C52.16 70.392 50.112 69.88 47.296 69.88C44.864 69.88 43.072 70.392 41.664 71.288C40.384 72.184 39.744 73.592 39.744 75.256C39.744 77.688 42.304 79.352 47.424 80.632C48.832 81.016 49.856 81.144 50.624 81.4C53.824 82.168 56.256 82.936 57.536 83.32C58.944 83.832 60.096 84.344 61.12 84.856C62.912 85.88 64.32 87.16 65.216 88.824C66.112 90.488 66.624 92.536 66.624 94.84C66.624 99.448 65.088 103.16 61.888 105.72C58.688 108.28 54.336 109.56 48.576 109.56C42.944 109.56 38.464 108.28 35.392 105.592C32.192 103.032 30.528 99.32 30.272 94.456L30.144 94.328ZM99.008 100.216L94.272 95.608L99.264 90.36L104.128 95.096C104.768 93.944 105.28 92.536 105.664 90.872C106.048 89.336 106.176 87.672 106.176 85.752C106.176 80.888 105.024 77.048 102.848 74.232C100.672 71.544 97.6 70.136 93.632 70.136C89.664 70.136 86.592 71.544 84.416 74.232C82.24 76.92 81.088 80.76 81.088 85.752C81.088 90.616 82.24 94.456 84.416 97.272C86.592 99.96 89.664 101.368 93.632 101.368C94.656 101.368 95.552 101.24 96.448 101.112C97.344 100.856 98.24 100.6 99.008 100.216ZM105.536 106.36C104 107.384 102.208 108.152 100.288 108.664C98.24 109.176 96.064 109.432 93.76 109.432C87.104 109.432 81.728 107.256 77.76 103.032C73.792 98.808 71.872 93.048 71.872 85.88C71.872 78.712 73.792 72.952 77.76 68.728C81.728 64.504 86.976 62.328 93.76 62.328C100.416 62.328 105.792 64.504 109.76 68.728C113.728 72.952 115.648 78.712 115.648 85.88C115.648 89.08 115.264 91.896 114.496 94.584C113.728 97.144 112.448 99.448 110.912 101.496L115.776 106.104L110.784 111.352L105.664 106.36H105.536ZM122.816 108.28V63.48H132.032V99.96H153.92V108.28H122.816Z" fill="white"/>
<path d="M151.104 269.432C179.169 269.432 201.92 263.357 201.92 255.864C201.92 248.37 179.169 242.296 151.104 242.296C123.039 242.296 100.288 248.37 100.288 255.864C100.288 263.357 123.039 269.432 151.104 269.432Z" fill="#DC9D46"/>
<path fill-rule="evenodd" clip-rule="evenodd" d="M201.92 275.064C201.92 282.488 179.136 288.632 151.104 288.632C122.944 288.632 100.16 282.616 100.16 275.064C100.16 268.792 100.288 262.648 100.288 256.376C101.696 263.544 123.84 269.176 151.104 269.176C178.368 269.176 200.512 263.544 201.92 256.376C201.92 262.648 202.048 268.92 202.048 275.064H201.92Z" fill="#FFB74D"/>
<path d="M151.104 242.936C179.169 242.936 201.92 236.861 201.92 229.368C201.92 221.875 179.169 215.8 151.104 215.8C123.039 215.8 100.288 221.875 100.288 229.368C100.288 236.861 123.039 242.936 151.104 242.936Z" fill="#DC9D46"/>
<path fill-rule="evenodd" clip-rule="evenodd" d="M201.92 248.568C201.92 255.992 179.136 262.136 151.104 262.136C122.944 262.136 100.16 256.12 100.16 248.568C100.16 242.296 100.288 236.152 100.288 229.88C101.696 237.048 123.84 242.68 151.104 242.68C178.368 242.68 200.512 237.048 201.92 229.88C201.92 236.152 202.048 242.424 202.048 248.568H201.92Z" fill="#FFB74D"/>
<path d="M151.104 216.184C179.169 216.184 201.92 210.109 201.92 202.616C201.92 195.123 179.169 189.048 151.104 189.048C123.039 189.048 100.288 195.123 100.288 202.616C100.288 210.109 123.039 216.184 151.104 216.184Z" fill="#DC9D46"/>
<path fill-rule="evenodd" clip-rule="evenodd" d="M201.92 221.944C201.92 229.368 179.136 235.512 151.104 235.512C122.944 235.512 100.16 229.496 100.16 221.944C100.16 215.672 100.288 209.528 100.288 203.256C101.696 210.424 123.84 216.056 151.104 216.056C178.368 216.056 200.512 210.424 201.92 203.256C201.92 209.528 202.048 215.8 202.048 221.944H201.92Z" fill="#FFB74D"/>
</svg>
