<svg width="272" height="342" viewBox="0 0 272 342" fill="none" xmlns="http://www.w3.org/2000/svg">
<path d="M34.3678 341.624H17.2158V0.375977H34.3678V341.624Z" fill="#D1D8DE"/>
<path d="M220.48 341.624H29.7603V0.375977H271.168V291.064L220.48 341.624Z" fill="#EFF2F4"/>
<path d="M0.832031 136.568V36.856L17.216 52.984V152.824L0.832031 136.568Z" fill="#004478"/>
<path d="M220.48 291.064H271.168L220.48 341.624V291.064Z" fill="#CFD8DF"/>
<path d="M0.832031 136.568V36.856H180.672V136.568H0.832031Z" fill="#01579B"/>
<path d="M48.5762 109.048V72.312H35.2642V64.376H70.9762V72.312H57.7922V109.048H48.5762ZM71.3602 109.048L85.4402 86.264L71.3602 64.376H81.9842L91.0722 79.992L100.16 64.376H110.912L96.8322 86.264L110.912 109.176H100.288L91.2002 93.688L82.1122 109.176H71.4882L71.3602 109.048ZM124.48 109.048V72.312H111.168V64.376H146.88V72.312H133.696V109.048H124.48Z" fill="white"/>
<path fill-rule="evenodd" clip-rule="evenodd" d="M100.416 277.112H143.296V288.632H100.416V277.112Z" fill="#004478"/>
<path fill-rule="evenodd" clip-rule="evenodd" d="M100.416 255.096H193.472V266.616H100.416V255.096Z" fill="#004478"/>
<path fill-rule="evenodd" clip-rule="evenodd" d="M100.416 233.208H202.176V244.6H100.416V233.208Z" fill="#004478"/>
<path fill-rule="evenodd" clip-rule="evenodd" d="M100.416 211.192H171.584V222.584H100.416V211.192Z" fill="#004478"/>
<path fill-rule="evenodd" clip-rule="evenodd" d="M100.416 189.176H202.176V200.568H100.416V189.176Z" fill="#004478"/>
</svg>
