<svg width="272" height="342" viewBox="0 0 272 342" fill="none" xmlns="http://www.w3.org/2000/svg">
<path d="M34.3681 341.624H17.2161V0.375977H34.3681V341.624Z" fill="#D1D8DE"/>
<path d="M220.48 341.624H29.76V0.375977H271.168V291.064L220.48 341.624Z" fill="#EFF2F4"/>
<path d="M0.832031 136.568V36.856L17.216 52.984V152.824L0.832031 136.568Z" fill="#00662C"/>
<path d="M220.48 291.064H271.168L220.48 341.624V291.064Z" fill="#D1D8DE"/>
<path d="M0.832031 136.568V36.856H180.672V136.568H0.832031Z" fill="#007934"/>
<path d="M33.6001 109.048L47.6801 86.264L33.6001 64.376H44.2241L53.3121 79.992L62.4001 64.376H73.1521L59.0721 86.264L73.1521 109.176H62.5281L53.4401 93.688L44.3521 109.176H33.7281L33.6001 109.048ZM77.5041 109.048V64.248H86.7201V100.728H108.608V109.048H77.5041ZM111.552 95.224H120.64C121.024 97.656 122.048 99.448 123.584 100.728C125.248 101.88 127.68 102.52 130.752 102.52C133.44 102.52 135.488 102.008 136.768 101.112C138.176 100.216 138.816 98.808 138.816 96.888C138.816 94.2 134.976 91.896 127.168 90.104H126.912C126.656 90.104 126.4 89.976 126.016 89.848C121.792 88.952 118.848 87.928 117.056 86.776C115.52 85.752 114.24 84.344 113.472 82.68C112.704 81.016 112.192 78.968 112.192 76.664C112.192 72.312 113.728 68.984 116.672 66.68C119.616 64.376 123.84 63.224 129.472 63.224C134.72 63.224 138.816 64.504 141.76 66.936C144.704 69.368 146.24 72.952 146.368 77.432H137.536C137.408 75.256 136.512 73.592 135.104 72.44C133.568 71.288 131.52 70.776 128.704 70.776C126.272 70.776 124.48 71.288 123.072 72.184C121.792 73.08 121.152 74.488 121.152 76.152C121.152 78.584 123.712 80.248 128.832 81.528C130.24 81.912 131.264 82.04 132.032 82.296C135.232 83.064 137.664 83.832 138.944 84.216C140.352 84.728 141.504 85.24 142.528 85.752C144.32 86.776 145.728 88.056 146.624 89.72C147.52 91.384 148.032 93.432 148.032 95.736C148.032 100.344 146.496 104.056 143.296 106.616C140.096 109.176 135.744 110.456 129.984 110.456C124.352 110.456 119.872 109.176 116.8 106.488C113.6 103.928 111.936 100.216 111.68 95.352L111.552 95.224Z" fill="white"/>
<path fill-rule="evenodd" clip-rule="evenodd" d="M100.416 189.048H202.176V288.76H100.416V189.048Z" fill="#007934"/>
<path fill-rule="evenodd" clip-rule="evenodd" d="M108.864 197.624V280.184H193.6V197.624H108.864Z" fill="white"/>
<path fill-rule="evenodd" clip-rule="evenodd" d="M184.384 252.024H159.04L166.464 261.368L159.04 270.712H184.384L176.96 261.368L184.384 252.024Z" fill="#01692E"/>
<path fill-rule="evenodd" clip-rule="evenodd" d="M178.24 219.128H153.92L148.544 225.912L143.168 219.128H118.848L136.384 241.016L118.848 262.904H178.24L160.704 241.016L178.24 219.128ZM129.216 222.2H125.632L155.84 259.832H159.424L129.216 222.2Z" fill="#007934"/>
</svg>
