<svg width="272" height="342" viewBox="0 0 272 342" fill="none" xmlns="http://www.w3.org/2000/svg">
<path d="M34.3681 341.624H17.2161V0.375977H34.3681V341.624Z" fill="#D1D8DE"/>
<path d="M220.48 341.624H29.76V0.375977H271.168V291.064L220.48 341.624Z" fill="#EFF2F4"/>
<path d="M0.832031 136.568V36.856L17.216 52.984V152.824L0.832031 136.568Z" fill="#00692D"/>
<path d="M220.48 291.064H271.168L220.48 341.624V291.064Z" fill="#D1D8DE"/>
<path d="M0.832031 136.568V36.856H202.176V136.568H0.832031Z" fill="#007934"/>
<path d="M23.488 109.048L37.568 86.264L23.488 64.376H34.112L43.2 79.992L52.288 64.376H63.04L48.96 86.264L63.04 109.176H52.416L43.328 93.688L34.24 109.176H23.616L23.488 109.048ZM67.392 109.048V64.248H76.608V100.728H98.496V109.048H67.392ZM101.44 95.224H110.528C110.912 97.656 111.936 99.448 113.472 100.728C115.136 101.88 117.568 102.52 120.64 102.52C123.328 102.52 125.376 102.008 126.656 101.112C128.064 100.216 128.704 98.808 128.704 96.888C128.704 94.2 124.864 91.896 117.056 90.104H116.8C116.544 90.104 116.288 89.976 115.904 89.848C111.68 88.952 108.736 87.928 106.944 86.776C105.408 85.752 104.128 84.344 103.36 82.68C102.592 81.016 102.08 78.968 102.08 76.664C102.08 72.312 103.616 68.984 106.56 66.68C109.504 64.376 113.728 63.224 119.36 63.224C124.608 63.224 128.704 64.504 131.648 66.936C134.592 69.368 136.128 72.952 136.256 77.432H127.424C127.296 75.256 126.4 73.592 124.992 72.44C123.456 71.288 121.408 70.776 118.592 70.776C116.16 70.776 114.368 71.288 112.96 72.184C111.68 73.08 111.04 74.488 111.04 76.152C111.04 78.584 113.6 80.248 118.72 81.528C120.128 81.912 121.152 82.04 121.92 82.296C125.12 83.064 127.552 83.832 128.832 84.216C130.24 84.728 131.392 85.24 132.416 85.752C134.208 86.776 135.616 88.056 136.512 89.72C137.408 91.384 137.92 93.432 137.92 95.736C137.92 100.344 136.384 104.056 133.184 106.616C129.984 109.176 125.632 110.456 119.872 110.456C114.24 110.456 109.76 109.176 106.688 106.488C103.488 103.928 101.824 100.216 101.568 95.352L101.44 95.224ZM140.096 109.048L154.176 86.264L140.096 64.376H150.72L159.808 79.992L168.896 64.376H179.648L165.568 86.264L179.648 109.176H169.024L159.936 93.688L150.848 109.176H140.224L140.096 109.048Z" fill="white"/>
<path fill-rule="evenodd" clip-rule="evenodd" d="M175.68 221.816H156.736L152.512 227.064L148.288 221.816H129.344L143.04 238.84L129.344 255.864H175.552L161.856 238.84L175.552 221.816H175.68ZM137.536 224.248H134.848L158.272 253.56H160.96L137.536 224.248Z" fill="#007934"/>
<path fill-rule="evenodd" clip-rule="evenodd" d="M108.864 213.368V264.824L193.6 279.032V199.16L108.864 213.368ZM100.288 206.2L202.048 189.176V289.272L100.288 272.248V206.328V206.2Z" fill="#007934"/>
</svg>
