<svg width="272" height="342" viewBox="0 0 272 342" fill="none" xmlns="http://www.w3.org/2000/svg">
<path d="M34.3681 341.624H17.2161V0.375977H34.3681V341.624Z" fill="#D1D8DE"/>
<path d="M220.48 341.624H29.76V0.375977H271.168V291.064L220.48 341.624Z" fill="#EFF2F4"/>
<path d="M0.832031 136.568V36.856L17.216 52.984V152.824L0.832031 136.568Z" fill="#ED701D"/>
<path d="M220.48 291.064H271.168L220.48 341.624V291.064Z" fill="#CFD8DF"/>
<path d="M0.832031 136.568V36.856H180.672V136.568H0.832031Z" fill="#FE812F"/>
<path d="M26.176 109.048L40.256 86.264L26.176 64.376H36.8L45.888 79.992L54.976 64.376H65.728L51.648 86.264L65.728 109.176H55.104L46.016 93.688L36.928 109.176H26.304L26.176 109.048ZM70.08 109.048V64.248H83.648L92.608 98.296L101.44 64.248H115.136V109.048H106.56V72.952L97.472 109.048H88L78.784 72.952V109.048H70.208H70.08ZM124.352 109.048V64.248H133.568V100.728H155.456V109.048H124.352Z" fill="white"/>
<path d="M137.152 259.576L100.544 243.704V234.872L137.152 219V229.368L111.68 239.096L137.152 249.208V259.448V259.576ZM140.48 266.616L153.664 211.448H161.344L148.032 266.616H140.48ZM164.8 259.704V249.464L190.4 239.352L164.8 229.368V219.128L201.408 235V243.704L164.8 259.704Z" fill="#4D4D4D"/>
</svg>
