<svg width="272" height="342" viewBox="0 0 272 342" fill="none" xmlns="http://www.w3.org/2000/svg">
<path d="M34.3678 341.624H17.2158V0.375977H34.3678V341.624Z" fill="#D1D8DE"/>
<path d="M220.48 341.624H29.7603V0.375977H271.168V291.064L220.48 341.624Z" fill="#EFF2F4"/>
<path d="M0.832031 136.568V36.856L17.216 52.984V152.824L0.832031 136.568Z" fill="#6EA137"/>
<path d="M220.48 291.064H271.168L220.48 341.624V291.064Z" fill="#CFD8DF"/>
<path d="M0.832031 136.568V36.856H180.672V136.568H0.832031Z" fill="#85BB4B"/>
<path d="M50.752 72.6959L44.608 91.7679H57.024L50.752 72.6959ZM45.376 63.7359H56L72.128 108.536H62.4L59.328 99.3199H42.048L39.104 108.536H29.376L45.248 63.7359H45.376ZM75.456 63.6079H84.8V91.6399C84.8 95.0959 85.44 97.6559 86.848 99.1919C88.256 100.728 90.432 101.624 93.376 101.624C96.448 101.624 98.624 100.856 100.032 99.1919C101.44 97.6559 102.08 95.0959 102.08 91.6399V63.6079H111.296V92.6639C111.296 98.1679 109.76 102.392 106.688 105.336C103.616 108.28 99.264 109.688 93.376 109.688C87.616 109.688 83.136 108.28 80.064 105.336C76.992 102.392 75.456 98.1679 75.456 92.6639V63.6079ZM129.6 108.536V71.7999H116.288V63.8639H152V71.7999H138.816V108.536H129.6Z" fill="white"/>
<path fill-rule="evenodd" clip-rule="evenodd" d="M129.728 196.728C128.832 195.192 128.704 193.272 129.6 191.736C131.008 189.432 133.952 188.536 136.384 189.944L143.936 194.296C145.088 194.936 145.856 195.96 146.24 197.24C146.624 198.52 146.368 199.8 145.728 200.952L141.376 208.504C140.48 210.04 138.816 210.936 137.152 210.936C136.256 210.936 135.488 210.68 134.72 210.296C133.312 209.4 132.416 207.992 132.288 206.456C121.024 211.704 112.96 222.072 110.784 234.36C109.632 240.888 110.144 247.8 112.576 254.072C113.472 256.632 112.192 259.448 109.632 260.344C109.12 260.6 108.48 260.6 107.968 260.6C105.92 260.6 104 259.32 103.36 257.4C100.416 249.464 99.7762 240.888 101.184 232.696C104 216.696 115.008 203.256 129.984 196.856L129.728 196.728ZM119.744 279.416C118.976 281.08 117.312 282.232 115.264 282.232C112.576 282.232 110.272 280.056 110.272 277.368V268.664V268.536C110.272 268.408 110.272 268.408 110.272 268.28C110.4 267 111.04 265.72 112.064 264.952C113.088 264.184 114.24 263.8 115.52 263.8H123.968C126.656 263.8 128.96 265.976 128.96 268.664C128.96 270.328 128.192 271.736 127.04 272.632C131.52 275.576 136.64 277.624 141.888 278.648C155.328 280.952 169.28 275.96 178.112 265.592C179.904 263.544 182.976 263.288 185.024 264.952C187.072 266.744 187.328 269.816 185.664 271.864C176.448 282.744 162.752 289.016 148.544 289.016C145.728 289.016 142.912 288.76 140.224 288.248C132.8 286.968 125.76 283.896 119.744 279.544V279.416ZM186.944 244.088C187.712 235.256 185.28 226.424 180.16 219C174.272 210.68 165.44 205.048 155.328 203.256C152.64 202.744 150.848 200.312 151.36 197.624C151.872 194.936 154.432 193.144 157.12 193.656C169.792 195.832 180.928 202.872 188.352 213.368C195.264 223.224 198.208 235 196.672 246.776C198.464 246.648 200.384 247.544 201.408 249.208C202.816 251.512 201.92 254.584 199.616 255.864L192.064 260.216C191.296 260.6 190.4 260.856 189.632 260.856C189.248 260.856 188.736 260.856 188.352 260.728C187.072 260.344 186.048 259.576 185.408 258.424L181.056 250.872C179.648 248.568 180.544 245.496 182.848 244.216C184.256 243.448 185.92 243.32 187.2 243.96L186.944 244.088Z" fill="#546E7A"/>
</svg>
