<svg width="272" height="342" viewBox="0 0 272 342" fill="none" xmlns="http://www.w3.org/2000/svg">
<path d="M34.3678 341.624H17.2158V0.375977H34.3678V341.624Z" fill="#D1D8DE"/>
<path d="M220.48 341.624H29.7603V0.375977H271.168V291.064L220.48 341.624Z" fill="#EFF2F4"/>
<path d="M0.832031 136.568V36.856L17.216 52.984V152.824L0.832031 136.568Z" fill="#6DA602"/>
<path d="M220.48 291.064H271.168L220.48 341.624V291.064Z" fill="#CFD8DF"/>
<path d="M0.832031 136.568V36.856H180.672V136.568H0.832031Z" fill="#79B506"/>
<path d="M52.0322 100.984H62.9122C65.4722 100.984 67.3922 100.472 68.5442 99.576C69.6962 98.68 70.3362 97.144 70.3362 95.224C70.3362 93.176 69.6962 91.64 68.5442 90.744C67.3922 89.848 65.4722 89.336 62.7842 89.336H51.9042V100.984H52.0322ZM52.0322 81.656H62.5282C64.8322 81.656 66.4962 81.272 67.5202 80.504C68.5442 79.736 69.0562 78.456 69.0562 76.792C69.0562 75.128 68.5442 73.976 67.5202 73.208C66.4962 72.44 64.8322 72.056 62.4002 72.056H51.9042V81.656H52.0322ZM43.2002 109.048V64.248H64.3202C68.9282 64.248 72.3842 65.272 74.8162 67.192C77.2482 69.112 78.4002 71.928 78.4002 75.64C78.4002 77.944 78.0162 79.736 77.1202 81.272C76.2242 82.808 74.9442 83.96 73.1522 84.728C75.4562 85.624 77.2482 87.032 78.2722 88.824C79.4242 90.616 79.9362 92.792 79.9362 95.352C79.9362 99.704 78.5282 103.032 75.7122 105.464C72.8962 107.896 68.8002 109.048 63.6802 109.048H43.3282H43.2002ZM87.3602 109.048V64.248H96.5762V109.048H87.3602ZM106.176 109.048V64.248H115.776L133.952 94.968V64.248H143.04V109.048H133.568L115.264 78.328V109.048H106.176Z" fill="white"/>
<path fill-rule="evenodd" clip-rule="evenodd" d="M116.8 233.72H109.632V214.264L109.76 211.064L109.888 207.608C108.736 208.76 107.84 209.528 107.456 209.912L103.616 212.984L100.16 208.632L111.04 199.928H116.928V233.592L116.8 233.72Z" fill="#666666"/>
<path fill-rule="evenodd" clip-rule="evenodd" d="M148.928 216.824C148.928 222.712 147.904 227.064 145.984 229.88C144.064 232.696 141.12 234.104 137.024 234.104C133.184 234.104 130.24 232.696 128.192 229.752C126.272 226.808 125.248 222.584 125.248 216.824C125.248 210.936 126.144 206.456 128.064 203.64C129.984 200.824 132.928 199.416 136.896 199.416C140.736 199.416 143.68 200.952 145.728 203.896C147.776 206.84 148.672 211.192 148.672 216.824H148.928ZM132.416 216.824C132.416 220.92 132.8 223.864 133.44 225.656C134.208 227.448 135.36 228.344 137.024 228.344C138.688 228.344 139.84 227.448 140.608 225.656C141.376 223.864 141.76 220.92 141.76 216.824C141.76 212.728 141.376 209.784 140.608 207.864C139.84 206.072 138.688 205.176 137.024 205.176C135.36 205.176 134.208 206.072 133.44 207.864C132.672 209.656 132.416 212.6 132.416 216.824Z" fill="#666666"/>
<path fill-rule="evenodd" clip-rule="evenodd" d="M171.2 233.72H164.032V214.264L164.16 211.064L164.288 207.608C163.136 208.76 162.24 209.528 161.856 209.912L158.016 212.984L154.56 208.632L165.44 199.928H171.328V233.592L171.2 233.72Z" fill="#666666"/>
<path fill-rule="evenodd" clip-rule="evenodd" d="M201.92 216.824C201.92 222.712 200.896 227.064 198.976 229.88C197.056 232.696 194.112 234.104 190.016 234.104C186.176 234.104 183.232 232.696 181.184 229.752C179.264 226.808 178.24 222.584 178.24 216.824C178.24 210.936 179.136 206.456 181.056 203.64C182.976 200.824 185.92 199.416 189.888 199.416C193.728 199.416 196.672 200.952 198.72 203.896C200.768 206.84 201.664 211.192 201.664 216.824H201.92ZM185.408 216.824C185.408 220.92 185.792 223.864 186.432 225.656C187.2 227.448 188.352 228.344 190.016 228.344C191.68 228.344 192.832 227.448 193.6 225.656C194.368 223.864 194.752 220.92 194.752 216.824C194.752 212.728 194.368 209.784 193.6 207.864C192.832 206.072 191.68 205.176 190.016 205.176C188.352 205.176 187.2 206.072 186.432 207.864C185.664 209.656 185.408 212.6 185.408 216.824Z" fill="#666666"/>
<path fill-rule="evenodd" clip-rule="evenodd" d="M123.84 261.112C123.84 267 122.816 271.352 120.896 274.296C118.976 277.112 116.032 278.52 111.936 278.52C107.968 278.52 105.024 277.112 103.104 274.168C101.056 271.224 100.16 266.872 100.16 261.112C100.16 255.096 101.184 250.744 103.104 247.928C105.024 245.112 107.968 243.704 112.064 243.704C116.032 243.704 118.976 245.24 120.896 248.184C122.944 251.128 123.84 255.48 123.84 261.24V261.112ZM107.328 261.112C107.328 265.208 107.712 268.28 108.352 270.072C109.12 271.864 110.272 272.76 111.936 272.76C113.6 272.76 114.752 271.864 115.52 270.072C116.288 268.28 116.672 265.336 116.672 261.112C116.672 257.016 116.288 253.944 115.52 252.152C114.752 250.36 113.6 249.464 111.936 249.464C110.272 249.464 108.992 250.36 108.352 252.152C107.584 253.944 107.2 257.016 107.2 261.112H107.328Z" fill="#666666"/>
<path fill-rule="evenodd" clip-rule="evenodd" d="M147.52 278.008H140.352V258.424L140.48 255.224L140.608 251.64C139.456 252.792 138.56 253.56 138.176 253.944L134.336 257.016L130.88 252.664L141.76 243.96H147.648V277.88L147.52 278.008Z" fill="#666666"/>
<path fill-rule="evenodd" clip-rule="evenodd" d="M171.328 278.008H164.16V258.424L164.288 255.224L164.416 251.64C163.264 252.792 162.368 253.56 161.984 253.944L158.144 257.016L154.688 252.664L165.568 243.96H171.456V277.88L171.328 278.008Z" fill="#666666"/>
<path fill-rule="evenodd" clip-rule="evenodd" d="M201.92 261.112C201.92 267 200.896 271.352 198.976 274.296C197.056 277.112 194.112 278.52 190.016 278.52C186.048 278.52 183.104 277.112 181.184 274.168C179.136 271.224 178.24 266.872 178.24 261.112C178.24 255.096 179.264 250.744 181.184 247.928C183.104 245.112 186.048 243.704 190.144 243.704C194.112 243.704 197.056 245.24 198.976 248.184C201.024 251.128 201.92 255.48 201.92 261.24V261.112ZM185.408 261.112C185.408 265.208 185.792 268.28 186.432 270.072C187.2 271.864 188.352 272.76 190.016 272.76C191.68 272.76 192.832 271.864 193.6 270.072C194.368 268.28 194.752 265.336 194.752 261.112C194.752 257.016 194.368 253.944 193.6 252.152C192.832 250.36 191.68 249.464 190.016 249.464C188.352 249.464 187.072 250.36 186.432 252.152C185.664 253.944 185.28 257.016 185.28 261.112H185.408Z" fill="#666666"/>
</svg>
