<svg width="272" height="342" viewBox="0 0 272 342" fill="none" xmlns="http://www.w3.org/2000/svg">
<path d="M34.3681 341.624H17.2161V0.375977H34.3681V341.624Z" fill="#D1D8DE"/>
<path d="M220.48 341.624H29.76V0.375977H271.168V291.064L220.48 341.624Z" fill="#EFF2F4"/>
<path d="M0.832031 136.568V36.856L17.216 52.984V152.824L0.832031 136.568Z" fill="#0287D4"/>
<path d="M220.48 291.064H271.168L220.48 341.624V291.064Z" fill="#CFD8DF"/>
<path d="M0.832031 136.568V36.856H180.672V136.568H0.832031Z" fill="#009AF3"/>
<path d="M70.208 93.6879C69.824 98.8079 67.904 102.776 64.32 105.848C60.736 108.792 56.128 110.328 50.368 110.328C43.712 110.328 38.592 108.28 34.88 104.184C31.168 100.088 29.376 94.1999 29.376 86.7759C29.376 79.2239 31.296 73.3359 35.008 69.2399C38.72 65.1439 44.096 63.2239 51.136 63.2239C56.896 63.2239 61.376 64.6319 64.704 67.4479C68.032 70.2639 69.824 74.2319 70.208 79.2239H61.12C60.736 76.6639 59.712 74.7439 58.048 73.4639C56.384 72.1839 54.08 71.4159 51.264 71.4159C47.168 71.4159 44.096 72.6959 42.048 75.3839C40 77.9439 38.848 81.7839 38.848 86.7759C38.848 91.6399 39.872 95.3519 42.048 98.0399C44.096 100.728 47.168 102.008 51.008 102.008C53.824 102.008 56.128 101.24 57.92 99.8319C59.712 98.4239 60.864 96.3759 61.376 93.6879H70.336H70.208ZM76.608 95.2239H85.696C86.08 97.6559 87.104 99.4479 88.64 100.728C90.304 101.88 92.736 102.52 95.808 102.52C98.496 102.52 100.544 102.008 101.824 101.112C103.232 100.216 103.872 98.8079 103.872 96.8879C103.872 94.1999 100.032 91.8959 92.224 90.1039H91.968C91.712 90.1039 91.456 89.9759 91.072 89.8479C86.848 88.9519 83.904 87.9279 82.112 86.7759C80.576 85.7519 79.296 84.3439 78.528 82.6799C77.76 81.0159 77.248 78.9679 77.248 76.6639C77.248 72.3119 78.784 68.9839 81.728 66.6799C84.672 64.3759 88.896 63.2239 94.528 63.2239C99.776 63.2239 103.872 64.5039 106.816 66.9359C109.76 69.3679 111.296 72.9519 111.424 77.4319H102.592C102.464 75.2559 101.568 73.5919 100.16 72.4399C98.624 71.2879 96.576 70.7759 93.76 70.7759C91.328 70.7759 89.536 71.2879 88.128 72.1839C86.848 73.0799 86.208 74.4879 86.208 76.1519C86.208 78.5839 88.768 80.2479 93.888 81.5279C95.296 81.9119 96.32 82.0399 97.088 82.2959C100.288 83.0639 102.72 83.8319 104 84.2159C105.408 84.7279 106.56 85.2399 107.584 85.7519C109.376 86.7759 110.784 88.0559 111.68 89.7199C112.576 91.3839 113.088 93.4319 113.088 95.7359C113.088 100.344 111.552 104.056 108.352 106.616C105.152 109.176 100.8 110.456 95.04 110.456C89.408 110.456 84.928 109.176 81.856 106.488C78.656 103.928 76.992 100.216 76.736 95.3519L76.608 95.2239ZM130.624 109.048L115.136 64.2479H125.376L134.848 97.7839L144.576 64.2479H154.688L139.456 109.048H130.624Z" fill="white"/>
<path fill-rule="evenodd" clip-rule="evenodd" d="M137.28 189.176H100.288V252.024V262.264V288.76H202.176V262.264V252.024V202.488H137.28V189.176ZM106.432 262.264H131.136V268.92H106.432V262.264ZM137.28 262.264H196.032V268.92H137.28V262.264ZM196.032 255.608H137.28V252.024V249.08H196.032V252.024V255.608ZM131.136 255.608H106.432V252.024V249.08H131.136V252.024V255.608ZM131.136 282.232H106.432V275.576H131.136V282.232ZM196.032 282.232H137.28V275.576H196.032V282.232ZM106.432 209.144H131.136V215.8H106.432V209.144ZM106.432 222.456H131.136V229.112H106.432V222.456ZM106.432 235.768H131.136V242.424H106.432V235.768ZM196.032 242.424H137.28V235.768H196.032V242.424ZM196.032 229.112H137.28V222.456H196.032V229.112ZM196.032 209.144V215.8H137.28V209.144H196.032ZM106.432 202.488V195.832H131.136V202.488H106.432Z" fill="#00897B"/>
</svg>
