<svg width="512" height="512" viewBox="0 0 512 512" fill="none" xmlns="http://www.w3.org/2000/svg">
<g clip-path="url(#clip0_8_1765)">
<path d="M511.344 274.266C511.77 268.231 512 262.143 512 256C512 114.615 397.385 0 256 0C114.615 0 0 114.615 0 256C0 373.769 79.53 472.949 187.809 502.801L511.344 274.266Z" fill="#3CA8FA"/>
<path d="M511.344 274.266L314.991 77.9131L119.096 434.087L187.81 502.801C209.522 508.787 232.385 512 256 512C391.243 512 501.976 407.125 511.344 274.266Z" fill="#0076CF"/>
<path d="M278.328 333.913L255.711 77.9131H119.096V311.652L278.328 333.913Z" fill="white"/>
<path d="M392.904 311.652V155.826L337.252 133.565L314.991 77.9131H255.711L256.067 333.913L392.904 311.652Z" fill="#E8E6E6"/>
<path d="M314.991 155.826V77.9131L392.904 155.826H314.991Z" fill="white"/>
<path d="M392.905 311.652H119.096V434.087H392.905V311.652Z" fill="#00477D"/>
<path d="M243.242 372.42V393.08C237.565 397.091 228.637 399.968 221.219 399.968C205.1 399.968 192.914 388.313 192.914 372.874C192.914 357.512 205.401 345.933 222.127 345.933C229.997 345.933 238.323 348.96 243.77 353.803L236.202 362.96C232.342 359.403 226.969 357.209 222.05 357.209C213.347 357.209 206.687 364.02 206.687 372.874C206.687 381.88 213.423 388.691 222.202 388.691C224.926 388.691 228.406 387.707 231.586 386.118V372.42H243.242Z" fill="white"/>
<path d="M254.525 399.362V346.387H267.996V399.362H254.525Z" fill="white"/>
<path d="M293.956 356.982V369.242H317.719V379.838H293.956V399.363H280.485V346.388H319.762V356.983H293.956V356.982Z" fill="white"/>
</g>
<defs>
<clipPath id="clip0_8_1765">
<rect width="512" height="512" fill="white"/>
</clipPath>
</defs>
</svg>
