<svg width="512" height="512" viewBox="0 0 512 512" fill="none" xmlns="http://www.w3.org/2000/svg">
<g clip-path="url(#clip0_8_1846)">
<path d="M511.344 274.266C511.77 268.231 512 262.143 512 256C512 114.615 397.385 0 256 0C114.615 0 0 114.615 0 256C0 373.769 79.53 472.949 187.809 502.801L511.344 274.266Z" fill="#0076CF"/>
<path d="M511.344 274.266L314.991 77.9131L119.096 434.087L187.81 502.801C209.522 508.787 232.385 512 256 512C391.243 512 501.976 407.125 511.344 274.266Z" fill="#00477D"/>
<path d="M278.328 333.913L255.711 77.9131H119.096V311.652L278.328 333.913Z" fill="white"/>
<path d="M392.904 311.652V155.826L337.252 133.565L314.991 77.9131H255.711L256.067 333.913L392.904 311.652Z" fill="#E8E6E6"/>
<path d="M314.991 155.826V77.9131L392.904 155.826H314.991Z" fill="white"/>
<path d="M392.905 311.652H119.096V434.087H392.905V311.652Z" fill="#3CA8FA"/>
<path d="M216.147 382.182C216.147 393.458 209.108 399.967 197.832 399.967C190.341 399.967 184.286 396.864 179.594 391.491L185.799 382.485C189.583 386.421 193.821 388.389 196.924 388.389C200.481 388.389 202.601 386.194 202.601 381.88V357.208H184.438V346.31H216.147V382.182Z" fill="white"/>
<path d="M250.813 346.387C264.36 346.387 272.154 353.046 272.154 364.852C272.154 377.264 264.359 384.453 250.813 384.453H241.202V399.362H227.73V346.387H250.813ZM241.202 373.858H250.131C256.035 373.858 259.439 370.906 259.439 365.306C259.439 359.781 256.033 356.982 250.131 356.982H241.202V373.858V373.858Z" fill="white"/>
<path d="M327.935 372.42V393.08C322.258 397.091 313.329 399.968 305.912 399.968C289.793 399.968 277.608 388.313 277.608 372.874C277.608 357.512 290.095 345.933 306.82 345.933C314.69 345.933 323.015 348.96 328.464 353.803L320.895 362.96C317.035 359.403 311.662 357.209 306.743 357.209C298.04 357.209 291.38 364.02 291.38 372.874C291.38 381.88 298.116 388.691 306.894 388.691C309.619 388.691 313.1 387.707 316.279 386.118V372.42H327.935Z" fill="white"/>
</g>
<defs>
<clipPath id="clip0_8_1846">
<rect width="512" height="512" fill="white"/>
</clipPath>
</defs>
</svg>
