<svg width="512" height="512" viewBox="0 0 512 512" fill="none" xmlns="http://www.w3.org/2000/svg">
<g clip-path="url(#clip0_8_1872)">
<path d="M511.344 274.266C511.77 268.231 512 262.143 512 256C512 114.615 397.385 0 256 0C114.615 0 0 114.615 0 256C0 373.769 79.53 472.949 187.809 502.801L511.344 274.266Z" fill="#FF822E"/>
<path d="M511.344 274.266L314.991 77.9131L119.096 434.087L187.81 502.801C209.522 508.787 232.385 512 256 512C391.243 512 501.976 407.125 511.344 274.266Z" fill="#FC6411"/>
<path d="M278.328 333.913L255.711 77.9131H119.096V311.652L278.328 333.913Z" fill="white"/>
<path d="M392.904 311.652V155.826L337.252 133.565L314.991 77.9131H255.711L256.067 333.913L392.904 311.652Z" fill="#E8E6E6"/>
<path d="M314.991 155.826V77.9131L392.904 155.826H314.991Z" fill="white"/>
<path d="M392.905 311.652H119.096V434.087H392.905V311.652Z" fill="#CF3E00"/>
<path d="M246.574 382.182C246.574 393.458 239.535 399.967 228.259 399.967C220.767 399.967 214.712 396.864 210.021 391.491L216.226 382.485C220.01 386.421 224.249 388.389 227.351 388.389C230.908 388.389 233.028 386.194 233.028 381.88V357.208H214.865V346.31H246.574V382.182Z" fill="white"/>
<path d="M299.402 351.684L294.331 362.203C288.731 358.948 281.693 356.679 277.379 356.679C273.897 356.679 271.552 357.966 271.552 360.539C271.552 369.696 299.553 364.475 299.553 383.621C299.553 394.216 290.169 399.817 278.363 399.817C269.509 399.817 260.427 396.487 254.145 391.341L259.366 380.973C264.815 385.741 272.989 388.92 278.514 388.92C282.751 388.92 285.4 387.331 285.4 384.303C285.4 374.919 257.399 380.52 257.399 361.751C257.399 351.988 265.799 345.782 278.515 345.782C286.159 345.781 293.954 348.128 299.402 351.684Z" fill="white"/>
</g>
<defs>
<clipPath id="clip0_8_1872">
<rect width="512" height="512" fill="white"/>
</clipPath>
</defs>
</svg>
