<svg width="272" height="342" viewBox="0 0 272 342" fill="none" xmlns="http://www.w3.org/2000/svg">
<path d="M34.3681 341.624H17.2161V0.375977H34.3681V341.624Z" fill="#D1D8DE"/>
<path d="M220.48 341.624H29.76V0.375977H271.168V291.064L220.48 341.624Z" fill="#EFF2F4"/>
<path d="M0.832031 136.568V36.856L17.216 52.984V152.824L0.832031 136.568Z" fill="#D69A33"/>
<path d="M220.48 291.064H271.168L220.48 341.624V291.064Z" fill="#CFD8DF"/>
<path d="M0.832031 136.568V36.856H180.672V136.568H0.832031Z" fill="#F0B34A"/>
<path d="M32.5759 102.392V57.592H46.1439L55.1039 91.64L63.9359 57.592H77.6319V102.392H69.0559V66.296L59.9679 102.392H50.4959L41.2799 66.296V102.392H32.7039H32.5759ZM109.376 86.008C109.376 82.68 108.736 80.12 107.456 78.456C106.176 76.664 104.384 75.896 101.952 75.896C99.6479 75.896 97.8559 76.792 96.5759 78.456C95.2959 80.248 94.7839 82.68 94.7839 86.136C94.7839 89.208 95.4239 91.64 96.7039 93.432C97.9839 95.096 99.7759 95.992 102.208 95.992C104.384 95.992 106.176 95.096 107.456 93.432C108.736 91.64 109.376 89.336 109.376 86.264V86.008ZM86.2079 115.576V69.24H94.6559V73.72C95.9359 71.8 97.3439 70.392 98.8799 69.496C100.416 68.6 102.336 68.216 104.384 68.216C108.48 68.216 111.808 69.88 114.24 73.08C116.8 76.28 118.08 80.504 118.08 85.752C118.08 91 116.8 95.352 114.24 98.68C111.68 102.008 108.48 103.672 104.512 103.672C102.464 103.672 100.544 103.288 98.8799 102.392C97.2159 101.496 95.8079 100.216 94.7839 98.552V115.96H86.2079V115.576ZM140.224 86.264V67.576L128.448 86.264H140.224ZM140.096 102.392V93.048H121.792V85.368L137.792 60.152H148.544V86.136H153.536V93.048H148.544V102.392H140.096Z" fill="white"/>
<path fill-rule="evenodd" clip-rule="evenodd" d="M100.416 189.176H202.176V288.76H100.416V189.176Z" fill="#FFC35A"/>
<path fill-rule="evenodd" clip-rule="evenodd" d="M189.504 238.968C189.504 259.832 172.608 276.728 151.744 276.728C130.88 276.728 113.984 259.832 113.984 238.968C113.984 218.104 130.88 201.208 151.744 201.208C172.608 201.208 189.504 218.104 189.504 238.968Z" fill="white"/>
<path d="M192.064 238.968C192.064 250.104 187.584 260.216 180.288 267.512C172.992 274.808 162.88 279.288 151.744 279.288C140.608 279.288 130.496 274.808 123.2 267.512C115.904 260.216 111.424 250.104 111.424 238.968C111.424 227.832 115.904 217.72 123.2 210.424C130.496 203.128 140.608 198.648 151.744 198.648C162.88 198.648 172.992 203.128 180.288 210.424C187.584 217.72 192.064 227.832 192.064 238.968ZM176.576 263.928C182.976 257.528 186.944 248.696 186.944 238.968C186.944 229.24 182.976 220.408 176.576 214.008C170.176 207.608 161.344 203.64 151.616 203.64C141.888 203.64 133.056 207.608 126.656 214.008C120.256 220.408 116.288 229.24 116.288 238.968C116.288 248.696 120.256 257.528 126.656 263.928C133.056 270.328 141.888 274.296 151.616 274.296C161.344 274.296 170.176 270.328 176.576 263.928Z" fill="#BF8F3B"/>
<path d="M138.432 215.288L176.064 238.968L138.432 262.648V215.288Z" fill="#FFC35A"/>
</svg>
