<svg width="272" height="342" viewBox="0 0 272 342" fill="none" xmlns="http://www.w3.org/2000/svg">
<path d="M34.3678 341.624H17.2158V0.375977H34.3678V341.624Z" fill="#D1D8DE"/>
<path d="M220.48 341.624H29.7598V0.375977H271.168V291.064L220.48 341.624Z" fill="#EFF2F4"/>
<path d="M0.832031 136.568V36.856L17.216 52.984V152.824L0.832031 136.568Z" fill="#F05609"/>
<path d="M220.48 291.064H271.168L220.48 341.624V291.064Z" fill="#D1D8DE"/>
<path d="M0.832031 136.568V36.856H180.672V136.568H0.832031Z" fill="#FF671B"/>
<path d="M44.9924 84.984H53.9524C56.3844 84.984 58.0484 84.472 59.2004 83.448C60.3524 82.424 60.8644 80.76 60.8644 78.456C60.8644 76.28 60.3524 74.744 59.2004 73.592C58.1764 72.44 56.5124 71.928 54.3364 71.928H44.9924V84.856V84.984ZM44.9924 93.048V108.92H35.7764V64.12H55.6164C60.3524 64.12 63.8084 65.4 66.2404 67.832C68.6724 70.264 69.8244 73.848 69.8244 78.584C69.8244 83.192 68.6724 86.776 66.2404 89.208C63.9364 91.768 60.4804 92.92 56.1284 92.92H44.8644L44.9924 93.048ZM86.5924 84.984H95.5524C97.9844 84.984 99.6484 84.472 100.8 83.448C101.952 82.424 102.464 80.76 102.464 78.456C102.464 76.28 101.952 74.744 100.8 73.592C99.7764 72.44 98.1124 71.928 95.9364 71.928H86.5924V84.856V84.984ZM86.5924 93.048V108.92H77.3764V64.12H97.2164C101.952 64.12 105.408 65.4 107.84 67.832C110.272 70.264 111.424 73.848 111.424 78.584C111.424 83.192 110.272 86.776 107.84 89.208C105.536 91.768 102.08 92.92 97.7284 92.92H86.4644L86.5924 93.048ZM128.192 108.92V72.184H114.88V64.248H150.592V72.184H137.408V108.92H128.192Z" fill="white"/>
<path fill-rule="evenodd" clip-rule="evenodd" d="M100.416 189.048H202.176V288.632H100.416V189.048Z" fill="#FF671B"/>
<path fill-rule="evenodd" clip-rule="evenodd" d="M109.248 197.624H193.344V279.928H109.248V197.624Z" fill="white"/>
<path fill-rule="evenodd" clip-rule="evenodd" d="M121.408 214.264H181.184V263.288H121.408V214.264Z" fill="#FF671B"/>
<path fill-rule="evenodd" clip-rule="evenodd" d="M125.888 219.384H176.704V225.784H125.888V219.384Z" fill="white"/>
<path fill-rule="evenodd" clip-rule="evenodd" d="M138.56 231.16C131.52 231.16 125.888 236.664 125.888 243.576C125.888 250.488 131.52 255.992 138.56 255.992C145.6 255.992 151.232 250.488 151.232 243.576H138.56V231.16Z" fill="white"/>
<path fill-rule="evenodd" clip-rule="evenodd" d="M157.248 232.056H176.704V235.768H157.248V232.056Z" fill="white"/>
<path fill-rule="evenodd" clip-rule="evenodd" d="M157.248 239.864H176.704V243.576H157.248V239.864Z" fill="white"/>
<path fill-rule="evenodd" clip-rule="evenodd" d="M157.248 247.8H176.704V251.384H157.248V247.8Z" fill="white"/>
</svg>
