<svg width="272" height="342" viewBox="0 0 272 342" fill="none" xmlns="http://www.w3.org/2000/svg">
<path d="M34.3678 341.624H17.2158V0.375977H34.3678V341.624Z" fill="#D1D8DE"/>
<path d="M220.48 341.624H29.7603V0.375977H271.168V291.064L220.48 341.624Z" fill="#EFF2F4"/>
<path d="M0.832031 136.568V36.856L17.216 52.984V152.824L0.832031 136.568Z" fill="#DE8C11"/>
<path d="M220.48 291.064H271.168L220.48 341.624V291.064Z" fill="#CFD8DF"/>
<path d="M0.832031 136.568V36.856H180.672V136.568H0.832031Z" fill="#FAA21B"/>
<path d="M41.5358 83.832H52.4158C54.7198 83.832 56.5118 83.32 57.5358 82.424C58.6878 81.528 59.1998 79.992 59.1998 77.944C59.1998 76.024 58.6878 74.488 57.5358 73.464C56.5118 72.44 54.8478 71.928 52.7998 71.928H41.5358V83.832ZM32.3198 109.048V64.248H54.0798C58.9438 64.248 62.5278 65.272 64.9598 67.32C67.2638 69.368 68.5438 72.568 68.5438 76.92C68.5438 79.608 68.0318 81.912 66.8798 83.704C65.7278 85.496 64.0638 86.776 61.8878 87.416C63.8078 88.056 65.2158 89.208 65.9838 90.616C66.7518 92.024 67.2638 94.2 67.3918 97.272L67.5198 102.52V102.648C67.5198 105.336 68.1598 107 69.3118 107.512V108.92H59.1998C58.8158 108.28 58.6878 107.512 58.4318 106.616C58.3038 105.72 58.1758 104.568 58.1758 103.288L58.0478 98.552C57.9198 95.736 57.4078 93.944 56.5118 92.92C55.6158 91.896 53.8238 91.512 51.3918 91.512H41.6638V108.92H32.4478L32.3198 109.048ZM74.6878 95.224H83.7758C84.1598 97.656 85.1838 99.448 86.7198 100.728C88.3838 101.88 90.8158 102.52 93.8878 102.52C96.5758 102.52 98.6238 102.008 99.9038 101.112C101.312 100.216 101.952 98.808 101.952 96.888C101.952 94.2 98.1118 91.896 90.3038 90.104H90.0478C89.7918 90.104 89.5358 89.976 89.1518 89.848C84.9278 88.952 81.9838 87.928 80.1918 86.776C78.6558 85.752 77.3758 84.344 76.6078 82.68C75.8398 81.016 75.3278 78.968 75.3278 76.664C75.3278 72.312 76.8638 68.984 79.8078 66.68C82.7518 64.376 86.9758 63.224 92.6078 63.224C97.8558 63.224 101.952 64.504 104.896 66.936C107.84 69.368 109.376 72.952 109.504 77.432H100.672C100.544 75.256 99.6478 73.592 98.2398 72.44C96.7038 71.288 94.6558 70.776 91.8398 70.776C89.4078 70.776 87.6158 71.288 86.2078 72.184C84.9278 73.08 84.2878 74.488 84.2878 76.152C84.2878 78.584 86.8478 80.248 91.9678 81.528C93.3758 81.912 94.3998 82.04 95.1678 82.296C98.3678 83.064 100.8 83.832 102.08 84.216C103.488 84.728 104.64 85.24 105.664 85.752C107.456 86.776 108.864 88.056 109.76 89.72C110.656 91.384 111.168 93.432 111.168 95.736C111.168 100.344 109.632 104.056 106.432 106.616C103.232 109.176 98.8798 110.456 93.1198 110.456C87.4878 110.456 83.0078 109.176 79.9358 106.488C76.7358 103.928 75.0718 100.216 74.8158 95.352L74.6878 95.224ZM117.312 95.224H126.4C126.784 97.656 127.808 99.448 129.344 100.728C131.008 101.88 133.44 102.52 136.512 102.52C139.2 102.52 141.248 102.008 142.528 101.112C143.936 100.216 144.576 98.808 144.576 96.888C144.576 94.2 140.736 91.896 132.928 90.104H132.672C132.416 90.104 132.16 89.976 131.776 89.848C127.552 88.952 124.608 87.928 122.816 86.776C121.28 85.752 120 84.344 119.232 82.68C118.464 81.016 117.952 78.968 117.952 76.664C117.952 72.312 119.488 68.984 122.432 66.68C125.376 64.376 129.6 63.224 135.232 63.224C140.48 63.224 144.576 64.504 147.52 66.936C150.464 69.368 152 72.952 152.128 77.432H143.296C143.168 75.256 142.272 73.592 140.864 72.44C139.328 71.288 137.28 70.776 134.464 70.776C132.032 70.776 130.24 71.288 128.832 72.184C127.552 73.08 126.912 74.488 126.912 76.152C126.912 78.584 129.472 80.248 134.592 81.528C136 81.912 137.024 82.04 137.792 82.296C140.992 83.064 143.424 83.832 144.704 84.216C146.112 84.728 147.264 85.24 148.288 85.752C150.08 86.776 151.488 88.056 152.384 89.72C153.28 91.384 153.792 93.432 153.792 95.736C153.792 100.344 152.256 104.056 149.056 106.616C145.856 109.176 141.504 110.456 135.744 110.456C130.112 110.456 125.632 109.176 122.56 106.488C119.36 103.928 117.696 100.216 117.44 95.352L117.312 95.224Z" fill="white"/>
<path fill-rule="evenodd" clip-rule="evenodd" d="M174.656 274.424C174.656 266.488 180.8 260.088 188.48 260.088C196.16 260.088 202.304 266.488 202.304 274.424C202.304 282.36 196.16 288.76 188.48 288.76C180.8 288.76 174.656 282.36 174.656 274.424Z" fill="#FAA21B"/>
<path fill-rule="evenodd" clip-rule="evenodd" d="M200.256 243.448C188.48 243.448 177.344 247.928 168.896 256.12C160.576 264.312 155.968 275.192 155.968 286.84C155.968 287.736 155.2 288.504 154.304 288.504H135.36C134.464 288.504 133.696 287.736 133.696 286.84C133.696 251 163.52 221.816 200.128 221.816C201.024 221.816 201.792 222.584 201.792 223.48V241.912C201.792 242.808 201.024 243.576 200.128 243.576L200.256 243.448Z" fill="#FAA21B"/>
<path fill-rule="evenodd" clip-rule="evenodd" d="M200.256 189.176C201.152 189.176 201.92 189.944 201.92 190.84V209.272C201.92 210.168 201.152 210.936 200.256 210.936C157.376 210.936 122.56 245.112 122.56 287.096C122.56 287.992 121.792 288.76 120.896 288.76H101.952C101.056 288.76 100.288 287.992 100.288 287.096C100.288 233.208 145.088 189.304 200.128 189.304L200.256 189.176Z" fill="#FAA21B"/>
</svg>
