<svg width="272" height="342" viewBox="0 0 272 342" fill="none" xmlns="http://www.w3.org/2000/svg">
<path d="M34.3678 341.624H17.2158V0.375977H34.3678V341.624Z" fill="#D1D8DE"/>
<path d="M220.48 341.624H29.7603V0.375977H271.168V291.064L220.48 341.624Z" fill="#EFF2F4"/>
<path d="M0.832031 136.568V36.856L17.216 52.984V152.824L0.832031 136.568Z" fill="#2293C7"/>
<path d="M220.48 291.064H271.168L220.48 341.624V291.064Z" fill="#D1D8DE"/>
<path d="M0.832031 136.568V36.856H180.672V136.568H0.832031Z" fill="#2CA9E1"/>
<path d="M46.0158 83.832H56.8958C59.1998 83.832 60.9918 83.32 62.0158 82.424C63.1678 81.528 63.6798 79.992 63.6798 77.944C63.6798 76.024 63.1678 74.488 62.0158 73.464C60.9918 72.44 59.3278 71.928 57.2798 71.928H46.0158V83.832ZM36.7998 109.048V64.248H58.5598C63.4238 64.248 67.0078 65.272 69.4398 67.32C71.7438 69.368 73.0238 72.568 73.0238 76.92C73.0238 79.608 72.5118 81.912 71.3598 83.704C70.2078 85.496 68.5438 86.776 66.3678 87.416C68.2878 88.056 69.6958 89.208 70.4638 90.616C71.2318 92.024 71.7438 94.2 71.8718 97.272L71.9998 102.52V102.648C71.9998 105.336 72.6398 107 73.7918 107.512V108.92H63.6798C63.2958 108.28 63.1678 107.512 62.9118 106.616C62.7838 105.72 62.6558 104.568 62.6558 103.288L62.5278 98.552C62.3998 95.736 61.8878 93.944 60.9918 92.92C60.0958 91.896 58.3038 91.512 55.8718 91.512H46.1438V108.92H36.9278L36.7998 109.048ZM90.4318 109.048V72.312H77.1198V64.376H112.832V72.312H99.6478V109.048H90.4318ZM118.08 109.048V64.248H149.312V72.056H127.168V82.168H146.624V89.976H127.168V109.048H118.08Z" fill="white"/>
<path fill-rule="evenodd" clip-rule="evenodd" d="M100.416 276.984H143.296V288.504H100.416V276.984ZM100.416 188.792H202.304V200.312H100.416V188.792ZM100.416 210.808H171.712V222.328H100.416V210.808ZM100.416 232.824H202.304V244.344H100.416V232.824ZM100.416 254.84H193.6V266.36H100.416V254.84Z" fill="#2293C7"/>
</svg>
