<svg width="272" height="342" viewBox="0 0 272 342" fill="none" xmlns="http://www.w3.org/2000/svg">
<path d="M34.3678 341.624H17.2158V0.375977H34.3678V341.624Z" fill="#D1D8DE"/>
<path d="M220.48 341.624H29.7603V0.375977H271.168V291.064L220.48 341.624Z" fill="#EFF2F4"/>
<path d="M0.832031 136.568V36.856L17.216 52.984V152.824L0.832031 136.568Z" fill="#CF2B08"/>
<path d="M220.48 291.064H271.168L220.48 341.624V291.064Z" fill="#CFD8DF"/>
<path d="M0.832031 136.568V36.856H189.12V136.568H0.832031Z" fill="#FF350A"/>
<path d="M30.7839 109.048L17.9839 64.248H27.5839L35.2639 95.864L41.7919 64.248H51.6479L58.1759 95.864L65.8559 64.248H75.3279L62.5279 109.048H53.6959L46.7839 74.744L39.8719 109.048H31.0399H30.7839ZM80.1919 109.048V64.248H93.7599L102.72 98.296L111.552 64.248H125.248V109.048H116.672V72.952L107.584 109.048H98.1119L88.8959 72.952V109.048H80.3199H80.1919ZM151.104 73.208L144.96 92.28H157.376L151.104 73.208ZM145.728 64.248H156.352L172.48 109.048H162.752L159.68 99.832H142.4L139.456 109.048H129.728L145.6 64.248H145.728Z" fill="white"/>
<path fill-rule="evenodd" clip-rule="evenodd" d="M112.448 189.304H190.144V288.76H112.448V189.304Z" fill="#333E48"/>
<path fill-rule="evenodd" clip-rule="evenodd" d="M100.416 189.304H112.448V288.76H100.416V189.304Z" fill="#3A4752"/>
<path fill-rule="evenodd" clip-rule="evenodd" d="M190.144 189.304H202.176V288.76H190.144V189.304Z" fill="#3A4752"/>
<path d="M180.672 194.936H121.792C119.883 194.936 118.336 196.483 118.336 198.392V232.312C118.336 234.221 119.883 235.768 121.792 235.768H180.672C182.581 235.768 184.128 234.221 184.128 232.312V198.392C184.128 196.483 182.581 194.936 180.672 194.936Z" fill="#C2A436"/>
<path d="M180.672 242.296H121.792C119.883 242.296 118.336 243.843 118.336 245.752V279.672C118.336 281.581 119.883 283.128 121.792 283.128H180.672C182.581 283.128 184.128 281.581 184.128 279.672V245.752C184.128 243.843 182.581 242.296 180.672 242.296Z" fill="#C2A436"/>
<path d="M108.864 194.552H103.616C103.192 194.552 102.848 194.896 102.848 195.32V202.36C102.848 202.784 103.192 203.128 103.616 203.128H108.864C109.288 203.128 109.632 202.784 109.632 202.36V195.32C109.632 194.896 109.288 194.552 108.864 194.552Z" fill="white"/>
<path d="M108.864 207.864H103.616C103.192 207.864 102.848 208.208 102.848 208.632V215.672C102.848 216.096 103.192 216.44 103.616 216.44H108.864C109.288 216.44 109.632 216.096 109.632 215.672V208.632C109.632 208.208 109.288 207.864 108.864 207.864Z" fill="white"/>
<path d="M108.864 221.304H103.616C103.192 221.304 102.848 221.648 102.848 222.072V229.112C102.848 229.536 103.192 229.88 103.616 229.88H108.864C109.288 229.88 109.632 229.536 109.632 229.112V222.072C109.632 221.648 109.288 221.304 108.864 221.304Z" fill="white"/>
<path d="M108.864 234.744H103.616C103.192 234.744 102.848 235.088 102.848 235.512V242.552C102.848 242.976 103.192 243.32 103.616 243.32H108.864C109.288 243.32 109.632 242.976 109.632 242.552V235.512C109.632 235.088 109.288 234.744 108.864 234.744Z" fill="white"/>
<path d="M108.864 248.056H103.616C103.192 248.056 102.848 248.4 102.848 248.824V255.864C102.848 256.288 103.192 256.632 103.616 256.632H108.864C109.288 256.632 109.632 256.288 109.632 255.864V248.824C109.632 248.4 109.288 248.056 108.864 248.056Z" fill="white"/>
<path d="M108.864 261.496H103.616C103.192 261.496 102.848 261.84 102.848 262.264V269.304C102.848 269.728 103.192 270.072 103.616 270.072H108.864C109.288 270.072 109.632 269.728 109.632 269.304V262.264C109.632 261.84 109.288 261.496 108.864 261.496Z" fill="white"/>
<path d="M108.864 274.808H103.616C103.192 274.808 102.848 275.152 102.848 275.576V282.616C102.848 283.04 103.192 283.384 103.616 283.384H108.864C109.288 283.384 109.632 283.04 109.632 282.616V275.576C109.632 275.152 109.288 274.808 108.864 274.808Z" fill="white"/>
<path d="M198.72 194.552H193.472C193.048 194.552 192.704 194.896 192.704 195.32V202.36C192.704 202.784 193.048 203.128 193.472 203.128H198.72C199.144 203.128 199.488 202.784 199.488 202.36V195.32C199.488 194.896 199.144 194.552 198.72 194.552Z" fill="white"/>
<path d="M198.72 207.864H193.472C193.048 207.864 192.704 208.208 192.704 208.632V215.672C192.704 216.096 193.048 216.44 193.472 216.44H198.72C199.144 216.44 199.488 216.096 199.488 215.672V208.632C199.488 208.208 199.144 207.864 198.72 207.864Z" fill="white"/>
<path d="M198.72 221.304H193.472C193.048 221.304 192.704 221.648 192.704 222.072V229.112C192.704 229.536 193.048 229.88 193.472 229.88H198.72C199.144 229.88 199.488 229.536 199.488 229.112V222.072C199.488 221.648 199.144 221.304 198.72 221.304Z" fill="white"/>
<path d="M198.72 234.744H193.472C193.048 234.744 192.704 235.088 192.704 235.512V242.552C192.704 242.976 193.048 243.32 193.472 243.32H198.72C199.144 243.32 199.488 242.976 199.488 242.552V235.512C199.488 235.088 199.144 234.744 198.72 234.744Z" fill="white"/>
<path d="M198.72 248.056H193.472C193.048 248.056 192.704 248.4 192.704 248.824V255.864C192.704 256.288 193.048 256.632 193.472 256.632H198.72C199.144 256.632 199.488 256.288 199.488 255.864V248.824C199.488 248.4 199.144 248.056 198.72 248.056Z" fill="white"/>
<path d="M198.72 261.496H193.472C193.048 261.496 192.704 261.84 192.704 262.264V269.304C192.704 269.728 193.048 270.072 193.472 270.072H198.72C199.144 270.072 199.488 269.728 199.488 269.304V262.264C199.488 261.84 199.144 261.496 198.72 261.496Z" fill="white"/>
<path d="M198.72 274.808H193.472C193.048 274.808 192.704 275.152 192.704 275.576V282.616C192.704 283.04 193.048 283.384 193.472 283.384H198.72C199.144 283.384 199.488 283.04 199.488 282.616V275.576C199.488 275.152 199.144 274.808 198.72 274.808Z" fill="white"/>
</svg>
