<svg width="709" height="134" viewBox="0 0 709 134" fill="none" xmlns="http://www.w3.org/2000/svg">
<path d="M13.7273 12.9091L37.7273 51.6364H38.4545L62.4545 12.9091H75.7273L46.4545 59.4545L75.7273 106H62.4545L38.4545 68H37.7273L13.7273 106H0.454545L30.4545 59.4545L0.454545 12.9091H13.7273ZM113.682 107.455C107.379 107.455 101.848 105.955 97.0909 102.955C92.3636 99.9545 88.6667 95.7576 86 90.3636C83.3636 84.9697 82.0455 78.6667 82.0455 71.4545C82.0455 64.1818 83.3636 57.8333 86 52.4091C88.6667 46.9848 92.3636 42.7727 97.0909 39.7727C101.848 36.7727 107.379 35.2727 113.682 35.2727C119.985 35.2727 125.5 36.7727 130.227 39.7727C134.985 42.7727 138.682 46.9848 141.318 52.4091C143.985 57.8333 145.318 64.1818 145.318 71.4545C145.318 78.6667 143.985 84.9697 141.318 90.3636C138.682 95.7576 134.985 99.9545 130.227 102.955C125.5 105.955 119.985 107.455 113.682 107.455ZM113.682 97.8182C118.47 97.8182 122.409 96.5909 125.5 94.1364C128.591 91.6818 130.879 88.4545 132.364 84.4545C133.848 80.4545 134.591 76.1212 134.591 71.4545C134.591 66.7879 133.848 62.4394 132.364 58.4091C130.879 54.3788 128.591 51.1212 125.5 48.6364C122.409 46.1515 118.47 44.9091 113.682 44.9091C108.894 44.9091 104.955 46.1515 101.864 48.6364C98.7727 51.1212 96.4848 54.3788 95 58.4091C93.5152 62.4394 92.7727 66.7879 92.7727 71.4545C92.7727 76.1212 93.5152 80.4545 95 84.4545C96.4848 88.4545 98.7727 91.6818 101.864 94.1364C104.955 96.5909 108.894 97.8182 113.682 97.8182ZM189.875 133.636C184.693 133.636 180.239 132.97 176.511 131.636C172.784 130.333 169.678 128.606 167.193 126.455C164.739 124.333 162.784 122.061 161.33 119.636L169.875 113.636C170.845 114.909 172.072 116.364 173.557 118C175.042 119.667 177.072 121.106 179.648 122.318C182.254 123.561 185.663 124.182 189.875 124.182C195.511 124.182 200.163 122.818 203.83 120.091C207.496 117.364 209.33 113.091 209.33 107.273V93.0909H208.42C207.633 94.3636 206.511 95.9394 205.057 97.8182C203.633 99.6667 201.572 101.318 198.875 102.773C196.208 104.197 192.602 104.909 188.057 104.909C182.42 104.909 177.36 103.576 172.875 100.909C168.42 98.2424 164.89 94.3636 162.284 89.2727C159.708 84.1818 158.42 78 158.42 70.7273C158.42 63.5758 159.678 57.3485 162.193 52.0455C164.708 46.7121 168.208 42.5909 172.693 39.6818C177.178 36.7424 182.36 35.2727 188.239 35.2727C192.784 35.2727 196.39 36.0303 199.057 37.5455C201.754 39.0303 203.814 40.7273 205.239 42.6364C206.693 44.5151 207.814 46.0606 208.602 47.2727H209.693V36.1818H220.057V108C220.057 114 218.693 118.879 215.966 122.636C213.269 126.424 209.633 129.197 205.057 130.955C200.511 132.742 195.451 133.636 189.875 133.636ZM189.511 95.2727C193.814 95.2727 197.451 94.2879 200.42 92.3182C203.39 90.3485 205.648 87.5152 207.193 83.8182C208.739 80.1212 209.511 75.697 209.511 70.5455C209.511 65.5152 208.754 61.0758 207.239 57.2273C205.723 53.3788 203.481 50.3636 200.511 48.1818C197.542 46 193.875 44.9091 189.511 44.9091C184.966 44.9091 181.178 46.0606 178.148 48.3636C175.148 50.6667 172.89 53.7576 171.375 57.6364C169.89 61.5152 169.148 65.8182 169.148 70.5455C169.148 75.3939 169.905 79.6818 171.42 83.4091C172.966 87.1061 175.239 90.0152 178.239 92.1364C181.269 94.2273 185.027 95.2727 189.511 95.2727ZM275.693 106V36.1818H286.057V46.7273H286.784C288.057 43.2727 290.36 40.4697 293.693 38.3182C297.027 36.1667 300.784 35.0909 304.966 35.0909C305.754 35.0909 306.739 35.1061 307.92 35.1364C309.102 35.1667 309.996 35.2121 310.602 35.2727V46.1818C310.239 46.0909 309.405 45.9545 308.102 45.7727C306.83 45.5606 305.481 45.4545 304.057 45.4545C300.663 45.4545 297.633 46.1667 294.966 47.5909C292.33 48.9848 290.239 50.9242 288.693 53.4091C287.178 55.8636 286.42 58.6667 286.42 61.8182V106H275.693ZM349.557 107.455C343.254 107.455 337.723 105.955 332.966 102.955C328.239 99.9545 324.542 95.7576 321.875 90.3636C319.239 84.9697 317.92 78.6667 317.92 71.4545C317.92 64.1818 319.239 57.8333 321.875 52.4091C324.542 46.9848 328.239 42.7727 332.966 39.7727C337.723 36.7727 343.254 35.2727 349.557 35.2727C355.86 35.2727 361.375 36.7727 366.102 39.7727C370.86 42.7727 374.557 46.9848 377.193 52.4091C379.86 57.8333 381.193 64.1818 381.193 71.4545C381.193 78.6667 379.86 84.9697 377.193 90.3636C374.557 95.7576 370.86 99.9545 366.102 102.955C361.375 105.955 355.86 107.455 349.557 107.455ZM349.557 97.8182C354.345 97.8182 358.284 96.5909 361.375 94.1364C364.466 91.6818 366.754 88.4545 368.239 84.4545C369.723 80.4545 370.466 76.1212 370.466 71.4545C370.466 66.7879 369.723 62.4394 368.239 58.4091C366.754 54.3788 364.466 51.1212 361.375 48.6364C358.284 46.1515 354.345 44.9091 349.557 44.9091C344.769 44.9091 340.83 46.1515 337.739 48.6364C334.648 51.1212 332.36 54.3788 330.875 58.4091C329.39 62.4394 328.648 66.7879 328.648 71.4545C328.648 76.1212 329.39 80.4545 330.875 84.4545C332.36 88.4545 334.648 91.6818 337.739 94.1364C340.83 96.5909 344.769 97.8182 349.557 97.8182ZM354.466 11.0909L373.011 27.6364H359.92L349.557 18L339.193 27.6364H326.102L344.466 11.0909H354.466ZM322.102 0L330.83 16.5454H321.557L308.648 0H322.102ZM397.568 106V36.1818H408.295V106H397.568ZM403.023 24.5455C400.932 24.5455 399.129 23.8333 397.614 22.4091C396.129 20.9848 395.386 19.2727 395.386 17.2727C395.386 15.2727 396.129 13.5606 397.614 12.1364C399.129 10.7121 400.932 10 403.023 10C405.114 10 406.902 10.7121 408.386 12.1364C409.902 13.5606 410.659 15.2727 410.659 17.2727C410.659 19.2727 409.902 20.9848 408.386 22.4091C406.902 23.8333 405.114 24.5455 403.023 24.5455ZM490.307 107.455C484.489 107.455 479.352 105.985 474.898 103.045C470.443 100.076 466.958 95.8939 464.443 90.5C461.928 85.0758 460.67 78.6667 460.67 71.2727C460.67 63.9394 461.928 57.5758 464.443 52.1818C466.958 46.7879 470.458 42.6212 474.943 39.6818C479.428 36.7424 484.61 35.2727 490.489 35.2727C495.034 35.2727 498.625 36.0303 501.261 37.5455C503.928 39.0303 505.958 40.7273 507.352 42.6364C508.777 44.5151 509.883 46.0606 510.67 47.2727H511.58V12.9091H522.307V106H511.943V95.2727H510.67C509.883 96.5455 508.761 98.1515 507.307 100.091C505.852 102 503.777 103.712 501.08 105.227C498.383 106.712 494.792 107.455 490.307 107.455ZM491.761 97.8182C496.064 97.8182 499.701 96.697 502.67 94.4545C505.64 92.1818 507.898 89.0455 509.443 85.0455C510.989 81.0152 511.761 76.3636 511.761 71.0909C511.761 65.8788 511.004 61.3182 509.489 57.4091C507.973 53.4697 505.731 50.4091 502.761 48.2273C499.792 46.0151 496.125 44.9091 491.761 44.9091C487.216 44.9091 483.428 46.0758 480.398 48.4091C477.398 50.7121 475.14 53.8485 473.625 57.8182C472.14 61.7576 471.398 66.1818 471.398 71.0909C471.398 76.0606 472.155 80.5758 473.67 84.6364C475.216 88.6667 477.489 91.8788 480.489 94.2727C483.519 96.6364 487.277 97.8182 491.761 97.8182ZM492.307 30.1818V21.8182H532.307V30.1818H492.307ZM571.807 107.455C565.504 107.455 559.973 105.955 555.216 102.955C550.489 99.9545 546.792 95.7576 544.125 90.3636C541.489 84.9697 540.17 78.6667 540.17 71.4545C540.17 64.1818 541.489 57.8333 544.125 52.4091C546.792 46.9848 550.489 42.7727 555.216 39.7727C559.973 36.7727 565.504 35.2727 571.807 35.2727C578.11 35.2727 583.625 36.7727 588.352 39.7727C593.11 42.7727 596.807 46.9848 599.443 52.4091C602.11 57.8333 603.443 64.1818 603.443 71.4545C603.443 78.6667 602.11 84.9697 599.443 90.3636C596.807 95.7576 593.11 99.9545 588.352 102.955C583.625 105.955 578.11 107.455 571.807 107.455ZM571.807 97.8182C576.595 97.8182 580.534 96.5909 583.625 94.1364C586.716 91.6818 589.004 88.4545 590.489 84.4545C591.973 80.4545 592.716 76.1212 592.716 71.4545C592.716 66.7879 591.973 62.4394 590.489 58.4091C589.004 54.3788 586.716 51.1212 583.625 48.6364C580.534 46.1515 576.595 44.9091 571.807 44.9091C567.019 44.9091 563.08 46.1515 559.989 48.6364C556.898 51.1212 554.61 54.3788 553.125 58.4091C551.64 62.4394 550.898 66.7879 550.898 71.4545C550.898 76.1212 551.64 80.4545 553.125 84.4545C554.61 88.4545 556.898 91.6818 559.989 94.1364C563.08 96.5909 567.019 97.8182 571.807 97.8182ZM566.898 26.7273L577.989 5.63636H590.534L576.352 26.7273H566.898ZM676.364 107.636C671.939 107.636 667.924 106.803 664.318 105.136C660.712 103.439 657.848 101 655.727 97.8182C653.606 94.6061 652.545 90.7273 652.545 86.1818C652.545 82.1818 653.333 78.9394 654.909 76.4545C656.485 73.9394 658.591 71.9697 661.227 70.5455C663.864 69.1212 666.773 68.0606 669.955 67.3636C673.167 66.6364 676.394 66.0606 679.636 65.6364C683.879 65.0909 687.318 64.6818 689.955 64.4091C692.621 64.1061 694.561 63.6061 695.773 62.9091C697.015 62.2121 697.636 61 697.636 59.2727V58.9091C697.636 54.4242 696.409 50.9394 693.955 48.4545C691.53 45.9697 687.848 44.7273 682.909 44.7273C677.788 44.7273 673.773 45.8485 670.864 48.0909C667.955 50.3333 665.909 52.7273 664.727 55.2727L654.545 51.6364C656.364 47.3939 658.788 44.0909 661.818 41.7273C664.879 39.3333 668.212 37.6667 671.818 36.7273C675.455 35.7576 679.03 35.2727 682.545 35.2727C684.788 35.2727 687.364 35.5455 690.273 36.0909C693.212 36.6061 696.045 37.6818 698.773 39.3182C701.53 40.9545 703.818 43.4242 705.636 46.7273C707.455 50.0303 708.364 54.4545 708.364 60V106H697.636V96.5455H697.091C696.364 98.0606 695.152 99.6818 693.455 101.409C691.758 103.136 689.5 104.606 686.682 105.818C683.864 107.03 680.424 107.636 676.364 107.636ZM678 98C682.242 98 685.818 97.1667 688.727 95.5C691.667 93.8333 693.879 91.6818 695.364 89.0455C696.879 86.4091 697.636 83.6364 697.636 80.7273V70.9091C697.182 71.4545 696.182 71.9545 694.636 72.4091C693.121 72.8333 691.364 73.2121 689.364 73.5455C687.394 73.8485 685.47 74.1212 683.591 74.3636C681.742 74.5758 680.242 74.7576 679.091 74.9091C676.303 75.2727 673.697 75.8636 671.273 76.6818C668.879 77.4697 666.939 78.6667 665.455 80.2727C664 81.8485 663.273 84 663.273 86.7273C663.273 90.4545 664.652 93.2727 667.409 95.1818C670.197 97.0606 673.727 98 678 98Z" fill="#FF0000"/>
</svg>
